<svg width="168" height="168" viewBox="0 0 168 168" fill="none" xmlns="http://www.w3.org/2000/svg">
<path d="M158.615 9.92349C175.882 27.1915 156.635 74.4359 115.623 115.448C74.611 156.46 27.3665 175.707 10.0985 158.44C-7.16944 141.171 12.0784 93.9268 53.0899 52.9149C94.1019 11.9034 141.346 -7.34449 158.615 9.92349Z" stroke="#684DE3" stroke-width="6" stroke-linecap="round"/>
<path d="M10.0985 9.92349C-7.16944 27.1915 12.0784 74.4359 53.0899 115.448C94.1019 156.46 141.346 175.707 158.615 158.44C175.882 141.171 156.635 93.9268 115.623 52.9149C74.611 11.9034 27.3665 -7.34449 10.0985 9.92349Z" stroke="#684DE3" stroke-width="6" stroke-linecap="round"/>
<path d="M102.635 84.1814C102.635 94.2767 94.4513 102.46 84.3559 102.46C74.2606 102.46 66.0771 94.2767 66.0771 84.1814C66.0771 74.086 74.2606 65.9026 84.3559 65.9026C94.4513 65.9026 102.635 74.086 102.635 84.1814Z" stroke="#684DE3" stroke-width="6" stroke-linecap="round"/>
</svg>
