<svg width="178" height="178" viewBox="0 0 178 178" fill="none" xmlns="http://www.w3.org/2000/svg">
<path d="M117.213 3.30298H61.4988C41.3679 3.30298 31.3025 3.30298 23.6135 7.22068C16.85 10.6669 11.3512 16.1657 7.905 22.9291C3.98731 30.6181 3.9873 40.6835 3.9873 60.8144V116.529C3.9873 136.659 3.98731 146.725 7.905 154.414C11.3512 161.177 16.85 166.676 23.6135 170.122C31.3025 174.04 41.3679 174.04 61.4988 174.04H117.213C137.344 174.04 147.409 174.04 155.099 170.122C161.862 166.676 167.36 161.177 170.807 154.414C174.724 146.725 174.724 136.659 174.724 116.529V60.8144C174.724 40.6835 174.724 30.6181 170.807 22.9291C167.36 16.1657 161.862 10.6669 155.099 7.22068C147.409 3.30298 137.344 3.30298 117.213 3.30298Z" stroke="#684DE3" stroke-width="6" stroke-linecap="round"/>
<path d="M98.3418 133.602H138.78" stroke="#684DE3" stroke-width="6" stroke-linecap="round"/>
<path d="M44.4248 79.6853L70.786 99.4656C75.578 103.062 75.5762 110.251 70.7825 113.844L44.4248 133.602" stroke="#684DE3" stroke-width="6" stroke-linecap="round"/>
</svg>
