<?xml version="1.0" encoding="UTF-8"?>
<svg xmlns="http://www.w3.org/2000/svg" viewBox="0 0 455.76 432.65">
  <defs>
    <style>
      .cls-1, .cls-2, .cls-3 {
        fill: #fff;
      }

      .cls-4 {
        fill: #fafafa;
      }

      .cls-5 {
        fill: #37474f;
      }

      .cls-6 {
        fill: #f5f5f5;
      }

      .cls-7 {
        fill: #455a64;
      }

      .cls-8 {
        fill: #e0d9ff;
      }

      .cls-9, .cls-10 {
        fill: #9578ef;
      }

      .cls-11 {
        fill: #f28f8f;
      }

      .cls-2 {
        opacity: .5;
      }

      .cls-12 {
        fill: #e0e0e0;
      }

      .cls-13 {
        opacity: .35;
      }

      .cls-3, .cls-14, .cls-15, .cls-10 {
        opacity: .8;
      }

      .cls-16 {
        fill: #e6e6e6;
      }

      .cls-17 {
        opacity: .15;
      }

      .cls-18 {
        opacity: .4;
      }

      .cls-19 {
        fill: #27debf;
      }

      .cls-15 {
        fill: #f8e1ff;
      }

      .cls-20 {
        opacity: .55;
      }

      .cls-21 {
        fill: #ebebeb;
      }

      .cls-22 {
        opacity: .25;
      }

      .cls-23 {
        fill: #263238;
      }

      .cls-24 {
        fill: #ffa8a7;
      }
    </style>
  </defs>
  <g id="Floor">
    <ellipse id="Floor-2" data-name="Floor" class="cls-6" cx="227.88" cy="307.38" rx="227.88" ry="125.27"/>
  </g>
  <g id="Shadows">
    <ellipse id="Shadow" class="cls-12" cx="270.61" cy="371.46" rx="72.58" ry="41.9"/>
    <path id="Shadow-2" data-name="Shadow" class="cls-12" d="m211.96,320.68l130.91-75.58c1.55-.89,1.55-2.34,0-3.23l-57.41-33.14c-1.55-.89-4.05-.89-5.6,0l-130.91,75.58c-1.55.89-1.55,2.34,0,3.23l57.41,33.14c1.55.89,4.05.89,5.6,0Z"/>
    <path id="Shadow-3" data-name="Shadow" class="cls-12" d="m101.68,335.84l-83.66-48.3c-1.55-.89-1.55-2.34,0-3.23l136.16-78.61c1.55-.89,4.05-.89,5.6,0l83.66,48.3c1.55.89,1.55,2.34,0,3.23l-136.16,78.61c-1.55.89-4.05.89-5.6,0Z"/>
  </g>
  <g id="Photos">
    <g id="Photos-2" data-name="Photos">
      <g>
        <path class="cls-5" d="m145.75,198.29l-125.69,72.58c-.9.52-1.64,1.79-1.64,2.83v3.31c0,1.04.73,2.31,1.64,2.83l82.65,47.72c.9.52,2.37.52,3.27,0l125.71-72.59c.9-.52,1.64-1.79,1.64-2.83v-3.31c0-1.04-.73-2.31-1.64-2.83l-82.66-47.71c-.9-.52-2.37-.52-3.27,0Z"/>
        <path class="cls-7" d="m102.7,320.47l-82.65-47.72c-.9-.52-.9-1.37,0-1.89l125.69-72.58c.9-.52,2.37-.52,3.27,0l82.66,47.71c.9.52.9,1.37,0,1.89l-125.71,72.59c-.9.52-2.37.52-3.27,0Z"/>
        <path class="cls-23" d="m104.44,320.86v7.09c-.62.02-1.25-.11-1.74-.38l-82.65-47.73c-.89-.51-1.63-1.78-1.63-2.83v-3.31c0-.92.57-2.02,1.33-2.63-.57.53-.48,1.22.3,1.68l82.65,47.71c.48.29,1.12.41,1.74.39Z"/>
      </g>
      <g>
        <polygon class="cls-12" points="211.94 252.87 208.5 254.86 220.72 162.75 224.16 160.75 211.94 252.87"/>
        <polygon class="cls-4" points="208.5 254.86 134.83 212.34 147.04 120.23 220.72 162.75 208.5 254.86"/>
        <polygon class="cls-21" points="224.16 160.75 220.72 162.75 147.04 120.23 150.54 118.21 224.16 160.75"/>
        <polygon class="cls-19" points="216.87 164.13 149.35 125.16 138.27 209.33 205.79 248.24 216.87 164.13"/>
        <polygon class="cls-3" points="216.87 164.13 149.35 125.16 138.27 209.33 205.79 248.24 216.87 164.13"/>
        <path class="cls-10" d="m145.5,176.91l17.32-16.41c1.81-1.71,3.95-1.19,4.75,1.17l12.42,36.58c.31.91,1.67.64,1.6-.32l-.54-7.71,11.05-7.77c2.04-1.43,4.62-.78,5.73,1.45l13,26-4.61,35.03-64.89-37.43,4.17-30.59Z"/>
        <path class="cls-19" d="m204.25,164.34c-3.05-1.76-5.9-.57-6.36,2.67-.47,3.23,1.65,7.29,4.74,9.07,3.08,1.78,5.93.59,6.36-2.67.43-3.25-1.69-7.31-4.74-9.07Z"/>
        <polygon class="cls-12" points="152.4 126.94 141.33 207.5 138.27 209.27 149.35 125.16 152.4 126.94"/>
        <polygon class="cls-21" points="141.33 207.5 206.22 244.93 205.79 248.24 138.27 209.27 141.33 207.5"/>
      </g>
      <g>
        <polygon class="cls-12" points="193.62 263.48 190.18 265.47 202.39 173.36 205.84 171.37 193.62 263.48"/>
        <polygon class="cls-4" points="190.18 265.47 116.5 222.95 128.71 130.84 202.39 173.36 190.18 265.47"/>
        <polygon class="cls-21" points="205.84 171.37 202.39 173.36 128.71 130.84 132.21 128.82 205.84 171.37"/>
        <polygon class="cls-19" points="198.54 174.74 131.02 135.78 119.94 219.94 187.46 258.86 198.54 174.74"/>
        <polygon class="cls-15" points="198.54 174.74 131.02 135.78 119.94 219.94 187.46 258.86 198.54 174.74"/>
        <path class="cls-10" d="m127.18,187.52l17.32-16.41c1.81-1.71,3.95-1.19,4.75,1.17l12.42,36.58c.31.91,1.67.64,1.6-.32l-.54-7.71,11.05-7.77c2.04-1.43,4.62-.78,5.73,1.45l13,26-4.61,35.03-64.89-37.43,4.17-30.59Z"/>
        <path class="cls-10" d="m185.92,174.96c-3.05-1.76-5.9-.57-6.36,2.67-.47,3.23,1.65,7.29,4.74,9.07,3.08,1.78,5.93.59,6.36-2.67.43-3.25-1.69-7.31-4.74-9.07Z"/>
        <polygon class="cls-12" points="134.08 137.56 123 218.11 119.95 219.88 131.02 135.78 134.08 137.56"/>
        <polygon class="cls-21" points="123 218.11 187.9 255.54 187.46 258.86 119.95 219.88 123 218.11"/>
      </g>
      <g>
        <polygon class="cls-12" points="175.29 274.1 171.85 276.09 184.06 183.98 187.51 181.98 175.29 274.1"/>
        <polygon class="cls-4" points="171.85 276.09 98.18 233.57 110.39 141.46 184.06 183.98 171.85 276.09"/>
        <polygon class="cls-21" points="187.51 181.98 184.06 183.98 110.39 141.46 113.89 139.44 187.51 181.98"/>
        <polygon class="cls-19" points="180.21 185.36 112.69 146.39 101.61 230.56 169.13 269.47 180.21 185.36"/>
        <polygon class="cls-15" points="180.21 185.36 112.69 146.39 101.61 230.56 169.13 269.47 180.21 185.36"/>
        <path class="cls-10" d="m108.85,198.14l17.32-16.41c1.81-1.71,3.95-1.19,4.75,1.17l12.42,36.58c.31.91,1.67.64,1.6-.32l-.54-7.71,11.05-7.77c2.04-1.43,4.62-.78,5.73,1.45l13,26-4.61,35.03-64.89-37.43,4.17-30.59Z"/>
        <path class="cls-10" d="m167.6,185.57c-3.05-1.76-5.9-.57-6.36,2.67-.47,3.23,1.65,7.29,4.74,9.07,3.08,1.78,5.93.59,6.36-2.67.43-3.25-1.69-7.31-4.74-9.07Z"/>
        <polygon class="cls-12" points="115.75 148.17 104.68 228.73 101.62 230.5 112.69 146.39 115.75 148.17"/>
        <polygon class="cls-21" points="104.68 228.73 169.57 266.16 169.13 269.47 101.62 230.5 104.68 228.73"/>
      </g>
      <g>
        <polygon class="cls-12" points="156.97 284.71 153.52 286.7 165.74 194.59 169.19 192.6 156.97 284.71"/>
        <polygon class="cls-4" points="153.52 286.7 79.85 244.18 92.06 152.07 165.74 194.59 153.52 286.7"/>
        <polygon class="cls-21" points="169.19 192.6 165.74 194.59 92.06 152.07 95.56 150.05 169.19 192.6"/>
        <polygon class="cls-19" points="161.89 195.97 94.37 157.01 83.29 241.17 150.81 280.09 161.89 195.97"/>
        <polygon class="cls-15" points="161.89 195.97 94.37 157.01 83.29 241.17 150.81 280.09 161.89 195.97"/>
        <path class="cls-10" d="m90.52,208.75l17.32-16.41c1.81-1.71,3.95-1.19,4.75,1.17l12.42,36.58c.31.91,1.67.64,1.6-.32l-.54-7.71,11.05-7.77c2.04-1.43,4.62-.78,5.73,1.45l13,26-4.61,35.03-64.89-37.43,4.17-30.59Z"/>
        <path class="cls-10" d="m149.27,196.19c-3.05-1.76-5.9-.57-6.36,2.67-.47,3.23,1.65,7.29,4.74,9.07,3.08,1.78,5.93.59,6.36-2.67.43-3.25-1.69-7.31-4.74-9.07Z"/>
        <polygon class="cls-12" points="97.43 158.79 86.35 239.34 83.29 241.12 94.37 157.01 97.43 158.79"/>
        <polygon class="cls-21" points="86.35 239.34 151.24 276.77 150.81 280.09 83.29 241.12 86.35 239.34"/>
      </g>
      <g>
        <polygon class="cls-12" points="138.64 295.33 135.2 297.32 147.41 205.21 150.86 203.21 138.64 295.33"/>
        <polygon class="cls-4" points="135.2 297.32 61.52 254.8 73.74 162.69 147.41 205.21 135.2 297.32"/>
        <polygon class="cls-21" points="150.86 203.21 147.41 205.21 73.74 162.69 77.23 160.67 150.86 203.21"/>
        <polygon class="cls-19" points="143.56 206.59 76.04 167.62 64.96 251.79 132.48 290.7 143.56 206.59"/>
        <polygon class="cls-15" points="143.56 206.59 76.04 167.62 64.96 251.79 132.48 290.7 143.56 206.59"/>
        <path class="cls-10" d="m72.2,219.37l17.32-16.41c1.81-1.71,3.95-1.19,4.75,1.17l12.42,36.58c.31.91,1.67.64,1.6-.32l-.54-7.71,11.05-7.77c2.04-1.43,4.62-.78,5.73,1.45l13,26-4.61,35.03-64.89-37.43,4.17-30.59Z"/>
        <path class="cls-10" d="m130.95,206.8c-3.05-1.76-5.9-.57-6.36,2.67-.47,3.23,1.65,7.29,4.74,9.07,3.08,1.78,5.93.59,6.36-2.67.43-3.25-1.69-7.31-4.74-9.07Z"/>
        <polygon class="cls-12" points="79.1 169.4 68.03 249.96 64.97 251.73 76.04 167.62 79.1 169.4"/>
        <polygon class="cls-21" points="68.03 249.96 132.92 287.39 132.48 290.7 64.97 251.73 68.03 249.96"/>
      </g>
      <g>
        <polygon class="cls-12" points="120.31 305.94 116.87 307.93 129.09 215.82 132.53 213.83 120.31 305.94"/>
        <polygon class="cls-4" points="116.87 307.93 43.2 265.41 55.41 173.3 129.09 215.82 116.87 307.93"/>
        <polygon class="cls-21" points="132.53 213.83 129.09 215.82 55.41 173.3 58.91 171.28 132.53 213.83"/>
        <polygon class="cls-19" points="125.24 217.2 57.72 178.24 46.64 262.4 114.16 301.32 125.24 217.2"/>
        <polygon class="cls-15" points="125.24 217.2 57.72 178.24 46.64 262.4 114.16 301.32 125.24 217.2"/>
        <path class="cls-10" d="m53.87,229.98l17.32-16.41c1.81-1.71,3.95-1.19,4.75,1.17l12.42,36.58c.31.91,1.67.64,1.6-.32l-.54-7.71,11.05-7.77c2.04-1.43,4.62-.78,5.73,1.45l13,26-4.61,35.03-64.89-37.43,4.17-30.59Z"/>
        <path class="cls-10" d="m112.62,217.42c-3.05-1.76-5.9-.57-6.36,2.67-.47,3.23,1.65,7.29,4.74,9.07,3.08,1.78,5.93.59,6.36-2.67.43-3.25-1.69-7.31-4.74-9.07Z"/>
        <polygon class="cls-12" points="60.77 180.02 49.7 260.57 46.64 262.35 57.72 178.24 60.77 180.02"/>
        <polygon class="cls-21" points="49.7 260.57 114.59 298 114.16 301.32 46.64 262.35 49.7 260.57"/>
      </g>
    </g>
    <g id="Photos-3" data-name="Photos">
      <g>
        <path class="cls-5" d="m145.75,81.94L20.06,154.52c-.9.52-1.64,1.79-1.64,2.83v3.31c0,1.04.73,2.31,1.64,2.83l82.65,47.72c.9.52,2.37.52,3.27,0l125.71-72.59c.9-.52,1.64-1.79,1.64-2.83v-3.31c0-1.04-.73-2.31-1.64-2.83l-82.66-47.71c-.9-.52-2.37-.52-3.27,0Z"/>
        <path class="cls-7" d="m102.7,204.13l-82.65-47.72c-.9-.52-.9-1.37,0-1.89l125.69-72.58c.9-.52,2.37-.52,3.27,0l82.66,47.71c.9.52.9,1.37,0,1.89l-125.71,72.59c-.9.52-2.37.52-3.27,0Z"/>
        <path class="cls-23" d="m104.44,204.51v7.09c-.62.02-1.25-.11-1.74-.38l-82.65-47.73c-.89-.51-1.63-1.78-1.63-2.83v-3.31c0-.92.57-2.02,1.33-2.63-.57.53-.48,1.22.3,1.68l82.65,47.71c.48.29,1.12.41,1.74.39Z"/>
      </g>
      <g>
        <polygon class="cls-12" points="211.94 135.76 208.5 137.75 220.72 45.64 224.16 43.65 211.94 135.76"/>
        <polygon class="cls-4" points="208.5 137.75 134.83 95.23 147.04 3.12 220.72 45.64 208.5 137.75"/>
        <polygon class="cls-21" points="224.16 43.65 220.72 45.64 147.04 3.12 150.54 1.1 224.16 43.65"/>
        <polygon class="cls-19" points="216.87 47.02 149.35 8.06 138.27 92.22 205.79 131.14 216.87 47.02"/>
        <polygon class="cls-15" points="216.87 47.02 149.35 8.06 138.27 92.22 205.79 131.14 216.87 47.02"/>
        <path class="cls-10" d="m145.5,59.8l17.32-16.41c1.81-1.71,3.95-1.19,4.75,1.17l12.42,36.58c.31.91,1.67.64,1.6-.32l-.54-7.71,11.05-7.77c2.04-1.43,4.62-.78,5.73,1.45l13,26-4.61,35.03-64.89-37.43,4.17-30.59Z"/>
        <path class="cls-10" d="m204.25,47.24c-3.05-1.76-5.9-.57-6.36,2.67-.47,3.23,1.65,7.29,4.74,9.07,3.08,1.78,5.93.59,6.36-2.67.43-3.25-1.69-7.31-4.74-9.07Z"/>
        <polygon class="cls-12" points="152.4 9.83 141.33 90.39 138.27 92.16 149.35 8.06 152.4 9.83"/>
        <polygon class="cls-21" points="141.33 90.39 206.22 127.82 205.79 131.14 138.27 92.16 141.33 90.39"/>
      </g>
      <g>
        <polygon class="cls-12" points="193.62 146.37 190.18 148.36 202.39 56.25 205.84 54.26 193.62 146.37"/>
        <polygon class="cls-4" points="190.18 148.36 116.5 105.85 128.71 13.74 202.39 56.25 190.18 148.36"/>
        <polygon class="cls-21" points="205.84 54.26 202.39 56.25 128.71 13.74 132.21 11.72 205.84 54.26"/>
        <polygon class="cls-19" points="198.54 57.64 131.02 18.67 119.94 102.83 187.46 141.75 198.54 57.64"/>
        <polygon class="cls-15" points="198.54 57.64 131.02 18.67 119.94 102.83 187.46 141.75 198.54 57.64"/>
        <path class="cls-10" d="m127.18,70.42l17.32-16.41c1.81-1.71,3.95-1.19,4.75,1.17l12.42,36.58c.31.91,1.67.64,1.6-.32l-.54-7.71,11.05-7.77c2.04-1.43,4.62-.78,5.73,1.45l13,26-4.61,35.03-64.89-37.43,4.17-30.59Z"/>
        <path class="cls-10" d="m185.92,57.85c-3.05-1.76-5.9-.57-6.36,2.67-.47,3.23,1.65,7.29,4.74,9.07,3.08,1.78,5.93.59,6.36-2.67.43-3.25-1.69-7.31-4.74-9.07Z"/>
        <polygon class="cls-12" points="134.08 20.45 123 101 119.95 102.78 131.02 18.67 134.08 20.45"/>
        <polygon class="cls-21" points="123 101 187.9 138.44 187.46 141.75 119.95 102.78 123 101"/>
      </g>
      <g>
        <polygon class="cls-12" points="175.29 156.99 171.85 158.98 184.06 66.87 187.51 64.88 175.29 156.99"/>
        <polygon class="cls-4" points="171.85 158.98 98.18 116.46 110.39 24.35 184.06 66.87 171.85 158.98"/>
        <polygon class="cls-21" points="187.51 64.88 184.06 66.87 110.39 24.35 113.89 22.33 187.51 64.88"/>
        <polygon class="cls-19" points="180.21 68.25 112.69 29.29 101.61 113.45 169.13 152.37 180.21 68.25"/>
        <polygon class="cls-15" points="180.21 68.25 112.69 29.29 101.61 113.45 169.13 152.37 180.21 68.25"/>
        <path class="cls-10" d="m108.85,81.03l17.32-16.41c1.81-1.71,3.95-1.19,4.75,1.17l12.42,36.58c.31.91,1.67.64,1.6-.32l-.54-7.71,11.05-7.77c2.04-1.43,4.62-.78,5.73,1.45l13,26-4.61,35.03-64.89-37.43,4.17-30.59Z"/>
        <path class="cls-10" d="m167.6,68.47c-3.05-1.76-5.9-.57-6.36,2.67-.47,3.23,1.65,7.29,4.74,9.07,3.08,1.78,5.93.59,6.36-2.67.43-3.25-1.69-7.31-4.74-9.07Z"/>
        <polygon class="cls-12" points="115.75 31.06 104.68 111.62 101.62 113.39 112.69 29.29 115.75 31.06"/>
        <polygon class="cls-21" points="104.68 111.62 169.57 149.05 169.13 152.37 101.62 113.39 104.68 111.62"/>
      </g>
      <g>
        <polygon class="cls-12" points="156.97 167.6 153.52 169.59 165.74 77.48 169.19 75.49 156.97 167.6"/>
        <polygon class="cls-4" points="153.52 169.59 79.85 127.08 92.06 34.97 165.74 77.48 153.52 169.59"/>
        <polygon class="cls-21" points="169.19 75.49 165.74 77.48 92.06 34.97 95.56 32.95 169.19 75.49"/>
        <polygon class="cls-19" points="161.89 78.87 94.37 39.9 83.29 124.06 150.81 162.98 161.89 78.87"/>
        <polygon class="cls-15" points="161.89 78.87 94.37 39.9 83.29 124.06 150.81 162.98 161.89 78.87"/>
        <path class="cls-10" d="m90.52,91.65l17.32-16.41c1.81-1.71,3.95-1.19,4.75,1.17l12.42,36.58c.31.91,1.67.64,1.6-.32l-.54-7.71,11.05-7.77c2.04-1.43,4.62-.78,5.73,1.45l13,26-4.61,35.03-64.89-37.43,4.17-30.59Z"/>
        <path class="cls-10" d="m149.27,79.08c-3.05-1.76-5.9-.57-6.36,2.67-.47,3.23,1.65,7.29,4.74,9.07,3.08,1.78,5.93.59,6.36-2.67.43-3.25-1.69-7.31-4.74-9.07Z"/>
        <polygon class="cls-12" points="97.43 41.68 86.35 122.23 83.29 124.01 94.37 39.9 97.43 41.68"/>
        <polygon class="cls-21" points="86.35 122.23 151.24 159.67 150.81 162.98 83.29 124.01 86.35 122.23"/>
      </g>
      <g>
        <polygon class="cls-12" points="138.64 178.22 135.2 180.21 147.41 88.1 150.86 86.11 138.64 178.22"/>
        <polygon class="cls-4" points="135.2 180.21 61.52 137.69 73.74 45.58 147.41 88.1 135.2 180.21"/>
        <polygon class="cls-21" points="150.86 86.11 147.41 88.1 73.74 45.58 77.23 43.56 150.86 86.11"/>
        <polygon class="cls-19" points="143.56 89.48 76.04 50.52 64.96 134.68 132.48 173.6 143.56 89.48"/>
        <polygon class="cls-15" points="143.56 89.48 76.04 50.52 64.96 134.68 132.48 173.6 143.56 89.48"/>
        <path class="cls-10" d="m72.2,102.26l17.32-16.41c1.81-1.71,3.95-1.19,4.75,1.17l12.42,36.58c.31.91,1.67.64,1.6-.32l-.54-7.71,11.05-7.77c2.04-1.43,4.62-.78,5.73,1.45l13,26-4.61,35.03-64.89-37.43,4.17-30.59Z"/>
        <path class="cls-10" d="m130.95,89.7c-3.05-1.76-5.9-.57-6.36,2.67-.47,3.23,1.65,7.29,4.74,9.07,3.08,1.78,5.93.59,6.36-2.67.43-3.25-1.69-7.31-4.74-9.07Z"/>
        <polygon class="cls-12" points="79.1 52.29 68.03 132.85 64.97 134.62 76.04 50.52 79.1 52.29"/>
        <polygon class="cls-21" points="68.03 132.85 132.92 170.28 132.48 173.6 64.97 134.62 68.03 132.85"/>
      </g>
      <g>
        <polygon class="cls-12" points="120.31 188.83 116.87 190.83 129.09 98.71 132.53 96.72 120.31 188.83"/>
        <polygon class="cls-4" points="116.87 190.83 43.2 148.31 55.41 56.2 129.09 98.71 116.87 190.83"/>
        <polygon class="cls-21" points="132.53 96.72 129.09 98.71 55.41 56.2 58.91 54.18 132.53 96.72"/>
        <polygon class="cls-19" points="125.24 100.1 57.72 61.13 46.64 145.3 114.16 184.21 125.24 100.1"/>
        <polygon class="cls-15" points="125.24 100.1 57.72 61.13 46.64 145.3 114.16 184.21 125.24 100.1"/>
        <path class="cls-10" d="m53.87,112.88l17.32-16.41c1.81-1.71,3.95-1.19,4.75,1.17l12.42,36.58c.31.91,1.67.64,1.6-.32l-.54-7.71,11.05-7.77c2.04-1.43,4.62-.78,5.73,1.45l13,26-4.61,35.03-64.89-37.43,4.17-30.59Z"/>
        <path class="cls-10" d="m112.62,100.31c-3.05-1.76-5.9-.57-6.36,2.67-.47,3.23,1.65,7.29,4.74,9.07,3.08,1.78,5.93.59,6.36-2.67.43-3.25-1.69-7.31-4.74-9.07Z"/>
        <polygon class="cls-12" points="60.77 62.91 49.7 143.46 46.64 145.24 57.72 61.13 60.77 62.91"/>
        <polygon class="cls-21" points="49.7 143.46 114.59 180.9 114.16 184.21 46.64 145.24 49.7 143.46"/>
      </g>
    </g>
  </g>
  <g id="Window">
    <g id="Window-2" data-name="Window">
      <g>
        <path class="cls-7" d="m344.03,6.68v224.28c0,2.98-2.09,6.59-4.66,8.07l-128.85,74.34c-.54.31-1.07.46-1.54.44-.2,0-.4-.03-.6-.08-.14-.03-.28-.08-.4-.14-.09-.05-.17-.09-.24-.14-.09-.06-.18-.12-.28-.18-.09-.08-.18-.14-.26-.23-.37-.34-.64-.75-.86-1.22-.31-.69-.49-1.5-.49-2.35V86.33c0-2.97,2.09-6.59,4.66-8.07L339.37,3.99c1.21-.69,2.29-.8,3.13-.4.14.06.28.14.4.23l.03.03c.12.09.21.18.31.31.06.05.09.11.14.17.06.08.12.15.15.24.12.18.21.38.28.6.05.12.09.26.11.41.02.03.03.06.02.09.05.14.06.28.08.43.02.18.03.38.03.58Z"/>
        <g>
          <path class="cls-19" d="m342.51,3.6c-.84-.4-1.93-.29-3.13.4l-128.85,74.27c-2.57,1.48-4.66,5.11-4.66,8.07v15.23l-5.95-3.49v-15.12c0-2.97,2.08-6.57,4.65-8.06L333.42.63c1.33-.78,2.52-.79,3.38-.28.84.5,4.71,2.72,5.7,3.24Z"/>
          <path class="cls-10" d="m344.02,6.65c-.02-2.94-2.09-4.13-4.65-2.65l-128.85,74.26c-2.57,1.49-4.66,5.1-4.66,8.07v15.23S344.02,21.94,344.02,21.94V6.65Z"/>
          <path class="cls-10" d="m339.37,4l-128.84,74.26c-1.27.75-2.45,2.01-3.28,3.46l-5.92-3.43c.84-1.44,1.98-2.68,3.24-3.4L333.42.63c1.33-.78,2.52-.79,3.38-.28.83.51,4.7,2.71,5.68,3.24-.82-.4-1.92-.28-3.12.41Z"/>
          <path class="cls-10" d="m199.91,98.09v-15.14c0-1.51.56-3.18,1.42-4.66l5.93,3.41c-.86,1.46-1.39,3.12-1.39,4.63v15.23l-5.96-3.47Z"/>
        </g>
        <g>
          <path class="cls-7" d="m315.97,23.99c-1.45.84-2.63,3.33-2.63,5.57s1.18,3.37,2.63,2.53c1.45-.84,2.63-3.33,2.63-5.57s-1.18-3.37-2.63-2.53Z"/>
          <path class="cls-7" d="m325.44,18.51c-1.45.84-2.63,3.33-2.63,5.57s1.18,3.37,2.63,2.53c1.45-.84,2.63-3.33,2.63-5.57s-1.18-3.37-2.63-2.53Z"/>
          <path class="cls-7" d="m334.92,13.04c-1.45.84-2.63,3.33-2.63,5.57s1.18,3.37,2.63,2.53c1.45-.84,2.63-3.33,2.63-5.57s-1.18-3.37-2.63-2.53Z"/>
        </g>
        <path class="cls-5" d="m207.57,313.4c-.17-.11-.37-.21-.58-.34-.43-.26-.92-.53-1.44-.81l-.02-.02c-.26-.15-.52-.31-.78-.44-.02-.02-.05-.03-.06-.03-.43-.24-.84-.49-1.22-.7-.4-.23-.75-.43-1.02-.58-.28-.17-.49-.28-.58-.32-.29-.15-.57-.37-.79-.64-.24-.26-.46-.58-.63-.95-.34-.7-.53-1.56-.53-2.46V98.07l5.95,3.49v207.93c.05.92.21,1.7.49,2.35.21.47.49.89.86,1.22.06.09.15.17.26.23.03.05.06.08.11.11Z"/>
      </g>
      <g>
        <g>
          <path class="cls-10" d="m217.3,114.21c0-.28.08-.57.24-.87l3.35-6.93c.06-.1.11-.17.15-.2.04-.04.07-.06.09-.06.1-.06.19-.05.26.02.07.07.11.18.11.34v2.33c0,.3-.02.54-.07.72-.04.18-.12.39-.24.63l-1.77,3.66,1.77,1.62c.11.11.19.23.24.36.05.13.07.34.07.64v2.33c0,.16-.04.31-.11.47-.07.16-.16.26-.26.32-.01,0-.04.02-.09.04-.05.02-.1,0-.15-.03l-3.35-3.06c-.16-.12-.24-.31-.24-.59v-1.73Z"/>
          <path class="cls-10" d="m229.55,96.84c.06-.22.14-.45.25-.68.11-.23.28-.41.49-.53l1.26-.73c.1-.06.19-.05.26.02.07.07.11.18.11.34,0,.07-.01.16-.03.26l-5.74,24.48c-.04.2-.13.42-.24.66-.11.24-.28.42-.51.56l-1.21.7c-.1.06-.19.05-.26-.02-.07-.07-.11-.19-.11-.34,0-.07.01-.15.03-.25l5.69-24.45Z"/>
          <path class="cls-10" d="m238.44,103.74c0,.28-.08.57-.24.87l-3.35,6.93c-.06.1-.11.17-.15.21-.04.03-.07.06-.08.06-.1.06-.19.05-.26-.02-.07-.07-.11-.19-.11-.34v-2.33c0-.3.02-.54.07-.72.04-.18.13-.39.24-.63l1.77-3.66-1.77-1.62c-.11-.11-.19-.23-.24-.36-.04-.13-.07-.34-.07-.64v-2.33c0-.16.04-.31.11-.47.07-.16.16-.26.26-.32.01,0,.04-.02.08-.04.05-.02.1,0,.15.03l3.35,3.06c.16.12.24.32.24.6v1.73Z"/>
          <path class="cls-10" d="m247.75,102.13c.12-.07.23-.06.32.02.09.09.14.23.14.42v2.56c0,.19-.05.38-.14.58-.09.19-.2.32-.32.4l-1.58.91c-.13.07-.23.06-.32-.02-.09-.09-.14-.23-.14-.42v-2.56c0-.19.04-.38.14-.58.09-.19.2-.32.32-.4l1.58-.91Z"/>
          <path class="cls-10" d="m253.03,99.08c.12-.07.23-.06.32.02.09.09.14.23.14.42v2.56c0,.19-.04.38-.14.58-.09.19-.2.32-.32.4l-1.58.91c-.13.07-.23.06-.32-.02-.09-.09-.14-.23-.14-.42v-2.56c0-.19.04-.38.14-.58.09-.19.2-.32.32-.4l1.58-.91Z"/>
          <path class="cls-10" d="m258.31,96.03c.12-.07.23-.06.32.02.09.09.14.23.14.42v2.56c0,.19-.05.38-.14.58-.09.19-.2.32-.32.4l-1.58.91c-.13.07-.23.06-.32-.02-.09-.09-.14-.23-.14-.42v-2.56c0-.19.04-.38.14-.58.09-.19.2-.32.32-.4l1.58-.91Z"/>
        </g>
        <path class="cls-10" d="m218.71,132.91l77.42-44.7c.91-.53,1.65-.15,1.65.84s-.74,2.22-1.65,2.75l-77.42,44.7c-.91.53-1.65.15-1.65-.84,0-.99.74-2.22,1.65-2.75Z"/>
        <path class="cls-1" d="m243.55,161.59l77.42-44.7c.91-.53,1.65-.15,1.65.84s-.74,2.22-1.65,2.75l-77.42,44.7c-.91.53-1.65.15-1.65-.84,0-.99.74-2.22,1.65-2.75Z"/>
        <path class="cls-12" d="m243.55,190.27l37.05-21.38c.91-.53,1.65-.15,1.65.84s-.74,2.22-1.65,2.75l-37.05,21.38c-.91.53-1.65.15-1.65-.84,0-.99.74-2.22,1.65-2.75Z"/>
        <path class="cls-10" d="m302.55,84.5l30.84-17.87c.91-.53,1.65-.15,1.65.84s-.74,2.22-1.65,2.75l-30.84,17.87c-.91.53-1.65.15-1.66-.84,0-.99.74-2.22,1.65-2.75Z"/>
        <path class="cls-10" d="m218.71,290.64l77.42-44.7c.91-.53,1.65-.15,1.65.84s-.74,2.22-1.65,2.75l-77.42,44.7c-.91.53-1.65.15-1.65-.84,0-.99.74-2.22,1.65-2.75Z"/>
        <path class="cls-10" d="m302.55,242.24l30.84-17.87c.91-.53,1.65-.15,1.65.84s-.74,2.22-1.65,2.75l-30.84,17.87c-.91.53-1.65.15-1.66-.84,0-.99.74-2.22,1.65-2.75Z"/>
        <path class="cls-10" d="m302.55,199.29l30.84-17.87c.91-.53,1.65-.15,1.65.84s-.74,2.22-1.65,2.75l-30.84,17.87c-.91.53-1.65.15-1.66-.84,0-.99.74-2.22,1.65-2.75Z"/>
        <path class="cls-10" d="m302.55,213.63l30.84-17.87c.91-.53,1.65-.15,1.65.84s-.74,2.22-1.65,2.75l-30.84,17.87c-.91.53-1.65.15-1.66-.84,0-.99.74-2.22,1.65-2.75Z"/>
        <path class="cls-10" d="m276.25,214.44l17.33-10c.91-.53,1.65-.15,1.65.84s-.74,2.22-1.65,2.75l-17.33,10c-.91.53-1.66.15-1.66-.84,0-.99.74-2.22,1.65-2.75Z"/>
        <g>
          <path class="cls-19" d="m218.71,147.28l45.16-26.09c.91-.53,1.65-.15,1.65.84s-.74,2.22-1.65,2.75l-45.16,26.09c-.91.53-1.65.15-1.65-.84,0-.99.74-2.22,1.65-2.75Z"/>
          <path class="cls-10" d="m218.71,147.28l45.16-26.09c.91-.53,1.65-.15,1.65.84s-.74,2.22-1.65,2.75l-45.16,26.09c-.91.53-1.65.15-1.65-.84,0-.99.74-2.22,1.65-2.75Z"/>
        </g>
        <g>
          <path class="cls-19" d="m218.71,161.59l15.32-8.86c.91-.53,1.65-.15,1.65.84s-.74,2.22-1.65,2.75l-15.32,8.86c-.91.53-1.65.15-1.65-.84,0-.99.74-2.22,1.65-2.75Z"/>
          <path class="cls-10" d="m218.71,161.59l15.32-8.86c.91-.53,1.65-.15,1.65.84s-.74,2.22-1.65,2.75l-15.32,8.86c-.91.53-1.65.15-1.65-.84,0-.99.74-2.22,1.65-2.75Z"/>
        </g>
        <g>
          <path class="cls-19" d="m218.71,175.93l15.32-8.86c.91-.53,1.65-.15,1.65.84s-.74,2.22-1.65,2.75l-15.32,8.86c-.91.53-1.65.15-1.65-.84,0-.99.74-2.22,1.65-2.75Z"/>
          <path class="cls-10" d="m218.71,175.93l15.32-8.86c.91-.53,1.65-.15,1.65.84s-.74,2.22-1.65,2.75l-15.32,8.86c-.91.53-1.65.15-1.65-.84,0-.99.74-2.22,1.65-2.75Z"/>
        </g>
        <path class="cls-19" d="m218.71,190.27l15.32-8.86c.91-.53,1.65-.15,1.65.84s-.74,2.22-1.65,2.75l-15.32,8.86c-.91.53-1.65.15-1.65-.84,0-.99.74-2.22,1.65-2.75Z"/>
        <path class="cls-10" d="m218.71,190.27l15.32-8.86c.91-.53,1.65-.15,1.65.84s-.74,2.22-1.65,2.75l-15.32,8.86c-.91.53-1.65.15-1.65-.84,0-.99.74-2.22,1.65-2.75Z"/>
        <path class="cls-19" d="m243.55,175.93l45.16-26.09c.91-.53,1.66-.15,1.66.84s-.74,2.22-1.66,2.75l-45.16,26.09c-.91.53-1.65.15-1.66-.84,0-.99.74-2.22,1.65-2.75Z"/>
        <path class="cls-19" d="m295.12,146.13l19.64-11.3c.91-.53,1.65-.15,1.65.84s-.74,2.22-1.65,2.75l-19.64,11.3c-.91.53-1.65.15-1.66-.84,0-.99.74-2.22,1.65-2.75Z"/>
        <g>
          <path class="cls-19" d="m218.71,204.61l15.32-8.86c.91-.53,1.65-.15,1.65.84s-.74,2.22-1.65,2.75l-15.32,8.86c-.91.53-1.65.15-1.65-.84,0-.99.74-2.22,1.65-2.75Z"/>
          <path class="cls-10" d="m218.71,204.61l15.32-8.86c.91-.53,1.65-.15,1.65.84s-.74,2.22-1.65,2.75l-15.32,8.86c-.91.53-1.65.15-1.65-.84,0-.99.74-2.22,1.65-2.75Z"/>
        </g>
        <g>
          <path class="cls-19" d="m270.29,117.48l19.64-11.3c.91-.53,1.65-.15,1.65.84s-.74,2.22-1.65,2.75l-19.64,11.3c-.91.53-1.66.15-1.66-.84,0-.99.74-2.22,1.65-2.75Z"/>
          <path class="cls-10" d="m270.29,117.48l19.64-11.3c.91-.53,1.65-.15,1.65.84s-.74,2.22-1.65,2.75l-19.64,11.3c-.91.53-1.66.15-1.66-.84,0-.99.74-2.22,1.65-2.75Z"/>
        </g>
        <path class="cls-12" d="m262.18,193.83l45.16-26.09c.91-.53,1.65-.15,1.65.84s-.74,2.22-1.65,2.75l-45.16,26.09c-.91.53-1.66.15-1.66-.84,0-.99.74-2.22,1.65-2.75Z"/>
        <path class="cls-1" d="m288.24,193.19l45.16-26.09c.91-.53,1.65-.15,1.65.84s-.74,2.22-1.65,2.75l-45.16,26.09c-.91.53-1.65.15-1.66-.84,0-.99.74-2.22,1.65-2.75Z"/>
        <path class="cls-12" d="m313.75,164.04l19.64-11.3c.91-.53,1.65-.15,1.65.84s-.74,2.22-1.65,2.75l-19.64,11.3c-.91.53-1.66.15-1.66-.84,0-.99.74-2.22,1.65-2.75Z"/>
        <path class="cls-12" d="m313.75,220.84l19.64-11.3c.91-.53,1.65-.15,1.65.84s-.74,2.22-1.65,2.75l-19.64,11.3c-.91.53-1.66.15-1.66-.84,0-.99.74-2.22,1.65-2.75Z"/>
        <g>
          <path class="cls-19" d="m243.55,147.25l45.16-26.09c.91-.53,1.66-.15,1.66.84s-.74,2.22-1.66,2.75l-45.16,26.09c-.91.53-1.65.15-1.66-.84,0-.99.74-2.22,1.65-2.75Z"/>
          <path class="cls-10" d="m243.55,147.25l45.16-26.09c.91-.53,1.66-.15,1.66.84s-.74,2.22-1.66,2.75l-45.16,26.09c-.91.53-1.65.15-1.66-.84,0-.99.74-2.22,1.65-2.75Z"/>
        </g>
        <g>
          <path class="cls-19" d="m295.12,117.46l19.64-11.3c.91-.53,1.65-.15,1.65.84s-.74,2.22-1.65,2.75l-19.64,11.3c-.91.53-1.65.15-1.66-.84,0-.99.74-2.22,1.65-2.75Z"/>
          <path class="cls-10" d="m295.12,117.46l19.64-11.3c.91-.53,1.65-.15,1.65.84s-.74,2.22-1.65,2.75l-19.64,11.3c-.91.53-1.65.15-1.66-.84,0-.99.74-2.22,1.65-2.75Z"/>
        </g>
        <path class="cls-10" d="m243.55,175.93l45.16-26.09c.91-.53,1.66-.15,1.66.84s-.74,2.22-1.66,2.75l-45.16,26.09c-.91.53-1.65.15-1.66-.84,0-.99.74-2.22,1.65-2.75Z"/>
        <path class="cls-10" d="m295.12,146.13l19.64-11.3c.91-.53,1.65-.15,1.65.84s-.74,2.22-1.65,2.75l-19.64,11.3c-.91.53-1.65.15-1.66-.84,0-.99.74-2.22,1.65-2.75Z"/>
      </g>
    </g>
  </g>
  <g id="Icons">
    <g id="Java">
      <g>
        <path class="cls-10" d="m397.72,25.36l-10.77,6.17-10.83-.95c-.14,0-.26,0-.37.05.87-.51,10.31-5.91,10.7-6.12.13-.07.28-.11.46-.09l10.82.94Z"/>
        <path class="cls-2" d="m397.72,25.36l-10.77,6.17-10.83-.95c-.14,0-.26,0-.37.05.87-.51,10.31-5.91,10.7-6.12.13-.07.28-.11.46-.09l10.82.94Z"/>
      </g>
      <g>
        <g>
          <polygon class="cls-10" points="431.19 27.52 392.25 5.04 384.51 9.53 387.36 67.31 403.98 87 420.6 86.5 428.34 82 431.19 27.52"/>
          <polygon class="cls-2" points="431.19 27.52 423.46 32.02 384.51 9.53 392.25 5.04 431.19 27.52"/>
          <polygon class="cls-17" points="431.19 27.52 423.46 32.02 420.6 86.5 428.34 82 431.19 27.52"/>
          <path class="cls-10" d="m384.51,9.53l1.08,21.88-9.46-.83c-.72-.06-1.14.8-.65,1.33l10.71,11.61,1.17,23.78,16.62,19.69,16.62-.49,2.85-54.48-38.95-22.49Z"/>
          <polygon class="cls-2" points="403.98 26.41 419.46 35.34 417.18 80.16 403.98 81.14 403.98 26.41"/>
        </g>
        <polygon class="cls-1" points="415.78 37.62 414.15 74.33 403.98 74.91 393.82 62.59 393.3 52.22 396.98 54.34 397.28 60.53 403.98 68.92 410.69 68.27 411.82 40.97 392.48 29.8 392.19 24 415.78 37.62"/>
      </g>
    </g>
    <g id="CSS">
      <path class="cls-10" d="m397.72,117.62l-10.77,6.17-10.83-.95c-.14,0-.26,0-.37.05.87-.51,10.31-5.91,10.7-6.12.13-.07.28-.11.46-.09l10.82.94Z"/>
      <g>
        <polygon class="cls-10" points="431.19 119.78 392.25 97.29 384.51 101.79 387.36 159.57 403.98 179.25 420.6 178.76 428.34 174.26 431.19 119.78"/>
        <polygon class="cls-13" points="431.19 119.78 423.46 124.27 420.6 178.76 428.34 174.26 431.19 119.78"/>
      </g>
      <g>
        <g>
          <path class="cls-10" d="m384.51,101.79l1.08,21.88-9.46-.83c-.72-.06-1.14.79-.65,1.33l10.71,11.61,1.17,23.78,16.62,19.69,16.62-.49,2.85-54.48-38.95-22.49Z"/>
          <path class="cls-22" d="m384.51,101.79l1.08,21.88-9.46-.83c-.72-.06-1.14.79-.65,1.33l10.71,11.61,1.17,23.78,16.62,19.69,16.62-.49,2.85-54.48-38.95-22.49Z"/>
          <polygon class="cls-10" points="403.98 118.66 419.46 127.6 417.18 172.41 403.98 173.4 403.98 118.66"/>
        </g>
        <polygon class="cls-1" points="392.19 116.26 392.43 122.03 411.82 133.22 411.35 144.6 392.94 133.97 393.18 139.75 411.12 150.1 410.69 160.52 403.98 161.18 397.28 152.78 396.98 146.6 393.3 144.48 393.82 154.85 403.98 167.17 414.15 166.59 415.78 129.88 392.19 116.26"/>
      </g>
    </g>
    <g id="HTML">
      <g>
        <polygon class="cls-10" points="431.19 212.02 392.25 189.54 384.51 194.03 387.36 251.81 403.98 271.5 420.6 271 428.34 266.5 431.19 212.02"/>
        <polygon class="cls-22" points="431.19 212.02 423.46 216.52 384.51 194.03 392.25 189.54 431.19 212.02"/>
        <polygon class="cls-20" points="431.19 212.02 423.46 216.52 420.6 271 428.34 266.5 431.19 212.02"/>
      </g>
      <g>
        <g>
          <g>
            <path class="cls-10" d="m397.72,209.86l-10.77,6.17-10.83-.95c-.14,0-.26,0-.37.05.87-.51,10.31-5.91,10.7-6.12.13-.07.28-.11.46-.09l10.82.94Z"/>
            <path class="cls-22" d="m397.72,209.86l-10.77,6.17-10.83-.95c-.14,0-.26,0-.37.05.87-.51,10.31-5.91,10.7-6.12.13-.07.28-.11.46-.09l10.82.94Z"/>
          </g>
          <path class="cls-10" d="m384.51,194.03l1.08,21.88-9.46-.83c-.72-.06-1.14.8-.65,1.33l10.71,11.61,1.17,23.78,16.62,19.69,16.62-.49,2.85-54.48-38.95-22.49Z"/>
          <path class="cls-18" d="m384.51,194.03l1.08,21.88-9.46-.83c-.72-.06-1.14.8-.65,1.33l10.71,11.61,1.17,23.78,16.62,19.69,16.62-.49,2.85-54.48-38.95-22.49Z"/>
          <polygon class="cls-10" points="403.98 210.91 419.46 219.84 417.18 264.66 403.98 265.64 403.98 210.91"/>
        </g>
        <polygon class="cls-1" points="415.78 222.12 392.19 208.5 393.18 231.99 411.12 242.34 410.69 252.77 403.98 253.43 397.28 245.03 396.98 238.84 393.3 236.72 393.82 247.1 403.98 259.41 414.15 258.83 415.02 238.96 396.62 228.34 396.15 216.42 415.49 227.59 415.78 222.12"/>
      </g>
    </g>
  </g>
  <g id="Character">
    <g id="Character-2" data-name="Character">
      <g>
        <path class="cls-5" d="m228.15,328.54c-2.8,8.36-5.21,19.15-8.99,35.42-3.55,15.24-3.57,26.01,1.36,29.7,4.79,3.59,19.07,1.44,28.01-17.6,2.8-5.95,13.33-24.35,13.33-24.35,0,0,7.8-2.81,10.49-4.92,0,0,26.01.76,38.64-1.83,12.63-2.59,26.07-18.02,20.9-19.54-9.31-2.74-34.08-3.77-55.07-5.12l-48.67,8.24Z"/>
        <path class="cls-23" d="m298.58,341.71c-5.69,1.32-14.12-.44-18.87-1.82.5-2.55-.16-5.04-.16-5.04-.2,2.5-1.33,4.92-2.11,6.32-.78.44-1.45.81-1.93,1.05-3.16,1.61-11.84,6.05-13.45,4.65-3.69-5.08-9.73-6.17-9.73-6.17,2.72,1.83,10.6,7.48,7.8,14.03l1.71-3.01s7.8-2.81,10.49-4.92c0,0,14.54.42,27.16-.44l14.99-10.37s-7.19-.42-15.91,5.72Z"/>
        <g>
          <path class="cls-11" d="m284.01,359.45c-1.97,1.78-4.43,3.47-6.76,4-.88.2-1.74.18-2.54,0-2.92-.61-7.6-.6-9.24,5.23-1.86,6.61-9.24,9.75-11.22,14.28-.99,2.27-1.5,8.82-.53,12.84.79,3.31,7.19.85,9.55-3.18,2.37-4.03,7.45-9.33,10.8-12.4,5.45-3.06,11.5-7.56,14.08-9.37l-4.14-11.4Z"/>
          <path class="cls-23" d="m322.45,323.18c16.77,1.12,17.34,10.04,13.15,16.77-4.52,7.24-21.05,17.02-29.97,22.16-8.21,4.72-22.21,13.1-22.21,13.1,0,0-7.1-5.54-6.17-11.76,9.28-6.47,21.77-24.89,37.25-27.45l7.95-12.81Z"/>
          <g>
            <path class="cls-23" d="m256.25,397.83c-.74.21-2.01-.11-2.75-.64-.75-.53-2.41-5.2-1.02-10.87,1.38-5.67,4.38-9.2,6.2-11.14,1.83-1.94,2.49-4.16,3.15-6.98.66-2.81,2.72-6.29,4.16-6.69,1.44-.39,3.6.72,3.6.72l-13.33,35.59Z"/>
            <path class="cls-19" d="m278.35,377.83c-.35,1.79-1.83,2.25-3.42,2.89-2.17.86-4.23,3.1-6.19,5.6-1.33,1.7-2.43,3.4-3.64,5.18-1.23,1.82-2.23,4.34-3.54,5.71-1.91,1.99-5.77,1.62-6.83-1.21-.91-2.44-1.31-8.5,1.48-14.3,1.52-3.16,5.71-6.24,6.81-10.54.74-2.88,1.74-6.32,3.87-8.51,1.26-1.29,2.41-.98,3.99-.54,2.09.58,4.22,1.03,6.36,1.34-.04,1.78-.58,3.54-1.55,5.03-.33.51-.72,1.01-.81,1.62-.06.41.03.82.11,1.22.12.56.33,1.21.88,1.37.22.06.46.02.69.05.86.12,1.27,1.1,1.49,1.94.24.91.45,1.85.35,2.79-.01.13-.03.25-.05.37Z"/>
            <path class="cls-10" d="m278.35,377.83c-.35,1.79-1.83,2.25-3.42,2.89-2.17.86-4.23,3.1-6.19,5.6-1.33,1.7-2.43,3.4-3.64,5.18-1.23,1.82-2.23,4.34-3.54,5.71-1.91,1.99-5.77,1.62-6.83-1.21-.91-2.44-1.31-8.5,1.48-14.3,1.52-3.16,5.71-6.24,6.81-10.54.74-2.88,1.74-6.32,3.87-8.51,1.26-1.29,2.41-.98,3.99-.54,2.09.58,4.22,1.03,6.36,1.34-.04,1.78-.58,3.54-1.55,5.03-.33.51-.72,1.01-.81,1.62-.06.41.03.82.11,1.22.12.56.33,1.21.88,1.37.22.06.46.02.69.05.86.12,1.27,1.1,1.49,1.94.24.91.45,1.85.35,2.79-.01.13-.03.25-.05.37Z"/>
            <path class="cls-6" d="m270.7,383.99s1.13-.21,1.73-1.81c.45-1.22-.09-3.61-.99-5.2-.37-.65-1.27-.73-1.74-.15h0c-.28.35-.3.83-.07,1.21.63,1.05,1.72,3.33,1.07,5.95Z"/>
            <path class="cls-6" d="m267.83,387.52s1.42-.59,1.67-2.21c0,0,.48-3.31-1.07-5.69-.39-.6-1.23-.71-1.68-.15h0c-.27.34-.29.8-.07,1.16.66,1.06,2.07,3.2,1.14,6.88Z"/>
            <path class="cls-6" d="m265.1,391.5s1.31-.71,1.57-2.33c0,0,.42-3.09-1.13-5.46-.4-.6-1.23-.71-1.68-.15h0c-.27.34-.29.8-.07,1.16.66,1.06,2.23,3.1,1.31,6.78Z"/>
          </g>
        </g>
        <g>
          <path class="cls-24" d="m277.32,361.93c2.97-.75,7.33-1.82,9.14-4.19s5.55-4.68,10.6-1.35c3.21,2.11,7.03,2.8,10.8,3.05,1.63.11,3.46-.09,5.06.24,1.92.4,3.95,1.57,5.6,2.59,1.05.65,2.08,1.4,2.78,2.41,1.27,1.81,1.31,4.39.1,6.24-.22.33-.47.64-.79.87-.39.29-.86.44-1.33.55-1.75.39-3.21-.16-4.86-.62-1.37-.38-2.77-.67-4.17-.92-3.16-.58-6.37-.98-9.58-1.12-1.37-.06-4.21-.27-5.58-.18-5.73.39-13.82,3.61-13.82,3.61l-3.97-11.19Z"/>
          <path class="cls-5" d="m217.85,389.33c.94,5.78,7.43,8.57,21.34,5.79,13.91-2.78,47.02-23.63,47.02-23.63,0,0-1.3-7.99-8.9-10.14,0,0-6.92,1.25-18.22,3.71-4.29.93-9.76,2.38-15.08,4.17-7.63,10.25-15.58,6.11-18.44,9.71-4.77,6.02-7.72,10.38-7.72,10.38Z"/>
          <g>
            <path class="cls-23" d="m322.85,371.24c.7-.33,1.44-1.41,1.65-2.3.21-.89-1.62-5.49-6.39-8.85s-9.36-4.04-12.01-4.29-4.62-1.49-6.97-3.17c-2.35-1.68-6.19-2.94-7.53-2.29-1.34.65-2.23,2.91-2.23,2.91l33.47,17.99Z"/>
            <path class="cls-19" d="m293.05,370.76c1.45,1.12,2.86.49,4.48-.09,2.2-.78,5.23-.45,8.35.13,2.12.4,4.07.95,6.15,1.5,2.12.56,4.54,1.8,6.42,1.96,2.74.24,5.4-2.59,4.34-5.41-.92-2.44-4.62-7.26-10.54-9.79-3.23-1.38-8.41-.93-12.07-3.44-2.45-1.68-5.47-3.61-8.51-3.85-1.8-.14-2.46.85-3.36,2.22-1.19,1.81-2.49,3.55-3.91,5.2,1.2,1.31,2.77,2.28,4.48,2.76.58.17,1.21.29,1.67.68.31.27.52.63.72.99.28.5.56,1.13.24,1.6-.13.19-.33.32-.48.49-.57.65-.23,1.67.15,2.45.42.84.88,1.69,1.58,2.33.09.09.19.17.28.24Z"/>
            <path class="cls-10" d="m293.05,370.76c1.45,1.12,2.86.49,4.48-.09,2.2-.78,5.23-.45,8.35.13,2.12.4,4.07.95,6.15,1.5,2.12.56,4.54,1.8,6.42,1.96,2.74.24,5.4-2.59,4.34-5.41-.92-2.44-4.62-7.26-10.54-9.79-3.23-1.38-8.41-.93-12.07-3.44-2.45-1.68-5.47-3.61-8.51-3.85-1.8-.14-2.46.85-3.36,2.22-1.19,1.81-2.49,3.55-3.91,5.2,1.2,1.31,2.77,2.28,4.48,2.76.58.17,1.21.29,1.67.68.31.27.52.63.72.99.28.5.56,1.13.24,1.6-.13.19-.33.32-.48.49-.57.65-.23,1.67.15,2.45.42.84.88,1.69,1.58,2.33.09.09.19.17.28.24Z"/>
            <path class="cls-6" d="m302.86,370.35s-.99.59-2.49-.22c-1.15-.62-2.31-2.78-2.68-4.56-.15-.73.47-1.39,1.21-1.26h0c.44.08.77.42.85.86.21,1.2.91,3.64,3.11,5.18Z"/>
            <path class="cls-6" d="m307.35,371.12s-1.46.49-2.72-.56c0,0-2.54-2.18-2.94-4.98-.1-.72.45-1.34,1.16-1.22h0c.42.08.75.41.82.83.2,1.23.56,3.77,3.68,5.93Z"/>
            <path class="cls-6" d="m312.02,372.31s-1.45.33-2.71-.72c0,0-2.35-2.05-2.75-4.85-.1-.72.45-1.34,1.16-1.22h0c.42.08.75.41.82.83.2,1.23.36,3.8,3.48,5.96Z"/>
          </g>
        </g>
        <path class="cls-23" d="m253.62,366.38s-9.34,1.83-16.27,6.49c0,0,7.12-8.34,18.12-9.84l-1.85,3.34Z"/>
      </g>
      <g>
        <path class="cls-24" d="m288.61,295.14l-11.64-32.89-3.08,1.14,1.85,36.32,2.01,5.4c5.2-2.81,9.45-4.73,10.86-9.97Z"/>
        <path class="cls-19" d="m261.22,253.62c7.2.07,13.79,2.69,16.52,8.34,2.73,5.65,11.08,31.32,11.08,31.32,0,0-6.86,8.08-16.96,7.42l-10.64-47.08Z"/>
        <path class="cls-10" d="m261.22,253.62c7.2.07,13.79,2.69,16.52,8.34,2.73,5.65,11.08,31.32,11.08,31.32,0,0-6.86,8.08-16.96,7.42l-10.64-47.08Z"/>
      </g>
      <g>
        <path class="cls-4" d="m246.43,254.06c-10.11,1.87-16.85,4.04-18.76,5.89-4.3,8.81,1.29,38.33,1.29,38.33l.96,14.06-1.78,16.2c10.92,9.23,44.38,4.69,50.34-8.24,0,0-1.67-42.13-1.67-49.59s-4.15-16.43-15.59-17.09l-14.79.43Z"/>
        <path class="cls-21" d="m239.07,322.19c-2.92-4.49-2.8-15.91-2.8-15.91,0,0,5.12-29.8,3.94-36.9l-13.51,12.94c.86,8.52,2.27,15.96,2.27,15.96l.96,14.06-1.78,16.2c8.74,7.38,31.88,5.95,43.85-1.53-17.53,7.04-30-.33-32.92-4.82Z"/>
      </g>
      <g>
        <g>
          <path class="cls-23" d="m240.85,230.31s1.52,11.21,2.33,13.09c.81,1.88,2.71,2.54,2.71,2.54l.42-7.77-5.46-7.86Z"/>
          <path class="cls-23" d="m244.98,214.73s-2.5-.62-4.62,1.25c-2.08,1.83-1.46,8.1.49,14.34l4.39.84-.26-16.42Z"/>
          <path class="cls-24" d="m246.56,231.25c-.93.46-2.06-1.33-3.07-2.56-1.01-1.23-4.46-3.06-6.52.56-2.1,3.69.91,9,3.65,10.09,4.73,1.88,5.69-1.17,5.69-1.17l-1.01,17.84c4.39,9.56,21.91,6.14,15.93-.42l.32-4.53s5.14.72,7.31.55c3.6-.28,5.25-2.64,6.62-6.42,2.2-6.06,3.23-11.02,2.67-23.31-.62-13.47-16.14-14.77-24.92-10.12-8.78,4.65-6.67,19.49-6.67,19.49Z"/>
          <path class="cls-23" d="m246.26,207.48c2.98-1.13,6.2-1.63,9.37-2.07,6.88-.96,13.88-1.8,20.3-4.47.79-.33,1.64-.69,2.48-.52,1.61.34,2.18,2.37,2.12,4.01-.05,1.53-.37,3.04-.93,4.47.96-.98,2.74-.7,3.64.33.9,1.03,1.05,2.54.77,3.88-.63,3-3.14,5.35-5.98,6.5-2.85,1.14-6,1.25-9.06,1.11-4.28-.2-8.54-.84-12.68-1.92-1.01-.26-2.04-.55-3.07-.45-1.04.1-2.1.68-2.44,1.66-.58,1.65-1.9,13.09-4.26,12.96-.44-.02-1.9-3.04-2.91-4.15-1.27-1.4-1.91-11.32-2.02-13.16,0-.15-.08-.27-.16-.4-1.38-2.27.7-5.78,2.69-6.82.7-.36,1.41-.68,2.15-.96Z"/>
          <path class="cls-23" d="m242.26,215.48c-1.26,1.27-3.31,1.28-4.58.02s-1.28-3.31-.02-4.58l4.6,4.56Z"/>
          <path class="cls-11" d="m261.56,251.06s-7.9-1.36-10.57-3.05c-1.79-1.13-3.19-2.96-3.56-4.09,0,0,.34,2.4,1.85,4.65,1.84,2.75,12.06,5.44,12.06,5.44l.22-2.95Z"/>
        </g>
        <g>
          <path class="cls-23" d="m262.35,230.35c-.07.91-.84,1.6-1.72,1.53-.88-.07-1.54-.86-1.47-1.78.07-.91.84-1.6,1.72-1.53.88.07,1.54.87,1.47,1.78Z"/>
          <path class="cls-23" d="m261.11,224.2l-3.55,1.63c-.43-1.02.02-2.21,1-2.65.98-.45,2.12.01,2.55,1.03Z"/>
          <path class="cls-11" d="m261.55,241.44l3.54,1.64c-.44,1.02-1.58,1.47-2.56,1.02-.98-.45-1.41-1.64-.97-2.66Z"/>
          <path class="cls-23" d="m276.47,226.72l-2.93-2.63c.7-.84,1.92-.94,2.73-.21.81.73.9,2,.2,2.84Z"/>
          <path class="cls-23" d="m275.2,230.88c-.07.91-.84,1.6-1.72,1.53-.88-.07-1.54-.86-1.47-1.78.07-.91.84-1.6,1.72-1.53.88.07,1.54.87,1.47,1.78Z"/>
          <polygon class="cls-11" points="267.07 229.24 266.88 238.86 272.01 237.53 267.07 229.24"/>
        </g>
      </g>
      <g>
        <path class="cls-24" d="m215.99,327.27c-6.49-6.51-7.52-8.65-6.64-12.72,1.74-8.02,8.85-33.61,11.54-41.22,3.39-9.56,4.9-13.38,10.54-14.61,4.55,3.6,9,17.08,2.88,29.22l-7.38,26.5"/>
        <g>
          <path class="cls-19" d="m236.28,256.33c-8.71,1.01-12.39,4.52-15.53,13.93-3.14,9.41-8.66,31.08-8.66,31.08,0,0,7.31,7.92,17.55,7.09l8.54-28.3s6.01-20.56-1.9-23.8Z"/>
          <path class="cls-10" d="m236.28,256.33c-8.71,1.01-12.39,4.52-15.53,13.93-3.14,9.41-8.66,31.08-8.66,31.08,0,0,7.31,7.92,17.55,7.09l8.54-28.3s6.01-20.56-1.9-23.8Z"/>
        </g>
      </g>
      <g>
        <g>
          <path class="cls-21" d="m234.26,353.84v1.01c0,1.02.55,1.97,1.43,2.48l27.26,15.68c.44.26.94.38,1.43.38s.99-.12,1.43-.38l50-28.87c.89-.51,1.43-1.46,1.43-2.48v-.7l-52.86,30.52-30.11-17.65Z"/>
          <path class="cls-4" d="m317.24,340.97l-29.65-17.11c-.53-.3-1.18-.3-1.7,0l-51.43,29.7c-.25.15-.25.51,0,.66l29.92,17.28,52.86-30.52Z"/>
          <path class="cls-24" d="m304.05,323.63c-4.07-7.22-15.44-28.48-15.44-28.48l-10.86,9.97c4.43,8.38,16.45,25.25,16.45,25.25,5.53,3.63,12.19-2.57,9.85-6.73Z"/>
          <polygon class="cls-12" points="264.11 368.97 248.11 359.75 294.87 332.76 310.94 341.93 264.11 368.97"/>
          <polygon class="cls-12" points="256.25 343.32 256.54 343.49 264.38 348.01 278.32 339.97 278.61 339.8 270.47 335.11 256.25 343.32"/>
          <polygon class="cls-16" points="256.54 343.49 264.38 348.01 278.32 339.97 270.47 335.44 256.54 343.49"/>
          <path class="cls-21" d="m264.38,371.49v1.9c.49,0,.99-.12,1.43-.38l50-28.87c.89-.51,1.43-1.46,1.43-2.48v-.7l-52.86,30.52Z"/>
          <path class="cls-12" d="m264.38,371.49v1.9c.49,0,.99-.12,1.43-.38l50-28.87c.89-.51,1.43-1.46,1.43-2.48v-.7l-52.86,30.52Z"/>
          <path class="cls-19" d="m265.18,371.91c.95.37,2.02.3,2.92-.23l49.78-28.74c.88-.51,1.48-1.37,1.65-2.37l5.45-32.5c.03-.19.04-.37.04-.56,0-.91-.36-1.77-1-2.41l-51.73,29.87c-.65.38-1.09,1.02-1.22,1.75l-5.89,35.17Z"/>
          <g class="cls-14">
            <path class="cls-8" d="m265.18,371.91c.95.37,2.02.3,2.92-.23l49.78-28.74c.88-.51,1.48-1.37,1.65-2.37l5.45-32.5c.03-.19.04-.37.04-.56,0-.91-.36-1.77-1-2.41l-51.73,29.87c-.65.38-1.09,1.02-1.22,1.75l-5.89,35.17Z"/>
          </g>
          <path class="cls-4" d="m264.38,371.49l.34.2c.15.08.31.16.47.23l5.89-35.17c.13-.74.57-1.38,1.22-1.75l51.73-29.87c-.2-.2-.44-.38-.69-.53l-51.84,29.93c-.65.38-1.09,1.02-1.22,1.75l-5.9,35.22Z"/>
          <g class="cls-14">
            <path class="cls-9" d="m293.22,341.91c.37-2.18,2.61-5.07,5.02-6.45,2.41-1.39,4.06-.75,3.7,1.42-.36,2.18-2.61,5.07-5.02,6.45-2.41,1.39-4.06.75-3.7-1.42Z"/>
          </g>
        </g>
        <path class="cls-24" d="m226.94,314.44s3.74,6.21,8.06,12.03c4.32,5.81,8.96,11.89,12.5,12.93,3.29.96,7.15,2.13,8.26,3.15,1.11,1.03,6.47,6.99,7.5,8.7,1.04,1.71,3.52,5.19,0,6.3-3.21,1.01-5.82-.36-8.43-2.15-1.68-1.15-3.48-2.88-3.48-2.88,0,0-3.85.6-7.53-1.49-1.99-1.13-5.31-3.08-5.31-3.08-2.74-1.88-16.35-14.47-22.53-20.68"/>
      </g>
    </g>
  </g>
</svg>