<svg width="55" height="54" viewBox="0 0 55 54" fill="none" xmlns="http://www.w3.org/2000/svg">
<rect width="55" height="54" rx="27" fill="white"/>
<path d="M34.9981 10.4161C35.2128 9.90723 34.9751 9.31801 34.4557 9.13035C31.1392 7.93218 27.5477 7.67844 24.0843 8.40788C20.294 9.20615 16.8383 11.1438 14.1801 13.9611C11.522 16.7785 9.78845 20.341 9.21176 24.1712C8.63507 28.0014 9.24281 31.9164 10.9535 35.3916C12.6643 38.8667 15.3963 41.736 18.7834 43.6149C22.1706 45.4938 26.0511 46.2926 29.905 45.9043C33.7588 45.5159 37.402 43.959 40.3462 41.442C43.0365 39.1421 45.0258 36.1411 46.0988 32.7821C46.2669 32.256 45.9449 31.7082 45.4107 31.5681L40.8342 30.3673C40.3 30.2272 39.7572 30.5484 39.574 31.0694C38.8592 33.1025 37.6191 34.9174 35.9721 36.3254C34.071 37.9506 31.7186 38.956 29.2301 39.2067C26.7416 39.4575 24.2359 38.9417 22.0487 37.7285C19.8616 36.5152 18.0975 34.6625 16.9929 32.4185C15.8882 30.1746 15.4958 27.6466 15.8682 25.1734C16.2406 22.7002 17.3599 20.3998 19.0763 18.5806C20.7927 16.7614 23.0241 15.5103 25.4716 14.9948C27.5918 14.5483 29.7865 14.6724 31.8336 15.3458C32.3582 15.5184 32.9439 15.2841 33.1586 14.7753L34.9981 10.4161Z" fill="#3C7EE3"/>
<circle cx="30.5" cy="27.5" r="4.5" fill="#3C7EE3"/>
</svg>
