<svg width="204" height="205" viewBox="0 0 204 205" fill="none" xmlns="http://www.w3.org/2000/svg">
<path d="M79.9451 169.152C116.681 169.152 146.461 139.371 146.461 102.636C146.461 65.8998 116.681 36.1196 79.9451 36.1196M79.9451 169.152C43.2094 169.152 13.4292 139.371 13.4292 102.636C13.4292 65.8998 43.2094 36.1196 79.9451 36.1196M79.9451 169.152C95.4126 169.152 107.952 139.371 107.952 102.636C107.952 65.8998 95.4126 36.1196 79.9451 36.1196M79.9451 169.152C64.4775 169.152 51.9384 139.371 51.9384 102.636C51.9384 65.8998 64.4775 36.1196 79.9451 36.1196M16.93 81.6305H142.96M16.93 123.641H142.96" stroke="#684DE3" stroke-width="6" stroke-linecap="round"/>
</svg>
