<?xml version="1.0" encoding="UTF-8"?>
<svg xmlns="http://www.w3.org/2000/svg" viewBox="0 0 416.14 390.62">
  <defs>
    <style>
      .cls-1, .cls-2, .cls-3 {
        fill: #fff;
      }

      .cls-4 {
        fill: #fafafa;
      }

      .cls-5 {
        fill: #37474f;
      }

      .cls-2 {
        opacity: .4;
      }

      .cls-6 {
        fill: #f5f5f5;
      }

      .cls-7 {
        fill: #455a64;
      }

      .cls-8 {
        fill: #f28f8f;
      }

      .cls-9 {
        fill: #e0e0e0;
      }

      .cls-10 {
        fill: #a67efc;
      }

      .cls-3 {
        opacity: .7;
      }

      .cls-11 {
        fill: #e6e6e6;
      }

      .cls-12 {
        opacity: .15;
      }

      .cls-13 {
        opacity: .1;
      }

      .cls-14 {
        fill: #ebebeb;
      }

      .cls-15 {
        fill: #263238;
      }

      .cls-16 {
        fill: #ffa8a7;
      }
    </style>
  </defs>
  <g id="Floor">
    <path class="cls-6" d="m60.94,360.71c81.26,39.88,213,39.88,294.26,0,81.26-39.88,81.26-104.53,0-144.41-81.26-39.88-213-39.88-294.26,0-81.26,39.88-81.26,104.53,0,144.41Z"/>
  </g>
  <g id="Shadow">
    <path class="cls-11" d="m371.83,333.19c-12.89,6.14-33.79,6.14-46.68,0-12.89-6.14-12.89-16.1,0-22.25,12.89-6.14,33.79-6.14,46.68,0,12.89,6.14,12.89,16.11,0,22.25Z"/>
  </g>
  <g id="Device">
    <g id="Device-2" data-name="Device">
      <g>
        <path class="cls-15" d="m206.85,181.43l-37.5,21.65c-1.39.8-2.74,2.74-3.02,4.32l-9.32,53.81c-.27,1.58.63,3.52,2.02,4.32l24.18,13.96c1.39.8,3.65.8,5.04,0l51.68-29.84c1.39-.8,2.52-2.68,2.52-4.18,0-1.51-1.13-3.38-2.52-4.18l-18.6-10.74c-1.39-.8-2.65-2.75-2.81-4.35l-4.14-40.6c-.16-1.6-1.35-3.5-2.66-4.26-1.31-.75-3.49-.71-4.88.09Z"/>
        <path class="cls-7" d="m185.73,270.03v10.06c.91,0,1.82-.2,2.52-.6l51.68-29.84c1.39-.8,2.52-2.68,2.52-4.18,0-.88-.39-1.88-.99-2.73h-8.46l-47.27,27.29Z"/>
        <path class="cls-15" d="m211.57,184.16l-37.5,21.65c-1.39.8-2.74,2.74-3.02,4.32l-8.46,48.85c-.27,1.58.63,3.52,2.02,4.32l18.6,10.74c1.39.8,3.65.8,5.04,0l51.68-29.84c1.39-.8,1.39-2.11,0-2.91l-18.6-10.74c-1.39-.8-2.65-2.75-2.81-4.35l-4.14-40.6c-.16-1.6-1.42-2.24-2.81-1.44Z"/>
        <path class="cls-5" d="m239.93,241.28l-18.6-10.74c-.69-.4-1.34-1.07-1.84-1.84l-56.54,32.64c.36.81.95,1.53,1.67,1.95l18.6,10.74c1.39.8,3.65.8,5.04,0l51.68-29.84c1.39-.8,1.39-2.11,0-2.91Z"/>
      </g>
      <g>
        <path class="cls-7" d="m87.67,288.45l-2.4-1.39c-1.95-1.12-3.53-3.86-3.53-6.11V119.9c0-2.25,1.58-4.98,3.53-6.1L282.03.84c1.95-1.12,5.11-1.12,7.06,0l1.83,1.06c1.95,1.12,3.53,3.86,3.53,6.11v161.05c0,2.25-1.58,4.98-3.53,6.11l-196.19,113.27c-1.95,1.12-5.11,1.12-7.05,0Z"/>
        <path class="cls-15" d="m95.92,124.01l-13.15-7.59c-.64,1.1-1.04,2.35-1.04,3.48v161.05c0,2.25,1.58,4.98,3.53,6.11l2.4,1.39c1.95,1.12,5.11,1.12,7.05,0l1.2-.69V124.01Z"/>
        <path class="cls-5" d="m91.2,286.41V125.36c0-2.25,1.58-4.98,3.53-6.11L290.92,5.98c1.95-1.12,3.53-.21,3.53,2.04v161.05c0,2.25-1.58,4.98-3.53,6.11l-196.19,113.27c-1.95,1.12-3.53.21-3.53-2.04Z"/>
        <path class="cls-9" d="m183.33,226.38l18.59-10.74c1.39-.8,2.52-.23,2.52,1.27s-1.13,3.38-2.52,4.18l-18.6,10.74c-1.39.8-2.52.23-2.52-1.27,0-1.51,1.13-3.38,2.52-4.18Z"/>
        <path class="cls-1" d="m100.24,124.17L285.01,17.19c1.11-.64,2.01-.12,2.01,1.16v140.37c0,1.29-.9,2.85-2.02,3.49l-184.77,106.68c-1.11.64-2.02.12-2.02-1.16V127.67c0-1.29.9-2.85,2.01-3.49Z"/>
      </g>
    </g>
  </g>
  <g id="Window">
    <g id="Tab">
      <path class="cls-9" d="m113.56,127.68L307.47,15.71c3.08-1.78,5.59-.32,5.59,3.23v126.52c0,1.65-1.17,3.67-2.6,4.5l-197.91,114.27c-1.43.82-2.6.15-2.6-1.5v-128.82c0-2.29,1.62-5.09,3.6-6.24Z"/>
      <path class="cls-10" d="m313.07,21.86v-2.92c0-3.55-2.52-5.01-5.59-3.23L113.56,127.68c-1.98,1.14-3.6,3.95-3.6,6.24v5.22L313.07,21.86Z"/>
      <path class="cls-1" d="m289.6,28.52c-1.06.61-1.93,2.11-1.93,3.34s.86,1.73,1.93,1.11c1.06-.61,1.93-2.11,1.93-3.34s-.86-1.73-1.93-1.11Z"/>
      <path class="cls-1" d="m297.25,24.1c-1.06.61-1.93,2.11-1.93,3.34s.86,1.73,1.93,1.11c1.06-.61,1.93-2.11,1.93-3.34s-.86-1.73-1.93-1.11Z"/>
      <path class="cls-1" d="m304.9,19.69c-1.06.61-1.93,2.11-1.93,3.34s.86,1.73,1.93,1.11c1.06-.61,1.93-2.11,1.93-3.34s-.86-1.73-1.93-1.11Z"/>
    </g>
  </g>
  <g id="Charts">
    <g id="Graphics">
      <g>
        <g>
          <path class="cls-14" d="m300.82,44.09c-.16-.53-.66-.7-1.25-.36l-123.32,71.21c-.36.21-.69.56-.92.97l-4.06-2.35c.23-.41.56-.76.92-.97l123.32-71.2c.72-.42,1.88-.42,2.6,0l1.46.84c.61.35,1.12,1.13,1.25,1.86Z"/>
          <path class="cls-4" d="m300.87,44.48v53.29c0,.83-.58,1.84-1.3,2.25l-123.32,71.2c-.06.03-.12.06-.18.09-.08.03-.16.06-.24.07-.01,0-.03.01-.04.01-.49.07-.84-.28-.84-.92v-53.28c0-.42.15-.88.38-1.28.23-.41.56-.76.92-.97l123.32-71.21c.59-.34,1.09-.17,1.25.36.01.03.02.06.02.1.02.1.03.19.03.29Z"/>
          <path class="cls-9" d="m175.79,171.39c-.38.12-.82.16-1.23.11-.33-.03-.65-.13-.91-.28l-1.46-.84c-.72-.42-1.3-1.43-1.3-2.25v-53.29c0-.41.14-.87.38-1.28l4.06,2.35c-.23.4-.38.86-.38,1.28v53.28c0,.64.35.99.84.92Z"/>
        </g>
        <path class="cls-10" d="m297.04,73.03c-.25-.12-.55-.03-.67.22l-4.37,8.63c-.13-.17-.27-.32-.45-.43-.54-.32-1.23-.27-1.94.14-1.11.64-2.02,2.04-2.23,3.37l-8.38-1.37c-.09-.6-.36-1.06-.8-1.32-.55-.31-1.23-.26-1.94.14-.48.28-.92.69-1.28,1.18l-10.63-9.69c.3-.61.48-1.27.48-1.89,0-.81-.3-1.43-.84-1.75-.55-.31-1.23-.26-1.94.14-1.28.74-2.28,2.47-2.28,3.95,0,.8.29,1.41.83,1.73l-7.54,22.73c-.47-.13-1.02-.04-1.57.28-.73.42-1.36,1.17-1.78,2.01l-9.08-6.54s.01-.09.01-.13c0-.81-.3-1.43-.84-1.75-.55-.31-1.23-.26-1.94.14-1.28.74-2.28,2.47-2.28,3.95,0,.51.13.94.36,1.27l-7.36,21.53c-.33.02-.69.13-1.04.34-1.19.69-2.13,2.24-2.26,3.65l-11.33,6.55c-.13-.42-.37-.76-.72-.96-.55-.31-1.23-.26-1.94.14-.96.56-1.77,1.68-2.11,2.83l-7.35-2.98c.03-.2.05-.4.05-.59,0-.81-.3-1.43-.84-1.75-.54-.31-1.23-.26-1.94.14-1.28.74-2.28,2.47-2.28,3.95,0,.32.06.6.15.86l-8.39,16.05c-.49-.17-1.07-.09-1.66.25-1.19.69-2.13,2.24-2.26,3.65l-5.87,3.39c-.24.14-.32.44-.18.68.09.16.26.25.43.25.08,0,.17-.02.25-.07l5.47-3.16c.13.42.37.76.72.96.24.14.5.2.78.2.37,0,.76-.12,1.16-.35,1.28-.74,2.28-2.47,2.28-3.95,0-.49-.12-.89-.32-1.22l8.27-15.81s.01.01.02.02c.24.14.5.2.78.2.37,0,.76-.12,1.16-.35.84-.49,1.56-1.4,1.95-2.39l7.47,3.02s0,.07,0,.11c0,.81.3,1.43.84,1.75.24.14.5.2.78.2.37,0,.76-.12,1.16-.35,1.19-.69,2.13-2.24,2.26-3.65l11.33-6.55c.13.42.37.76.72.96.24.14.5.2.78.2.37,0,.76-.12,1.16-.35,1.28-.74,2.28-2.47,2.28-3.95,0-.77-.28-1.36-.77-1.69l7.23-21.17c.13.04.27.06.42.06.37,0,.76-.12,1.16-.35.94-.54,1.72-1.61,2.07-2.73l8.92,6.42c-.08.33-.14.66-.14.97,0,.81.3,1.43.84,1.75.24.14.5.2.78.2.37,0,.76-.12,1.16-.35,1.28-.74,2.28-2.47,2.28-3.95,0-.51-.13-.94-.36-1.27l7.69-23.16c.31-.03.63-.13.97-.32.48-.28.92-.69,1.28-1.18l10.63,9.69c-.3.61-.48,1.27-.48,1.89,0,.81.3,1.43.84,1.75.24.14.5.2.78.2.37,0,.76-.12,1.16-.35,1.11-.64,2.02-2.04,2.23-3.37l8.38,1.37c.09.6.36,1.06.8,1.32.24.14.5.2.78.2.37,0,.76-.12,1.16-.35,1.24-.71,2.21-2.36,2.27-3.81l4.88-9.64c.12-.25.03-.55-.22-.67Zm-110.15,79.75c-.38.22-.72.27-.94.14-.22-.13-.34-.45-.34-.88,0-1.12.82-2.53,1.78-3.08.24-.14.47-.21.66-.21.11,0,.2.02.28.07.22.13.34.45.34.88,0,1.11-.82,2.53-1.78,3.08Zm12.19-21.11c-.38.22-.72.27-.94.14-.22-.13-.34-.45-.34-.88,0-1.11.82-2.53,1.78-3.09.24-.14.47-.21.66-.21.11,0,.2.02.28.07.22.13.34.45.34.88,0,1.12-.82,2.53-1.78,3.08Zm12.19,2.35c-.38.22-.72.27-.94.14-.22-.13-.34-.45-.34-.88,0-1.11.82-2.53,1.78-3.09.24-.14.47-.21.66-.21.11,0,.2.02.28.07.22.13.35.45.35.88,0,1.11-.82,2.53-1.78,3.08Zm16.24-9.38c-.37.22-.72.27-.94.14-.22-.13-.34-.45-.34-.88,0-1.11.82-2.53,1.78-3.08.24-.14.47-.21.66-.21.11,0,.2.02.28.07.22.13.35.45.35.88,0,1.11-.82,2.53-1.78,3.09Zm10.32-27.1c-.38.22-.72.27-.94.14-.03-.02-.06-.05-.08-.08,0,0,0,0-.01-.01-.16-.16-.25-.43-.25-.8,0-1.12.82-2.53,1.78-3.09.24-.14.47-.21.66-.21.11,0,.2.02.28.07.22.13.34.45.34.88,0,1.12-.82,2.53-1.78,3.08Zm13.63,6.27c-.38.22-.72.27-.94.14-.22-.13-.34-.45-.34-.88,0-1.12.82-2.53,1.78-3.08.24-.14.47-.21.66-.21.11,0,.2.02.28.07.04.02.06.05.1.09,0,0,0,0,0,0,.16.16.25.43.25.8,0,1.12-.82,2.53-1.78,3.09Zm10.57-28.7c-.38.22-.72.27-.94.14-.22-.13-.34-.45-.34-.88,0-1.12.82-2.53,1.78-3.09.24-.14.47-.21.66-.21.11,0,.2.02.28.07.22.13.34.45.34.88,0,1.11-.82,2.53-1.78,3.08Zm14.22,12c-.38.22-.72.27-.94.14-.22-.13-.34-.45-.34-.88,0-1.11.82-2.53,1.78-3.09.24-.14.47-.21.66-.21.11,0,.2.02.28.07.22.13.34.45.34.88,0,1.12-.82,2.53-1.78,3.08Zm13.35-.83c-.38.22-.72.27-.94.14-.22-.13-.34-.45-.34-.88,0-1.11.82-2.53,1.78-3.09.24-.14.47-.21.66-.21.11,0,.2.02.28.07.22.13.34.45.34.88,0,1.11-.82,2.53-1.78,3.08Z"/>
      </g>
      <g>
        <g>
          <path class="cls-14" d="m227.71,151.97c-.16-.53-.67-.7-1.25-.36l-50.21,28.99c-.38.22-.72.6-.95,1.03l-4.05-2.37c.24-.42.57-.79.94-1l50.2-28.99c.72-.42,1.89-.42,2.6,0l1.47.84c.6.35,1.11,1.13,1.25,1.86Z"/>
          <path class="cls-4" d="m227.76,152.36v39.22c0,.83-.59,1.83-1.3,2.25l-47.45,27.39-2.76,1.6c-.06.04-.13.07-.2.1,0,0-.02.01-.03.01-.62.22-1.07-.13-1.07-.86v-39.22c0-.39.13-.83.35-1.22.23-.43.57-.81.95-1.03l50.21-28.99c.58-.34,1.09-.17,1.25.36,0,.03,0,.06.02.1.02.1.03.19.03.29Z"/>
          <path class="cls-9" d="m176.02,222.93c-.05.02-.1.04-.16.06-.07.03-.15.05-.22.06-.11.03-.22.05-.34.06-.11.01-.23.02-.34.02-.24,0-.47-.03-.7-.08-.22-.05-.43-.13-.61-.23l-1.46-.85c-.72-.41-1.3-1.42-1.3-2.25v-39.21c0-.41.14-.85.36-1.25l4.05,2.37c-.22.39-.35.83-.35,1.22v39.22c0,.73.45,1.08,1.07.86Z"/>
        </g>
        <g>
          <path class="cls-10" d="m179.01,215.53v-26.14c0-.55.39-1.22.87-1.5l2.33-1.35c.48-.28.87-.05.87.5v26.14c0,.55-.39,1.22-.87,1.5l-2.33,1.35c-.48.28-.87.05-.87-.5Z"/>
          <path class="cls-10" d="m187.14,210.84v-30.83c0-.55.39-1.22.87-1.5l2.33-1.35c.48-.28.87-.05.87.5v30.83c0,.55-.39,1.22-.87,1.5l-2.33,1.35c-.48.28-.87.05-.87-.5Z"/>
          <path class="cls-10" d="m195.26,206.15v-14.8c0-.55.39-1.22.87-1.5l2.33-1.35c.48-.28.87-.05.87.5v14.8c0,.55-.39,1.22-.87,1.5l-2.33,1.35c-.48.28-.87.05-.87-.5Z"/>
          <path class="cls-10" d="m203.39,201.47v-19.19c0-.55.39-1.22.87-1.5l2.33-1.35c.48-.28.87-.05.87.5v19.19c0,.55-.39,1.22-.87,1.5l-2.33,1.35c-.48.28-.87.05-.87-.5Z"/>
          <path class="cls-10" d="m211.51,196.78v-6.53c0-.55.39-1.22.86-1.5l2.33-1.35c.48-.28.87-.05.87.5v6.53c0,.55-.39,1.22-.87,1.5l-2.33,1.35c-.48.28-.87.05-.87-.5Z"/>
          <path class="cls-10" d="m219.63,192.09v-21.45c0-.55.39-1.22.86-1.5l2.33-1.35c.48-.28.87-.05.87.5v21.45c0,.55-.39,1.22-.87,1.5l-2.33,1.35c-.48.28-.87.05-.87-.5Z"/>
        </g>
      </g>
      <g>
        <g>
          <path class="cls-14" d="m300.82,109.75c-.16-.53-.67-.7-1.25-.36l-62.4,36.03c-.38.22-.72.6-.95,1.03l-4.05-2.37c.24-.42.57-.79.94-1l62.39-36.03c.72-.42,1.89-.42,2.6,0l1.47.84c.6.35,1.11,1.13,1.25,1.86Z"/>
          <path class="cls-4" d="m300.87,110.14v39.22c0,.83-.59,1.83-1.3,2.25l-59.64,34.43-2.76,1.6c-.06.04-.13.07-.2.1,0,0-.02.01-.03.01-.62.22-1.07-.13-1.07-.86v-39.22c0-.39.13-.83.35-1.22.23-.43.57-.81.95-1.03l62.4-36.03c.58-.34,1.09-.17,1.25.36,0,.03,0,.06.02.1.02.1.03.19.03.29Z"/>
          <path class="cls-9" d="m236.95,187.75c-.05.02-.1.04-.16.06-.07.03-.15.05-.22.06-.11.03-.22.05-.34.06-.11.01-.23.02-.34.02-.24,0-.47-.03-.7-.08-.22-.05-.43-.13-.61-.23l-1.46-.85c-.72-.41-1.3-1.42-1.3-2.25v-39.21c0-.41.14-.85.36-1.25l4.05,2.37c-.22.39-.35.83-.35,1.22v39.22c0,.73.45,1.08,1.07.86Z"/>
        </g>
        <g>
          <path class="cls-10" d="m258.97,142.05l-3.23,12.05c-.22.8-.85,2.02-1.38,2.66l-10.43,12.53c-1.33-.91-2.19-2.32-2.52-4.1-.73-4.03,1.33-9.54,5.36-14.39.69-.82,1.39-1.59,2.11-2.32,3.08-3.08,6.52-5.27,10.09-6.43Z"/>
          <path class="cls-10" d="m267.66,157.21c-4.63,7.79-13.43,13.67-20.03,13.26-1.02-.06-1.84-.24-2.62-.58l10.28-12.35c.44-.53,1.4-.96,2.12-.96h.11l10.14.63Z"/>
          <path class="cls-10" d="m266.77,141.85l-9.58,11.51,3.14-11.71c2.6-.64,4.68-.59,6.44.2Z"/>
          <path class="cls-10" d="m268.31,156.03l-10.71-.66c-.23-.02-.34-.08-.35-.08,0-.02.02-.09.09-.2.03-.05.06-.09.09-.12l10.43-12.53c3.44,2.34,3.62,7.58.45,13.59Z"/>
        </g>
        <path class="cls-10" d="m274.71,133.65c0,.72.58.97,1.3.56l19.5-11.26c.72-.41,1.3-1.33,1.3-2.06,0-.72-.58-.97-1.3-.56l-19.5,11.26c-.72.41-1.3,1.33-1.3,2.06Z"/>
        <g>
          <path class="cls-9" d="m274.71,141.49c0,.72.58.97,1.3.56l19.5-11.26c.72-.41,1.3-1.33,1.3-2.06,0-.72-.58-.97-1.3-.56l-19.5,11.26c-.72.41-1.3,1.33-1.3,2.06Z"/>
          <path class="cls-9" d="m274.71,146.33c0,.72.58.97,1.3.56l19.5-11.26c.72-.41,1.3-1.33,1.3-2.06,0-.72-.58-.97-1.3-.56l-19.5,11.26c-.72.41-1.3,1.33-1.3,2.06Z"/>
          <path class="cls-9" d="m274.71,151.16c0,.72.58.97,1.3.56l19.5-11.26c.72-.41,1.3-1.33,1.3-2.06,0-.72-.58-.97-1.3-.56l-19.5,11.26c-.72.41-1.3,1.33-1.3,2.06Z"/>
          <path class="cls-9" d="m274.71,156c0,.72.58.97,1.3.56l19.5-11.26c.72-.41,1.3-1.33,1.3-2.06,0-.72-.58-.97-1.3-.56l-19.5,11.26c-.72.41-1.3,1.33-1.3,2.06Z"/>
        </g>
      </g>
      <g>
        <g>
          <path class="cls-14" d="m158.65,147.29c-.16-.54-.66-.71-1.25-.36l-33.96,19.6c-.36.21-.68.57-.92.97l-4.06-2.34c.24-.41.56-.76.92-.97l33.96-19.61c.72-.41,1.88-.41,2.6,0l1.46.85c.61.35,1.12,1.13,1.25,1.86Z"/>
          <path class="cls-4" d="m158.7,147.68v11.07c0,.83-.58,1.83-1.3,2.25l-33.96,19.6c-.07.04-.15.08-.24.12-.02,0-.04.01-.06.02-.58.17-1-.18-1-.89v-11.07c0-.42.14-.87.38-1.28.24-.4.56-.76.92-.97l33.96-19.6c.59-.35,1.09-.18,1.25.36.01.03.02.06.02.1.02.1.03.2.03.29Z"/>
          <path class="cls-9" d="m123.14,180.74c-.15.06-.32.1-.49.13-.5.09-1.06.05-1.52-.13-.1-.04-.2-.09-.29-.14l-1.46-.84c-.72-.41-1.3-1.42-1.3-2.25v-11.07c0-.42.15-.87.38-1.28l4.06,2.34c-.24.41-.38.86-.38,1.28v11.07c0,.71.42,1.06,1,.89Z"/>
        </g>
        <g>
          <path class="cls-14" d="m158.65,168.4c-.16-.54-.66-.71-1.25-.36l-33.96,19.6c-.36.21-.68.57-.92.97l-4.06-2.34c.24-.41.56-.76.92-.97l33.96-19.61c.72-.41,1.88-.41,2.6,0l1.46.85c.61.35,1.12,1.13,1.25,1.86Z"/>
          <path class="cls-4" d="m158.7,168.79v11.07c0,.83-.58,1.83-1.3,2.25l-33.96,19.6c-.07.04-.15.08-.24.12-.02,0-.04.01-.06.02-.58.17-1-.18-1-.89v-11.07c0-.42.14-.87.38-1.28.24-.4.56-.76.92-.97l33.96-19.6c.59-.35,1.09-.18,1.25.36.01.03.02.06.02.1.02.1.03.2.03.29Z"/>
          <path class="cls-9" d="m123.14,201.85c-.15.06-.32.1-.49.13-.5.09-1.06.05-1.52-.13-.1-.04-.2-.09-.29-.14l-1.46-.84c-.72-.41-1.3-1.42-1.3-2.25v-11.07c0-.42.15-.87.38-1.28l4.06,2.34c-.24.41-.38.86-.38,1.28v11.07c0,.71.42,1.06,1,.89Z"/>
        </g>
        <g>
          <path class="cls-14" d="m158.65,189.5c-.16-.54-.66-.71-1.25-.36l-33.96,19.6c-.36.21-.68.57-.92.97l-4.06-2.34c.24-.41.56-.76.92-.97l33.96-19.61c.72-.41,1.88-.41,2.6,0l1.46.85c.61.35,1.12,1.13,1.25,1.86Z"/>
          <path class="cls-4" d="m158.7,189.89v11.07c0,.83-.58,1.83-1.3,2.25l-33.96,19.6c-.07.04-.15.08-.24.12-.02,0-.04.01-.06.02-.58.17-1-.18-1-.89v-11.07c0-.42.14-.87.38-1.28.24-.4.56-.76.92-.97l33.96-19.6c.59-.35,1.09-.18,1.25.36.01.03.02.06.02.1.02.1.03.2.03.29Z"/>
          <path class="cls-9" d="m123.14,222.95c-.15.06-.32.1-.49.13-.5.09-1.06.05-1.52-.13-.1-.04-.2-.09-.29-.14l-1.46-.84c-.72-.41-1.3-1.42-1.3-2.25v-11.07c0-.42.15-.87.38-1.28l4.06,2.34c-.24.41-.38.86-.38,1.28v11.07c0,.71.42,1.06,1,.89Z"/>
        </g>
        <g>
          <path class="cls-14" d="m158.65,210.61c-.16-.54-.66-.71-1.25-.36l-33.96,19.6c-.36.21-.68.57-.92.97l-4.06-2.34c.24-.41.56-.76.92-.97l33.96-19.61c.72-.41,1.88-.41,2.6,0l1.46.85c.61.35,1.12,1.13,1.25,1.86Z"/>
          <path class="cls-4" d="m158.7,211v11.07c0,.83-.58,1.83-1.3,2.25l-33.96,19.6c-.07.04-.15.08-.24.12-.02,0-.04.01-.06.02-.58.17-1-.18-1-.89v-11.07c0-.42.14-.87.38-1.28.24-.4.56-.76.92-.97l33.96-19.6c.59-.35,1.09-.18,1.25.36.01.03.02.06.02.1.02.1.03.2.03.29Z"/>
          <path class="cls-9" d="m123.14,244.06c-.15.06-.32.1-.49.13-.5.09-1.06.05-1.52-.13-.1-.04-.2-.09-.29-.14l-1.46-.84c-.72-.41-1.3-1.42-1.3-2.25v-11.07c0-.42.15-.87.38-1.28l4.06,2.34c-.24.41-.38.86-.38,1.28v11.07c0,.71.42,1.06,1,.89Z"/>
        </g>
        <g>
          <path class="cls-10" d="m162.22,129.76s.08.01.13.04l-3.65-2.09v-1.13c0-.09-.01-.19-.03-.29,0-.04,0-.07-.02-.1-.13-.73-.64-1.51-1.25-1.86l-1.46-.85c-.72-.41-1.88-.41-2.6,0l-33.96,19.61c-.36.21-.68.56-.92.97-.23.41-.38.86-.38,1.28v11.07c0,.83.58,1.84,1.3,2.25l1.46.84c.09.05.19.1.29.14.46.18,1.02.22,1.52.13.17-.03.34-.07.49-.13.02-.01.04-.02.06-.02.09-.04.17-.08.24-.12l33.96-19.6c.72-.42,1.3-1.42,1.3-2.25v-3.19l3.71-4.28c.14-.16.03-.41-.19-.41Z"/>
          <path class="cls-13" d="m123.14,159.63c-.15.06-.32.1-.49.13-.5.09-1.06.05-1.52-.13-.1-.04-.2-.09-.29-.14l-1.46-.84c-.72-.41-1.3-1.42-1.3-2.25v-11.07c0-.42.15-.87.38-1.28l4.06,2.34c-.24.41-.38.86-.38,1.28v11.07c0,.71.42,1.06,1,.89Z"/>
          <path class="cls-2" d="m158.65,126.18c-.16-.54-.66-.71-1.25-.36l-33.96,19.6c-.36.21-.68.57-.92.97l-4.06-2.34c.24-.41.56-.76.92-.97l33.96-19.61c.72-.41,1.88-.41,2.6,0l1.46.85c.61.35,1.12,1.13,1.25,1.86Z"/>
          <path class="cls-2" d="m162.22,129.76h-3.52v-2.06s3.65,2.09,3.65,2.09c-.05-.03-.09-.04-.13-.04Z"/>
        </g>
      </g>
    </g>
  </g>
  <g id="Plants">
    <g id="Plants-2" data-name="Plants">
      <g>
        <path class="cls-10" d="m52.75,308.48l7.01-4.01s3.36-18.54.85-34.47c-3.54-22.4-18.79-30.13-24.33-27.9s-6.84,8.86,3.16,21.81c5.9,7.64,13.5,23.78,13.31,44.57Z"/>
        <g class="cls-13">
          <path d="m52.75,308.48l7.01-4.01s3.36-18.54.85-34.47c-3.54-22.4-18.79-30.13-24.33-27.9s-6.84,8.86,3.16,21.81c5.9,7.64,13.5,23.78,13.31,44.57Z"/>
        </g>
        <path class="cls-1" d="m55.29,299.58s-.05,0-.07,0c-.27-.04-.46-.29-.43-.56,2.9-20.97-5.54-43.95-15.01-53.21-.2-.19-.2-.51,0-.71.19-.2.51-.2.71,0,9.65,9.43,18.25,32.78,15.3,54.06-.03.25-.25.43-.49.43Z"/>
      </g>
      <g>
        <path class="cls-10" d="m33.29,319.72c-1.11.64-3.39-.75-4.27-1.34-1.5-1-2.71-2.43-3.52-4.04-.94-1.87-1.17-3.88-.88-5.95.15-1.07.45-2.12.75-3.16.29-1.02.59-2.05.88-3.07.29-1.01.58-2.06.45-3.1-.27-2.1-2.13-3.57-3.83-4.84-1.87-1.4-3.83-3.26-3.82-5.79,0-1.95,1.02-3.76,2.23-5.3,1.21-1.53,2.64-2.89,3.74-4.5.79-1.16,1.4-2.53,1.27-3.93-.08-.87-.44-1.69-.86-2.46-.89-1.65-2.07-3.16-2.69-4.92s-.53-3.97.85-5.24c1.13-1.04,2.82-1.18,4.35-1.08,1.42.09,2.81.73,4.05,1.42,4.02,2.23,6.31,6.99,10.57,8.71,1.64.66,3.44.81,5.16,1.26s3.46,1.33,4.25,2.91c1.56,3.12-1.34,6.97-.24,10.29.97,2.93,3.82,4.06,5.43,6.7.7,1.16.86,2.49.75,3.84-.19,2.28-.53,3.96-1.62,6.49-.9,2.1-3.56,5.85-3.56,5.85-.07.07-19.29,11.14-19.46,11.24Z"/>
        <path class="cls-1" d="m44.68,313.65h-.01c-.28-.01-.5-.25-.49-.52.83-19.85-8.53-41.77-15.33-48.13-.2-.19-.21-.5-.02-.71.19-.2.5-.21.71-.02,6.94,6.5,16.48,28.78,15.65,48.91-.01.27-.23.48-.5.48Z"/>
        <path class="cls-1" d="m41.7,290.2s-.1,0-.15-.02c-6.38-1.97-14.33-2.32-14.41-2.32-.28-.01-.49-.25-.48-.52.01-.28.22-.49.52-.48.08,0,8.16.36,14.66,2.37.26.08.41.36.33.62-.07.21-.26.35-.48.35Z"/>
      </g>
    </g>
  </g>
  <g id="Magnifying_Glass" data-name="Magnifying Glass">
    <g id="Lens">
      <path class="cls-10" d="m116.67,268.35h0c0-.99-.66-1.99-1.97-2.74-2.62-1.51-6.88-1.51-9.5,0-1.31.76-1.97,1.75-1.97,2.74h0s-2.66,69.87-2.66,69.87h0c-.09,1.45.81,2.93,2.73,4.04,3.67,2.12,9.61,2.12,13.28,0,1.92-1.11,2.83-2.58,2.73-4.04h.02l-2.67-69.87Z"/>
      <path class="cls-12" d="m105.21,265.61c-2.62,1.51-2.62,3.97,0,5.48s6.88,1.51,9.5,0c2.62-1.51,2.62-3.97,0-5.48s-6.88-1.51-9.5,0Z"/>
      <path class="cls-15" d="m112.83,246.07c-1.59-.92-4.16-.92-5.74,0-.79.46-1.19,1.06-1.19,1.66h0v20.63h0c0,.6.4,1.2,1.19,1.66,1.59.92,4.16.92,5.74,0,.79-.46,1.19-1.06,1.19-1.66v-20.63h0c0-.6-.4-1.2-1.19-1.66Z"/>
      <g>
        <path class="cls-10" d="m155.17,195.54c-.01-.41-.03-.81-.06-1.21-.02-.4-.05-.79-.09-1.18-.02-.26-.05-.52-.08-.78-.07-.68-.17-1.35-.28-1.99-.05-.29-.1-.59-.16-.88-.05-.28-.11-.55-.17-.82-.17-.74-.35-1.46-.56-2.15-.11-.33-.21-.66-.32-.98-.02-.05-.04-.1-.05-.15-.12-.32-.23-.63-.35-.93-.14-.35-.28-.7-.44-1.03-.11-.25-.22-.49-.35-.73-.07-.18-.16-.35-.26-.52-.1-.21-.21-.42-.33-.62-.03-.05-.05-.1-.08-.14-.1-.18-.21-.36-.32-.54-.07-.12-.15-.23-.22-.34-.53-.83-1.1-1.59-1.72-2.29-.11-.12-.22-.24-.32-.36-.09-.1-.18-.19-.27-.28-.11-.12-.23-.23-.35-.35-.34-.34-.68-.65-1.04-.93-.17-.15-.35-.29-.53-.42-.18-.14-.36-.27-.55-.4-.29-.21-.59-.41-.89-.58-.08-.05-.16-.1-.24-.15l-.05-.04h-.01l-14.17-8.18h-.02l-.08-.05c-2.6-1.48-5.6-2.25-8.9-2.25-4.64,0-9.88,1.52-15.43,4.72-19.06,11.01-34.52,37.78-34.52,59.8,0,10.98,3.84,18.7,10.05,22.32l.06.03h0s14.18,8.18,14.18,8.18t0,.01l.06.04h0c.06.02.11.05.17.08.27.16.54.3.82.43.34.17.69.32,1.04.46.31.13.63.25.95.35.17.06.34.11.51.15.18.07.36.12.55.16.19.06.37.1.56.14.14.04.27.07.41.09.24.05.5.1.75.13.06.02.11.03.17.03.3.05.6.09.9.12,5.14.54,11.12-.91,17.52-4.6,19.07-11.01,34.53-37.79,34.53-59.8,0-.53-.01-1.05-.03-1.57Zm-23.13-15.57c.91,3.1,1.09,6.3,1.09,8.4,0,19.42-14.21,44.03-31.03,53.74-2.73,1.57-5.39,2.68-7.87,3.27-.9-3.1-1.09-6.3-1.09-8.41,0-19.42,14.21-44.03,31.03-53.74,2.73-1.57,5.39-2.67,7.87-3.26Z"/>
        <path class="cls-13" d="m95.77,259.05l-13.76-7.94c-6.21-3.63-10.05-11.35-10.05-22.31,0-9.82,3.08-20.58,8.17-30.46l14.18,8.18c-5.1,9.88-8.17,20.64-8.17,30.46,0,10.74,3.65,18.36,9.63,22.08Z"/>
        <path class="cls-2" d="m155.17,195.54c-.01-.41-.03-.81-.06-1.21-.02-.4-.05-.79-.09-1.18-.02-.26-.05-.52-.08-.78-.07-.68-.17-1.35-.28-1.99-.05-.29-.1-.59-.16-.88-.05-.28-.11-.55-.17-.82-.17-.74-.35-1.46-.56-2.15-.11-.33-.21-.66-.32-.98-.02-.05-.04-.1-.05-.15-.12-.32-.23-.63-.35-.93-.14-.35-.28-.7-.44-1.03-.11-.25-.22-.49-.35-.73-.07-.18-.16-.35-.26-.52-.1-.21-.21-.42-.33-.62-.03-.05-.05-.1-.08-.14-.1-.18-.21-.36-.32-.54-.07-.12-.15-.23-.22-.34-.53-.83-1.1-1.59-1.72-2.29-.11-.12-.22-.24-.32-.36-.09-.1-.18-.19-.27-.28-.11-.12-.23-.23-.35-.35-.34-.34-.68-.65-1.04-.93-.17-.15-.35-.29-.53-.42-.18-.14-.36-.27-.55-.4-.29-.21-.59-.41-.89-.58-6.27-3.81-15.03-3.36-24.71,2.23-19.07,11.01-34.53,37.78-34.53,59.8,0,11.15,3.96,18.94,10.35,22.48.27.16.54.3.82.43.34.17.69.32,1.04.46.31.13.63.25.95.35.17.06.34.11.51.15.18.07.36.12.55.16.19.06.37.1.56.14.14.04.27.07.41.09.24.05.5.1.75.13.06.02.11.03.17.03.3.05.6.09.9.12,5.14.54,11.12-.91,17.52-4.6,19.07-11.01,34.53-37.79,34.53-59.8,0-.53-.01-1.05-.03-1.57Zm-38,55.31c-4.28,2.47-8.4,3.77-11.92,3.77-6.61,0-9.65-4.51-11.02-9.24-.9-3.1-1.09-6.3-1.09-8.41,0-19.42,14.21-44.03,31.03-53.74,2.73-1.57,5.39-2.67,7.87-3.26,1.42-.34,2.77-.51,4.05-.51,10.93,0,12.1,12.34,12.1,17.65,0,19.42-14.2,44.03-31.02,53.74Z"/>
        <path class="cls-13" d="m148.19,197.11c0,19.42-14.2,44.03-31.02,53.74-4.28,2.47-8.4,3.77-11.92,3.77-6.61,0-9.65-4.51-11.02-9.24,2.48-.59,5.14-1.7,7.87-3.27,16.82-9.71,31.03-34.32,31.03-53.74,0-2.1-.18-5.3-1.09-8.4,1.42-.34,2.77-.51,4.05-.51,10.93,0,12.1,12.34,12.1,17.65Z"/>
        <path class="cls-3" d="m142.15,193.72c0,19.42-14.2,44.03-31.02,53.74-4.28,2.47-8.4,3.77-11.92,3.77-.74,0-1.44-.06-2.09-.17-1.38-1.62-2.29-3.62-2.89-5.68-.9-3.1-1.09-6.3-1.09-8.41,0-19.42,14.21-44.03,31.03-53.74,2.73-1.57,5.39-2.67,7.87-3.26,1.42-.34,2.77-.51,4.05-.51.75,0,1.44.06,2.1.17,3.45,4.07,3.96,10.6,3.96,14.09Z"/>
      </g>
      <path class="cls-13" d="m108,272.05l-1.79,71.33c-1.04-.27-2.03-.63-2.89-1.13-1.92-1.11-2.83-2.58-2.73-4.04h-.01l2.66-69.86c0,1,.66,1.98,1.97,2.74.81.46,1.77.78,2.79.96Z"/>
    </g>
  </g>
  <g id="Character">
    <g id="Character-2" data-name="Character">
      <g id="Character2">
        <g>
          <path class="cls-16" d="m373.13,202.03c-.06-.77-1.49-8.96-2.48-13.54l-9.63,2.95,1.71,8.43,8.11,6.51c2.54-.5,2.34-3.58,2.29-4.35Z"/>
          <g>
            <path class="cls-15" d="m347.97,160.79h2.05c7.92,0,14.34-6.42,14.34-14.34h0c0-8.49-6.88-15.37-15.37-15.37h0c-8.49,0-15.37,6.88-15.37,15.37h0c0,7.92,6.42,14.34,14.34,14.34Z"/>
            <polygon class="cls-8" points="326.56 184.76 322.01 193.11 329.09 199.17 335.58 188.89 326.56 184.76"/>
            <path class="cls-10" d="m343.64,166.16c-4.51.05-9.48,1.69-11.19,5.23-1.71,3.54-7.06,14.56-7.06,14.56,0,0,3.99,5.84,10.32,5.43l7.93-25.22Z"/>
            <g class="cls-13">
              <path d="m343.64,166.16c-4.51.05-9.48,1.69-11.19,5.23-1.71,3.54-7.06,14.56-7.06,14.56,0,0,3.99,5.84,10.32,5.43l7.93-25.22Z"/>
            </g>
            <path class="cls-15" d="m358.87,314.48v-.99c-.39,1.16-2.2,6.15-4.94,8.65-2.18,1.99-5.15,4.28-5.91,6.5-.79,2.3,4.14,3.08,6.17,2.72,2.37-.42,5.43-1.76,7.09-3.81,1.17-1.44,1.92-3.14,2.75-4.28.84-1.13,2.76-2.39,3.22-3.7.25-.72-.05-2.3-.4-3.63-.32-1.22-.67-2.56-1.08-2.45,0,.15,0,.75,0,.75-.5.56-1.89,1.11-3.45,1.17-1.01.04-3.46-.16-3.45-.93Z"/>
            <path class="cls-16" d="m351.96,323.88c.68-.6,1.36-1.19,1.97-1.76,1.91-1.75,3.37-4.71,4.21-6.73.48-1.15.72-2.39.72-3.64v-3.94h6.91v6.41h0s0,0,0,0v.17l-.03.02c-.33,1.44-3.5,5.25-5.3,7.74-1.21,1.67-3.5,3.79-6.24,4.16-2.6.35-3.93-.47-2.24-2.44Z"/>
            <path class="cls-15" d="m333.2,307.82v-.99c-.39,1.16-2.2,6.15-4.94,8.65-2.18,1.99-5.15,4.28-5.91,6.5-.79,2.3,4.14,3.08,6.17,2.72,2.37-.42,5.43-1.76,7.09-3.81,1.17-1.44,1.92-3.14,2.75-4.28.84-1.13,2.76-2.39,3.22-3.7.25-.72-.05-2.3-.4-3.63-.32-1.22-.67-2.56-1.08-2.45,0,.15,0,.75,0,.75-.5.56-1.89,1.11-3.45,1.17-1.01.04-3.46-.16-3.45-.93Z"/>
            <path class="cls-16" d="m326.29,317.22c.68-.6,1.36-1.19,1.97-1.76,1.91-1.75,3.37-4.71,4.21-6.73.48-1.15.72-2.39.72-3.64v-3.94h6.91v6.41h0s0,0,0,0v.17l-.03.02c-.33,1.44-3.5,5.25-5.3,7.74-1.21,1.67-3.5,3.79-6.24,4.16-2.6.35-3.93-.47-2.24-2.44Z"/>
            <path class="cls-5" d="m364.4,207.11c5.36,11.7-.19,52.9-.19,52.9.16,1.9,2.33,5.63,3.14,13.99.96,9.87-1.5,34.66-1.5,34.66,0,0-3.2,2.09-6.98.28,0,0-6.58-37.33-7.82-47.15-1.08-8.57-3.15-28.7-3.15-28.7l-5.89,28.65s1.52,5.21,1.63,10.09c.14,5.8-3.39,31.23-3.39,31.23-.68,1.3-5.83,1.61-7.18.03,0,0-3.04-35.72-3.64-42.66-.36-4.15,4.37-55.04,4.37-55.04l30.61,1.71Z"/>
            <path class="cls-15" d="m347.89,233.1l-1.74-9.57s-7.36-1.52-10.69-4.66c0,0,3.5,4.35,8.7,5.78l1.95,8.36-3.41,25.33,5.19-25.25Z"/>
            <path class="cls-10" d="m354.96,166.48h0c4.09.98,7.35,3.79,9.07,7.41,1.31,2.76,1.32,5.96.32,8.85l-4.78,13.84s2.24,5.42,4.84,10.53c-12.01,6.7-27,3.18-30.61-1.71-.15-1.04.05-5.71-.24-11.03-.31-5.67-1.09-12.08-.2-15.59,1.66-6.51,4.76-12.62,10.93-12.62l10.67.31Z"/>
            <path class="cls-10" d="m354.96,166.48c4.1.58,10.48,1.39,13.29,11.35,2.75,9.71,3.39,13.1,3.39,13.1,0,0-3.36,3.91-10.16,3.88l-2.11-7.48-4.41-20.85Z"/>
            <path class="cls-16" d="m339.37,138.86c-1.62.96-3.63,5.04-3.43,13.6.17,7.25,2.52,9.04,3.7,9.56,1.18.52,3.46.2,5.67-.17v4.35s-3.06,3.55-2.87,5.55c.19,2,4.42,2.47,7.28.52,2.86-1.95,4.7-4.92,4.7-4.92v-10.52s1.49,2,3.94.37c2.44-1.62,2.54-5.64,1.12-7.08-1.42-1.44-4.48-.99-5.05,1.01,0,0-3.53.13-8.23-2.45-4.7-2.58-6.51-7.01-6.82-9.82Z"/>
            <path class="cls-15" d="m344.04,150.63c-.03.52.36.97.86.99.5.02.93-.38.96-.9.03-.52-.36-.97-.86-.99-.5-.02-.93.38-.96.9Z"/>
            <path class="cls-8" d="m343.79,156.78l-2.12.68c.18.61.79.95,1.38.76.59-.19.92-.83.74-1.44Z"/>
            <path class="cls-15" d="m336.56,147.83l1.85-1.28c-.34-.53-1.02-.67-1.53-.31-.51.35-.65,1.07-.31,1.59Z"/>
            <path class="cls-15" d="m336.98,149.97c-.03.52.36.97.86.99.5.02.93-.38.96-.9.03-.52-.36-.97-.86-.99-.5-.02-.93.38-.96.9Z"/>
            <polygon class="cls-8" points="341.29 149.45 341.14 154.94 338.25 154.05 341.29 149.45"/>
            <path class="cls-8" d="m345.31,161.85c2.33-.31,7.13-1.68,7.88-3.58,0,0-.25,1.19-1.68,2.42-1.43,1.23-6.2,2.61-6.2,2.61v-1.45Z"/>
          </g>
          <path class="cls-13" d="m361.02,192.36s-1.52-4.03-2.36-7.6c0,0,.38,5.65,1.98,8.69l.38-1.09Z"/>
        </g>
        <polygon class="cls-9" points="307.13 184.25 333.61 191.22 341.43 224.09 316.25 216.77 307.13 184.25"/>
        <g class="cls-13">
          <path d="m318.68,205.99c-.25.67-1.69,2.53-4.78,2.39l-.38-1.36,5.16-1.03Z"/>
        </g>
        <g class="cls-13">
          <path d="m324.6,207.02c.12.88,1.92,2.5,4.96,3.51,3.46,1.15,8.78.54,8.78.54l-.48-1.63-13.26-2.42Z"/>
        </g>
        <g class="cls-13">
          <path d="m314.89,189.01s-.1-.45-.22-1.01,1.43-.58,3.47-.05l3.9,1.01c2.04.53,3.79,1.41,3.91,1.97l.22,1.01-11.28-2.93Z"/>
        </g>
        <path class="cls-5" d="m313.05,185.2c-.08-.35.55-.44,1.41-.2l1.55.43s-.46-2.18,2.97-1.42c3.43.76,4.18,3.24,4.18,3.24,0,0,.74.21,1.65.47.91.26,1.74.75,1.84,1.1l.2.63-13.64-3.59s-.07-.3-.15-.65Z"/>
        <path class="cls-5" d="m314.93,186.29c1.25.3,1.77.47,1.96,1.33.21.98.3,1.7.3,1.7l6.04,1.6s-.29-1.24-.39-1.73.11-.78,1.07-.52l.08-.38-9.46-2.41.4.42Z"/>
        <path class="cls-5" d="m314.72,189.1s-.1-.45-.22-1.01c-.12-.56,1.43-.58,3.47-.05l3.9,1.01c2.04.53,3.79,1.41,3.91,1.97l.22,1.01-11.28-2.93Z"/>
        <path class="cls-16" d="m370.85,206.38l-8.11-6.51s-17.93,3.19-20.03,3.36c-2.11.17-4.45-1.32-5.25-3.39-.8-2.07-2.22-1.81-2.22-1.81,0,0,.62,2.62.82,3.46.2.84-4.85,1.52-7.65.58-2.8-.95-6.85.43-4.34,4.24,2.51,3.81,7.39,4.25,10.79,4.26.94,0,2.6-.07,4.24-.28,1.1-.14,2.19-.25,3.29-.33,6.94-.49,25.31-2.57,28.46-3.56Z"/>
        <path class="cls-16" d="m309.83,193.86s.95,3.38,1.18,4.19c.23.81,3.31,2.27,5.25,2.81s4.08,1.17,3.15,3.89c-.85,2.51-4.05,3.08-5.68,3.01-1.63-.07-3.86-1.63-4.74-4.14-1.12-3.2-.52-6.63-.96-8.5-.45-1.87.83-2.38,1.81-1.26Z"/>
      </g>
      <path class="cls-15" d="m372.78,172.32h0c-5.32,0-9.64-4.32-9.64-9.64v-22.63h0c5.32,0,9.64,4.32,9.64,9.64v22.63Z"/>
      <path class="cls-15" d="m362.83,140.85l4-2.15c-.57-1.15-1.92-1.59-3.03-1-1.1.59-1.54,2-.97,3.15Z"/>
    </g>
  </g>
  <g id="Cloud">
    <g id="Cloud-2" data-name="Cloud">
      <path id="Nube" class="cls-14" d="m100.65,45.14l-6.86,3.96c.03-.31.06-.61.06-.91v-1.99c0-3.54-2.48-4.97-5.55-3.2-1.24.72-2.38,1.85-3.31,3.18-.5-4.45-3.99-6.11-8.23-3.66-4.58,2.65-8.3,9.08-8.3,14.38v2.97c0,1.37.25,2.53.7,3.45l-5.7,3.29c-1.7.98-3.08,3.37-3.08,5.33s1.38,2.76,3.08,1.78l37.19-21.47c1.7-.98,3.08-3.37,3.08-5.33s-1.38-2.76-3.08-1.78Z"/>
    </g>
  </g>
</svg>