<?xml version="1.0" encoding="UTF-8"?>
<svg id="OBJECTS" xmlns="http://www.w3.org/2000/svg" xmlns:xlink="http://www.w3.org/1999/xlink" viewBox="0 0 431.56 415.43">
  <defs>
    <style>
      .cls-1 {
        fill: #ffdfd2;
      }

      .cls-2, .cls-3, .cls-4 {
        stroke: #000;
      }

      .cls-2, .cls-3, .cls-5 {
        stroke-miterlimit: 10;
      }

      .cls-2, .cls-4, .cls-6, .cls-7, .cls-8, .cls-5 {
        fill: none;
      }

      .cls-2, .cls-4, .cls-6, .cls-8 {
        stroke-linecap: round;
      }

      .cls-4, .cls-6, .cls-8 {
        stroke-linejoin: round;
      }

      .cls-9 {
        clip-path: url(#clippath-1);
      }

      .cls-6 {
        stroke: #7a5ce0;
      }

      .cls-10 {
        opacity: .66;
      }

      .cls-11 {
        fill: #e8e0ff;
      }

      .cls-12 {
        clip-path: url(#clippath);
      }

      .cls-13 {
        fill: #7a5ce0;
      }

      .cls-14 {
        fill: #647aff;
      }

      .cls-8, .cls-5 {
        stroke: #1c1c1b;
      }

      .cls-15 {
        fill: #b49eff;
      }

      .cls-16 {
        fill: #1d1d1b;
      }
    </style>
    <clipPath id="clippath">
      <path class="cls-7" d="m130.87,95.58c-6.44,1.46-12.89,2.91-19.46,3.62,3.65,15.45,5.18,29.66,4.37,44.25-.54,9.76-2.95,15.96-9.89,22.74-.65.64-.75,1.7-.79,2.61-.09,2.4,2.8,2.88,4.53,3.74,5.03,2.5,9.91,5.28,14.84,7.96l7.74,3.75c15.23-37.78,9.2-63.63,2.77-89.17-1.37.18-2.74.34-4.11.51Z"/>
    </clipPath>
    <clipPath id="clippath-1">
      <path class="cls-7" d="m93.82,145.56c.54,3.09,1.12,6.19,1.82,9.24.15.65.12,1.42-.39,1.85-.41.36-1.01.37-1.56.36,1.58,2.35,3.96,4.16,6.66,5.02,2.7.86,5.69.78,8.33-.27.81-.32,1.66-.61,2.38-1.12.68-.48,1.28-1.28,1.7-2,.04-.06.07-.14.04-.2-.03-.06-.1-.08-.16-.09-.68-.17-1.37-.5-1.69-1.12-.18-.34-.23-.74-.25-1.13-.06-.8-.06-1.6,0-2.39.02-.27-.06-.76.27-.81.24-.04.6.11.84.12,1.02.08,2.03-.14,2.92-.64,2.29-1.27,3.52-4,3.8-6.51.59-5.32-2.06-14.34-6.62-17.68-2.8-2.05-7.44-2.13-10.64-1.09-3.3,1.06-7.74,3.6-8.57,7.22-.38,1.65-.13,3.37.12,5.04.32,2.06.66,4.13,1.02,6.18Z"/>
    </clipPath>
  </defs>
  <g>
    <path class="cls-11" d="m417.34,133.23c-21.51-7.76-45.37-9.34-67.78-4.51-6.65,1.43-13.35,3.51-18.65,7.65-5.3,4.14-8.97,10.72-7.94,17.22.86,5.44,4.86,10.08,9.7,12.98,4.85,2.9,10.5,4.29,16.1,5.31,18.42,3.35,37.52,3.12,55.85-.65,6.72-1.38,13.51-3.32,18.94-7.39,13.73-10.27,8.57-25.28-6.22-30.61Z"/>
    <g class="cls-10">
      <path class="cls-15" d="m350.3,154.82h-2.5l-.93,5.31h-2.37l.93-5.31h-2.94v-2.23h3.33l.65-3.7h-3.01v-2.23h3.41l.95-5.39h2.36l-.95,5.39h2.51l.95-5.39h2.37l-.95,5.39h2.84v2.23h-3.24l-.65,3.7h2.9v2.23h-3.29l-.93,5.31h-2.37l.93-5.31Zm-2.11-2.23h2.5l.65-3.7h-2.51l-.63,3.7Z"/>
      <path class="cls-15" d="m371.17,155.18c0-.73-.26-1.3-.78-1.69-.52-.39-1.45-.81-2.8-1.24-1.35-.44-2.41-.87-3.2-1.29-2.14-1.16-3.21-2.72-3.21-4.68,0-1.02.29-1.93.86-2.73.57-.8,1.4-1.42,2.47-1.87,1.08-.45,2.28-.67,3.62-.67s2.55.24,3.6.73c1.05.49,1.87,1.18,2.46,2.07.58.89.87,1.9.87,3.03h-3.89c0-.86-.27-1.54-.82-2.01-.54-.48-1.31-.72-2.29-.72s-1.69.2-2.22.6c-.53.4-.79.93-.79,1.59,0,.61.31,1.13.93,1.54.62.41,1.53.8,2.73,1.17,2.21.67,3.82,1.49,4.83,2.48,1.01.98,1.52,2.21,1.52,3.68,0,1.63-.62,2.91-1.85,3.84-1.23.93-2.9,1.39-4.99,1.39-1.45,0-2.77-.27-3.96-.8-1.19-.53-2.1-1.26-2.73-2.18-.63-.92-.94-1.99-.94-3.21h3.9c0,2.08,1.24,3.12,3.73,3.12.92,0,1.65-.19,2.16-.56.52-.38.78-.9.78-1.57Z"/>
      <path class="cls-15" d="m394.29,151.13c0,1.76-.28,3.29-.85,4.59-.57,1.3-1.36,2.34-2.37,3.13l3.14,2.46-2.47,2.19-4.02-3.23c-.46.08-.93.12-1.42.12-1.56,0-2.96-.38-4.18-1.13-1.23-.75-2.18-1.82-2.85-3.22-.67-1.39-1.02-3-1.02-4.81v-.93c0-1.86.33-3.49,1-4.9.67-1.41,1.61-2.5,2.84-3.25,1.22-.76,2.62-1.13,4.19-1.13s2.97.38,4.19,1.13c1.22.76,2.17,1.84,2.84,3.25.67,1.41,1,3.04,1,4.89v.84Zm-3.94-.86c0-1.98-.35-3.48-1.06-4.51-.71-1.03-1.72-1.54-3.03-1.54s-2.31.51-3.02,1.52c-.71,1.01-1.07,2.5-1.08,4.46v.92c0,1.93.35,3.42,1.06,4.48.71,1.06,1.73,1.59,3.06,1.59s2.31-.51,3.01-1.54c.7-1.02,1.05-2.52,1.06-4.48v-.92Z"/>
      <path class="cls-15" d="m402.15,157.01h8.25v3.12h-12.14v-18.86h3.89v15.74Z"/>
    </g>
  </g>
  <g>
    <path class="cls-11" d="m76.11,79.21c-17.32-6.24-36.52-7.52-54.57-3.63-5.35,1.15-10.75,2.82-15.01,6.16-4.26,3.33-7.22,8.63-6.4,13.87.69,4.38,3.91,8.11,7.81,10.45,3.9,2.34,8.45,3.45,12.96,4.27,14.83,2.69,30.21,2.52,44.96-.52,5.41-1.11,10.88-2.68,15.25-5.95,11.06-8.27,6.9-20.36-5.01-24.65Z"/>
    <g>
      <path class="cls-15" d="m16.38,95.96h-2.23l-.83,4.73h-2.11l.83-4.73h-2.62v-1.99h2.97l.58-3.3h-2.68v-1.99h3.03l.84-4.8h2.1l-.84,4.8h2.24l.84-4.8h2.11l-.84,4.8h2.53v1.99h-2.89l-.58,3.3h2.58v1.99h-2.93l-.83,4.73h-2.11l.83-4.73Zm-1.88-1.99h2.23l.58-3.3h-2.24l-.57,3.3Z"/>
      <path class="cls-15" d="m34.98,96.28c0-.65-.23-1.16-.69-1.51-.46-.35-1.29-.72-2.49-1.11-1.2-.39-2.15-.77-2.85-1.15-1.91-1.03-2.86-2.42-2.86-4.17,0-.91.26-1.72.77-2.43.51-.71,1.25-1.27,2.2-1.67s2.03-.6,3.23-.6,2.27.22,3.21.65c.94.43,1.67,1.05,2.19,1.84.52.79.78,1.69.78,2.7h-3.46c0-.77-.24-1.37-.73-1.79-.48-.43-1.16-.64-2.04-.64s-1.5.18-1.97.54c-.47.36-.7.83-.7,1.41,0,.55.27,1,.83,1.37.55.37,1.36.72,2.43,1.04,1.97.59,3.4,1.33,4.3,2.2.9.88,1.35,1.97,1.35,3.28,0,1.45-.55,2.6-1.65,3.42-1.1.83-2.58,1.24-4.44,1.24-1.29,0-2.47-.24-3.53-.71-1.06-.47-1.87-1.12-2.43-1.94s-.84-1.78-.84-2.86h3.47c0,1.85,1.11,2.78,3.32,2.78.82,0,1.47-.17,1.93-.5.46-.33.69-.8.69-1.4Z"/>
      <path class="cls-15" d="m55.57,92.67c0,1.57-.25,2.93-.76,4.09-.51,1.16-1.21,2.09-2.11,2.79l2.79,2.19-2.2,1.95-3.58-2.87c-.41.07-.83.1-1.27.1-1.39,0-2.63-.34-3.73-1-1.09-.67-1.94-1.63-2.54-2.87-.6-1.24-.9-2.67-.91-4.29v-.83c0-1.65.3-3.11.89-4.37.6-1.26,1.44-2.22,2.53-2.9,1.09-.67,2.33-1.01,3.73-1.01s2.64.34,3.73,1.01c1.09.67,1.93,1.64,2.53,2.9.6,1.26.89,2.71.89,4.36v.75Zm-3.51-.76c0-1.76-.32-3.1-.95-4.02-.63-.92-1.53-1.37-2.7-1.37s-2.06.45-2.69,1.36c-.63.9-.95,2.23-.96,3.98v.82c0,1.72.32,3.05.95,3.99.63.95,1.54,1.42,2.72,1.42s2.05-.46,2.68-1.37c.62-.91.94-2.24.95-3.99v-.82Z"/>
      <path class="cls-15" d="m62.57,97.91h7.35v2.78h-10.81v-16.8h3.46v14.02Z"/>
    </g>
  </g>
  <path class="cls-11" d="m320.05,376.98c9.05-4.17,17.42-9.68,24.75-16.8,15.03-14.6,24.14-35.13,24.86-56.08.72-20.94-6.95-42.06-20.94-57.65-7.12-7.94-15.72-14.42-23.05-22.16-27.67-29.23-27.61-71.62-52.39-101.77-10.29-12.53-24.33-21.51-39.07-28.26-28.98-13.28-62.16-18.55-93.22-11.4-39.85,9.18-74.96,44.1-87.37,83.06-5.98,18.78-5.12,40.24,5.04,57.13,10.42,17.31,28.89,27.87,43.34,41.99,20.32,19.86,32.36,46.43,47.63,70.39,8.27,12.98,17.83,25.55,30.61,34.14,14.71,9.9,32.6,13.81,50.17,16.22,29.99,4.12,62.84,3.53,89.65-8.82Z"/>
  <g>
    <path class="cls-2" d="m268.47,233.41c0,3.78-2.05,6.85-4.59,6.85s-4.59-3.07-4.59-6.85,2.05-6.85,4.59-6.85,4.59,3.07,4.59,6.85Z"/>
    <g>
      <g>
        <path class="cls-2" d="m403.78,73.84c3.52,4.82,3.75,11.71.58,16.75"/>
        <g>
          <path class="cls-5" d="m384.98,88.59c-6.95,0-12.59-6.15-12.59-6.15,0,0,5.64-6.15,12.59-6.15s12.59,6.15,12.59,6.15c0,0-5.64,6.15-12.59,6.15Z"/>
          <path d="m384.93,88.61c-3.03,0-5.49-2.76-5.49-6.15s2.46-6.15,5.49-6.15,5.49,2.75,5.49,6.15-2.46,6.15-5.49,6.15Z"/>
        </g>
      </g>
      <g>
        <line class="cls-2" x1="359.84" y1="76.57" x2="355.99" y2="86.91"/>
        <line class="cls-2" x1="364.74" y1="76.57" x2="360.89" y2="86.91"/>
      </g>
    </g>
    <g>
      <g>
        <path class="cls-3" d="m23.5,237.55c0,.51-.42.92-.94.92s-.94-.41-.94-.92.42-.92.94-.92.94.41.94.92Z"/>
        <path class="cls-3" d="m23.5,242.16c0,.51-.42.92-.94.92s-.94-.41-.94-.92.42-.92.94-.92.94.41.94.92Z"/>
      </g>
      <path class="cls-2" d="m38.11,239.86c0,3.31-1.9,5.99-4.24,5.99s-4.24-2.68-4.24-5.99,1.9-5.99,4.24-5.99,4.24,2.68,4.24,5.99Z"/>
      <path class="cls-2" d="m51.3,239.86c0,3.31-1.9,5.99-4.24,5.99s-4.24-2.68-4.24-5.99,1.9-5.99,4.24-5.99,4.24,2.68,4.24,5.99Z"/>
    </g>
    <g>
      <polyline class="cls-2" points="201.56 393.32 191.9 400.47 201.03 406.51"/>
      <line class="cls-2" x1="230.54" y1="393.87" x2="226.25" y2="405.96"/>
      <line class="cls-2" x1="236.98" y1="393.87" x2="232.68" y2="405.96"/>
      <rect x="208.36" y="395.37" width="10.11" height="8.57"/>
    </g>
    <g>
      <line class="cls-2" x1="220.84" y1="64.01" x2="201.86" y2="64.01"/>
      <polyline class="cls-2" points="225.05 57.25 235.71 64.78 225.64 71.15"/>
    </g>
  </g>
  <g>
    <rect class="cls-15" x="193" y="100.42" width="67.89" height="24.98" rx="3.63" ry="3.63"/>
    <g>
      <line class="cls-4" x1="242.19" y1="95.97" x2="250.72" y2="82.49"/>
      <line class="cls-4" x1="224.08" y1="132.73" x2="231.72" y2="145.18"/>
      <line class="cls-4" x1="268.48" y1="114.09" x2="289.8" y2="114.11"/>
      <line class="cls-4" x1="178.81" y1="145.7" x2="187.34" y2="132.22"/>
      <line class="cls-4" x1="171.48" y1="75.14" x2="191.16" y2="94.3"/>
      <line class="cls-4" x1="180.8" y1="186.5" x2="180.28" y2="209.81"/>
      <line class="cls-4" x1="311.45" y1="147.13" x2="318.66" y2="133.65"/>
    </g>
    <g>
      <rect class="cls-15" x="208.5" y="152.48" width="67.89" height="24.98" rx="3.63" ry="3.63"/>
      <rect class="cls-4" x="211.49" y="155.48" width="67.89" height="24.98" rx="3.63" ry="3.63"/>
    </g>
    <path class="cls-4" d="m199.63,103.43h60.62c2.01,0,3.63,1.63,3.63,3.63v17.71c0,2.01-1.63,3.63-3.63,3.63h-60.62c-2.01,0-3.63-1.63-3.63-3.63v-17.71c0-2.01,1.63-3.63,3.63-3.63Z"/>
    <g>
      <rect class="cls-15" x="288.63" y="152.73" width="67.89" height="24.98" rx="3.63" ry="3.63"/>
      <path class="cls-4" d="m296.27,155.74h60.62c2.01,0,3.63,1.63,3.63,3.63v17.71c0,2.01-1.63,3.63-3.63,3.63h-60.62c-2.01,0-3.63-1.63-3.63-3.63v-17.71c0-2.01,1.63-3.63,3.63-3.63Z"/>
      <polygon class="cls-16" points="335.48 173.41 326.26 160.85 314.67 173.41 335.48 173.41"/>
    </g>
    <g>
      <path class="cls-14" d="m297.8,100.56h60.62c2.01,0,3.63,1.63,3.63,3.63v17.71c0,2.01-1.63,3.63-3.63,3.63h-60.62c-2.01,0-3.63-1.63-3.63-3.63v-17.71c0-2.01,1.63-3.63,3.63-3.63Z"/>
      <path class="cls-4" d="m301.8,103.56h60.62c2.01,0,3.63,1.63,3.63,3.63v17.71c0,2.01-1.63,3.63-3.63,3.63h-60.62c-2.01,0-3.63-1.63-3.63-3.63v-17.71c0-2.01,1.63-3.63,3.63-3.63Z"/>
      <polygon class="cls-16" points="339.75 119.36 330.54 106.8 318.95 119.36 339.75 119.36"/>
    </g>
    <path class="cls-16" d="m235.8,114.7c0,3.76-3.05,6.8-6.8,6.8s-6.8-3.05-6.8-6.8,3.05-6.8,6.8-6.8,6.8,3.05,6.8,6.8Z"/>
    <g>
      <rect class="cls-15" x="166.74" y="213.86" width="67.89" height="24.98" rx="3.63" ry="3.63"/>
      <path class="cls-4" d="m174.38,216.86h60.62c2.01,0,3.63,1.63,3.63,3.63v17.71c0,2.01-1.63,3.63-3.63,3.63h-60.62c-2.01,0-3.63-1.63-3.63-3.63v-17.71c0-2.01,1.63-3.63,3.63-3.63Z"/>
      <path class="cls-16" d="m200.33,234.92c3.68-.09,6.63-3.1,6.63-6.8s-2.95-6.7-6.63-6.8v13.59Z"/>
    </g>
    <g>
      <rect class="cls-15" x="253.92" y="47.42" width="77.41" height="28.48" rx="3.63" ry="3.63"/>
      <rect class="cls-4" x="258.49" y="50.85" width="77.41" height="28.48" rx="3.63" ry="3.63"/>
      <circle class="cls-16" cx="293.93" cy="63.79" r="7.76"/>
    </g>
    <g>
      <rect class="cls-15" x="124.33" y="152.48" width="67.89" height="24.98" rx="3.63" ry="3.63"/>
      <rect class="cls-4" x="127.33" y="155.48" width="67.89" height="24.98" rx="3.63" ry="3.63"/>
      <rect class="cls-16" x="149.28" y="161" width="20.93" height="9.42"/>
    </g>
  </g>
  <g>
    <path class="cls-1" d="m60.03,376.15l-21.42-10.57c-.5,6.2-.58,12.4-.23,18.53.42,7.27-.36,19.54,5.22,19.94,3.91.28,11.19-.43,15.13-.43-.46-4.85-.22-9.8.31-14.78.41-3.83.71-8.26.99-12.69Z"/>
    <path class="cls-13" d="m37.86,410.76c0-.06-.01-.13-.02-.19-.28-3.4-.66-6.55-.61-10.01.04-2.45-.09-5.35.82-7.65,6.76.39,13.64-.14,20.46.32,1.36.09,1.63,3.1,2.47,3.94,1.66,1.67,4.89,2.54,7.09,3.16,4.58,1.28,9.29,2.03,13.08,5.16,1.98,1.62,6.5,7.53,2.73,9.49-1.54.8-4.6.07-6.24,0-2.72-.13-5.43-.27-8.14-.45-10.28-.65-20.54-1.65-30.76-3-.24-.03-.5-.07-.67-.25-.14-.14-.19-.33-.21-.53Z"/>
    <path class="cls-4" d="m37.55,407.61c16.05,1.25,32.07,2.89,48.04,4.91"/>
    <path class="cls-4" d="m72.57,404.31c1.14-.47,2.14-1.29,2.81-2.33.15-.24.29-.51.25-.78-.06-.43-.56-.68-.99-.64-.43.04-.81.3-1.17.55-.89.62-1.79,1.25-2.68,1.87-.25.18-.52.36-.83.4-.31.04-.66-.13-.73-.43-.01-.49.34-.92.71-1.24.38-.32.81-.59,1.08-1,.27-.41.31-1.04-.07-1.34-.24-.19-.59-.21-.89-.15-1.5.31-2.31,2.11-3.79,2.5-.15.04-.31.06-.44-.01-.24-.12-.27-.45-.2-.71.26-1.01,1.47-1.65,1.51-2.69,0-.18-.02-.36-.13-.5-.21-.27-.61-.28-.94-.2-1.43.38-2.12,1.96-2.62,3.35"/>
    <path class="cls-4" d="m43.27,403.73c.99.46,2.27.16,2.95-.68.69-.84.71-2.16.06-3.03-.19-.25-.43-.47-.72-.58-.38-.15-.81-.1-1.22-.03-.79.13-1.63.35-2.16.96-.46.52-.61,1.29-.39,1.95.23.66.82,1.17,1.5,1.3"/>
    <path class="cls-1" d="m126.05,375.41l-21.42-10.57c-.5,6.2-.58,12.4-.23,18.53.42,7.27-.36,19.54,5.22,19.94,3.91.28,11.19-.43,15.13-.43-.46-4.85-.22-9.8.31-14.78.41-3.83.71-8.26.99-12.69Z"/>
    <path class="cls-13" d="m103.87,410.02c0-.06-.01-.13-.02-.19-.28-3.4-.66-6.55-.61-10.01.04-2.46-.09-5.35.82-7.65,6.76.39,13.64-.14,20.46.32,1.36.09,1.63,3.1,2.47,3.94,1.66,1.67,4.89,2.54,7.09,3.16,4.58,1.28,9.29,2.03,13.09,5.16,1.98,1.62,6.5,7.53,2.73,9.49-1.54.8-4.6.07-6.24,0-2.72-.13-5.43-.27-8.14-.45-10.28-.65-20.54-1.65-30.76-3-.24-.03-.5-.07-.67-.25-.14-.14-.19-.33-.21-.53Z"/>
    <g>
      <path class="cls-1" d="m109.52,57.67c.14,1.04.26,2.09.3,3.16.45,9.95,1.66,19.84,1.83,29.83.12,7.12.37,22.28,11,21.73,2.26-.12,4.38-1.08,6.41-2.09,2.03-1,4.16-2.2,5.11-4.25.98-2.1.48-4.56-.04-6.82-1.55-6.72-3.09-13.43-4.64-20.15-1.4-6.1-3.48-12.16-4.17-18.4-.18-1.6-.03-5.99-2.15-6.48-.57-.13-1.22.13-1.53.63-.08-.55-.16-1.11-.41-1.6-.26-.49-.73-.91-1.28-.94-.87-.05-1.5.79-1.96,1.53-.11-.59-.23-1.19-.52-1.72-.29-.53-.77-.98-1.36-1.08-.66-.11-1.32.24-1.75.75-.43.51-.65,1.16-.83,1.8-.27.96-.19,3.17-.84,3.84-.79-.87-.87-2.56-.81-3.7.07-1.31.39-2.59.72-3.85.2-.78.39-1.69-.11-2.32-2.14-2.7-3.86,2.74-3.74,4.2.16,1.96.52,3.92.79,5.92Z"/>
      <path class="cls-13" d="m130.87,95.58c-6.44,1.46-12.89,2.91-19.46,3.62,3.65,15.45,5.18,29.66,4.37,44.25-.54,9.76-2.95,15.96-9.89,22.74-.65.64-.75,1.7-.79,2.61-.09,2.4,2.8,2.88,4.53,3.74,5.03,2.5,9.91,5.28,14.84,7.96l7.74,3.75c15.23-37.78,9.2-63.63,2.77-89.17-1.37.18-2.74.34-4.11.51Z"/>
      <path class="cls-15" d="m66.51,34.6h90.39c2.01,0,3.63,1.63,3.63,3.63v23.17c0,2.01-1.63,3.63-3.63,3.63h-90.39c-2.01,0-3.63-1.63-3.63-3.63v-23.17c0-2.01,1.63-3.63,3.63-3.63Z"/>
      <rect class="cls-4" x="68.64" y="38.26" width="97.66" height="30.44" rx="3.63" ry="3.63"/>
      <g class="cls-12">
        <path d="m140.11,142.67c3.02.27,7.95-1.87,7.41-5.51-.09-.59-.38-1.12-.67-1.64-1.69-3.03-3.73-5.57-7.5-3.12-1.54,1-2.56,2.67-3.07,4.44-.24.83-.38,1.71-.21,2.56.37,1.81,2.17,3.09,4.01,3.27,0,0,.02,0,.03,0Z"/>
      </g>
      <g>
        <path d="m61.67,264.73c.1-.33.19-.67.29-1,2.92-10.02,5.86-20.03,8.75-30.05,1.82-6.31.64-13.53,2.34-19.27,3.53-11.9,31.84-6.95,42.28-8.04,5.47-.57,14.81-3.35,19.43,1.01,4.13,3.9,4.27,13.66,5.23,19.01,4.55,25.33,2.96,51.32,1.36,77l-3.23,51.73c-.59,9.37-.45,19.09-2.27,28.25-13.48,2.6-29.2.95-42.77-.57,2.76-21.51,5.53-43.02,8.29-64.52,2.61-20.31,5.46-40.71,6.31-61.21-2.1,9.94-6.09,19.66-8.93,29.45-3.22,11.09-6.2,22.24-9.51,33.3-1.69,5.66-16.88,63.87-19.06,63.72-14.06-1.04-28.12-2.09-42.19-3.13,11.23-38.56,22.45-77.12,33.68-115.68Z"/>
        <path class="cls-13" d="m127.18,162.9c-4.51-2.75-9.46-4.32-14.08-5.17-5.73-1.05-11.21-.98-17.66-.74-6.97.26-11.57,2.04-16.37,7.36-5.68,6.3-7.36,14.04-7.95,22.24-.72,10-1.45,20.01-2.17,30.01,23.57-.67,47.88.25,71.3-2.17,2.93-.3-4.85-37.61-5.5-40.75-.41-2.02-.85-4.09-1.94-5.84-1.12-1.81-2.86-3.16-4.65-4.32-.33-.21-.66-.42-.98-.62Z"/>
        <g>
          <path d="m116.97,132.43c.08.84.1,1.69.04,2.54-.05.66-.16,1.37-.62,1.86-2.06,2.19-6.59-5.37-7.39-6.73-1.15-1.95-2.38-4.68-1.86-6.99.27-1.22,1.32-2.46,2.66-2.52,1.47-.07,3.01,1.69,3.74,2.79,1.79,2.72,3.11,5.84,3.44,9.06Z"/>
          <path class="cls-1" d="m101.05,126.7c-.44.21-.88.44-1.3.67-2.3,1.27-4.85,2.93-5.29,5.74-.2,1.31-.28,2.65-.28,3.98,0,2.68.32,5.35.64,8,.28,2.31.56,4.62.84,6.94.12,1.02.78,4.06-.37,4.71-.18.1-.39.11-.59.12-.41.03-.81.11-1.19.24.05-.01,1.27,1.51,1.46,1.65.53.39,1.01.86,1.54,1.27,1.15.89,2.45,1.58,3.84,2.02,2.7.86,5.69.78,8.33-.27.81-.32,1.66-.61,2.38-1.12.62-.44,1.15-1.05,1.54-1.73.34-.59.08-1.32-.52-1.62-.23-.12-.45-.25-.65-.41-.41-.33-.74-.82-.79-1.35-.08-.79-.24-2.34.47-2.8.75-.49,2.14-.5,3.01-.9,3.11-1.46,3.74-4.1,3.56-7.34-.18-3.28-.81-6.53-1.86-9.64-.67-1.96-1.51-3.87-1.99-5.88-.19-.79-.34-1.62-.82-2.27-.7-.94-1.54-.86-2.56-.99-.97-.13-1.88-.49-2.9-.54-2.25-.1-4.47.58-6.48,1.54Z"/>
          <path d="m73.25,153.52c1.08,2.07,2.39,3.95,3.9,5.73,1.59,1.87,2.95,1.41,5.14.52,3.62-1.47,7.61-1.99,11.49-1.49.52.07,1.04.15,1.55.04,1.47-.32,1.72-2.08,2.08-3.29.98-3.23.5-6.44.93-9.74.19-1.43.62-2.87,1.39-4.09.71-1.12,1.82-1.66,2.64-2.63,1.88-2.27-.63-5.2,1.03-7.19.79-.95,2.3-1.58,3.44-1.97,2.46-.83,5.89-.93,7.33-3.46.99-1.73.45-4.05-.9-5.52-1.34-1.47-3.33-2.21-5.29-2.53-4.45-.72-9.18.55-12.67,3.4-1.89,1.55-3.32,3.74-5.55,4.77-2.42,1.12-5.09,1.71-7.32,3.22-1.18.8-2.19,1.82-3.28,2.74-2.95,2.49-6.84,5.26-8.18,9.05-1.19,3.35-.17,7.07,1.26,10.32.31.72.65,1.43,1.02,2.13Z"/>
          <path class="cls-1" d="m96.3,141.03c.61,2.33,4.53,4.06,5.35,1.03.47-1.75-.34-4.67-2.45-4.9-2.02-.22-3.37,2.09-2.91,3.87Z"/>
          <path class="cls-4" d="m97.03,139.82c.11-.31.4-.53.7-.65.54-.22,1.18-.17,1.71.09.53.26.94.71,1.21,1.24"/>
          <g class="cls-9">
            <path d="m113.15,153.17c-1.18.09-2.38-.16-3.42-.71-.54-.29-1.07-.67-1.68-.71-.22-.02-.48.03-.6.21-.2.3.08.69.39.86.31.17.69.27.88.57.18.28.12.66.28.95.2.39.69.52,1.12.62.97.21,1.95.45,2.84.89"/>
          </g>
        </g>
        <path class="cls-1" d="m71.35,58.18c-.37,1.32-.7,2.65-1.05,3.98-2.8,10.47-6.17,20.82-9.27,31.22-.44,1.48-.88,2.97-1.32,4.45-1.01,3.4-2.03,7.05-.96,10.44,1.2,3.79,4.93,6.43,8.86,7.04,2.61.4,5.26,0,7.74-.86,3.02-1.05,3.58-1.9,4.48-4.86,1.47-4.85.53-10.99.96-16.09.48-5.74,1.29-11.45,2.41-17.1,1.26-6.34,2.49-12.67,4.83-18.72.21-.53.42-1.07.47-1.64.05-.57-.1-1.18-.51-1.58-.65-.61-1.81-.32-2.27.38.29-.45.59-.92.62-1.46.03-.47.06-1.11-.24-1.5-.75-.97-2.37.29-3,.79.54-.68,1.33-1.72,1.15-2.64-.09-.45-.44-.86-.89-.96-.42-.09-.85.08-1.22.28-1.18.65-2.29,1.81-3.18,2.81-1.34,1.51-2.54,3.14-3.59,4.86.43-2.68,1.76-4.84,3.67-6.7.58-.56,1.52-.93,1.07-1.93-.25-.54-.93-.78-1.51-.67-.81.16-1.81.99-2.41,1.53-1.86,1.68-2.93,3.67-3.83,5.97-.38.97-.7,1.96-.98,2.96Z"/>
      </g>
      <path class="cls-13" d="m83.15,136.94c-2.81-13.29-2.44-27.06-.66-40.55-.07.01-.15.02-.22.04-1.8.28-3.6.55-5.4.82-6.97-.41-12.22-2.27-18.6-1.13-5.69,26.87-1.11,60.8,13.38,84.13,4.07,6.55,9.25,12.97,16.51,15.58,6.38-7.28,11.2-13.15,15.78-21.67-10.98-9.43-17.81-23.06-20.8-37.22Z"/>
      <rect class="cls-16" x="101.95" y="45.42" width="31.85" height="9.13"/>
      <path class="cls-8" d="m86.05,54.49c-1.59,2.06-2.81,4.4-3.57,6.89"/>
      <path class="cls-8" d="m83.36,52.38c-2.1,2.25-4.26,4.61-5.17,7.55"/>
      <path class="cls-8" d="m75.33,56.86c-.1.5-.26.99-.47,1.46"/>
      <path class="cls-1" d="m69.86,54.03c.2-.32.44-.6.76-.79.55-.33,1.36-.3,1.74.22.36.49.21,1.16.08,1.75-.37,1.6-.46,3.24-.47,4.88-.01,1.54.28,2.97.07,4.53-.08.58-.23,1.22-.72,1.54-.44.3-1.06.23-1.51-.06-.45-.29-.75-.76-.97-1.25-.54-1.23-.58-2.63-.5-3.97.13-2.1.4-5.04,1.52-6.86Z"/>
      <path class="cls-8" d="m72.63,54.44c-.96,1.93-1.48,4.11-1.9,6.22"/>
      <path class="cls-4" d="m110.82,144.52c1.12,1.18,2.93,1.66,4.48,1.17.36-.11.72-.28.94-.59"/>
      <path class="cls-4" d="m71.91,179.84c.48,1.44.96,2.87,1.44,4.31"/>
      <path class="cls-4" d="m135.54,174.54c-1.16,2.57-2.03,5.27-2.61,8.03"/>
      <path d="m60.87,134.37c.42-1.37,1.49-2.63,2.91-2.88,1.47-.25,2.96.66,3.72,1.95.75,1.29.86,2.86.67,4.33-.29,2.3-2.27,6.2-5.24,5.1-2.63-.97-2.72-6.36-2.06-8.51Z"/>
    </g>
    <path class="cls-4" d="m103.56,406.87c16.05,1.25,32.07,2.89,48.04,4.91"/>
    <path class="cls-4" d="m138.59,403.56c1.14-.47,2.14-1.29,2.81-2.33.15-.24.29-.51.25-.78-.06-.43-.56-.68-.99-.64-.43.04-.81.3-1.17.55-.89.62-1.79,1.25-2.68,1.87-.25.18-.52.36-.83.4s-.66-.13-.73-.43c-.01-.49.34-.92.71-1.24s.81-.59,1.08-1c.27-.41.31-1.04-.07-1.34-.24-.19-.59-.21-.89-.15-1.5.31-2.31,2.11-3.79,2.5-.15.04-.31.06-.44-.01-.24-.12-.27-.45-.2-.71.26-1.01,1.47-1.65,1.51-2.69,0-.18-.02-.36-.13-.5-.21-.27-.61-.28-.94-.2-1.43.38-2.12,1.96-2.62,3.35"/>
    <path class="cls-4" d="m109.29,402.99c.99.46,2.27.16,2.95-.68.69-.84.71-2.16.06-3.03-.19-.25-.43-.47-.72-.58-.38-.15-.81-.1-1.22-.03-.79.13-1.63.35-2.16.96-.46.52-.61,1.29-.39,1.95s.82,1.17,1.5,1.3"/>
    <path class="cls-6" d="m107.23,260.83c1.84-7.98,3.06-16.1,3.67-24.27"/>
    <path class="cls-4" d="m112.89,157.43c-.68,2.1-1.92,3.4-3.49,4.19-3,1.5-6.63,1.53-9.83.51-.64-.2-1.26-.46-1.85-.78-1.55-.87-2.74-2.24-3.83-3.64"/>
  </g>
  <line class="cls-4" x1="25.4" y1="414.93" x2="420.11" y2="414.93"/>
  <g>
    <g>
      <path class="cls-16" d="m208.11,270.37h-35.61c-2.23,0-4.04,1.77-4.04,3.95h0c0,2.18,1.81,3.95,4.04,3.95h35.61c2.23,0,4.04-1.77,4.04-3.95h0c0-2.18-1.81-3.95-4.04-3.95Z"/>
      <path class="cls-13" d="m250.87,270.37h-26.43c-2.11,0-3.99,1.51-4.19,3.56-.23,2.35,1.66,4.33,4.02,4.33h26.61c2.23,0,4.04-1.77,4.04-3.95h0c0-2.18-1.81-3.95-4.04-3.95Z"/>
      <path class="cls-16" d="m262.2,274.31h0c0,2.18,1.81,3.95,4.04,3.95h77.67c2.23,0,4.04-1.77,4.04-3.95h0c0-2.18-1.81-3.95-4.04-3.95h-77.67c-2.23,0-4.04,1.77-4.04,3.95Z"/>
      <path class="cls-13" d="m385.98,270.37h-24.82c-2.23,0-4.04,1.77-4.04,3.95h0c0,2.18,1.81,3.95,4.04,3.95h24.82c2.23,0,4.04-1.77,4.04-3.95h0c0-2.18-1.81-3.95-4.04-3.95Z"/>
      <path class="cls-13" d="m361.17,289.8h-70.66c-2.23,0-4.04,1.77-4.04,3.95h0c0,2.18,1.81,3.95,4.04,3.95h70.66c2.23,0,4.04-1.77,4.04-3.95h0c0-2.18-1.81-3.95-4.04-3.95Z"/>
      <path class="cls-13" d="m372.04,293.74h0c0,2.18,1.81,3.95,4.04,3.95h15.04c2.23,0,4.04-1.77,4.04-3.95h0c0-2.18-1.81-3.95-4.04-3.95h-15.04c-2.23,0-4.04,1.77-4.04,3.95Z"/>
      <path class="cls-16" d="m275.13,289.8h-8.89c-2.23,0-4.04,1.77-4.04,3.95h0c0,2.18,1.81,3.95,4.04,3.95h8.89c2.23,0,4.04-1.77,4.04-3.95h0c0-2.18-1.81-3.95-4.04-3.95Z"/>
      <path class="cls-14" d="m249.23,308.96h-8.89c-2.23,0-4.04,1.77-4.04,3.95h0c0,2.18,1.81,3.95,4.04,3.95h8.89c2.23,0,4.04-1.77,4.04-3.95h0c0-2.18-1.81-3.95-4.04-3.95Z"/>
      <path class="cls-16" d="m150.76,293.74h0c0,2.18,1.77,3.95,3.95,3.95h77.57c2.18,0,3.95-1.77,3.95-3.95h0c0-2.18-1.77-3.95-3.95-3.95h-77.57c-2.18,0-3.95,1.77-3.95,3.95Z"/>
      <path class="cls-13" d="m133.59,289.8h-1.1c-2.23,0-4.04,1.77-4.04,3.95h0c0,2.18,1.81,3.95,4.04,3.95h1.1c2.23,0,4.04-1.77,4.04-3.95h0c0-2.18-1.81-3.95-4.04-3.95Z"/>
      <path class="cls-14" d="m128.16,313.17h0c0,2.18,2.16,3.95,4.82,3.95h85.03c2.66,0,4.82-1.77,4.82-3.95h0c0-2.18-2.16-3.95-4.82-3.95h-85.03c-2.66,0-4.82,1.77-4.82,3.95Z"/>
      <path class="cls-16" d="m266.91,313.17h0c0,2.18,1.3,3.95,2.89,3.95h83.88c1.6,0,2.89-1.77,2.89-3.95h0c0-2.18-1.3-3.95-2.89-3.95h-83.88c-1.6,0-2.89,1.77-2.89,3.95Z"/>
      <path class="cls-16" d="m365.22,313.17h0c0,2.18,1.81,3.95,4.04,3.95h24.74c2.23,0,4.04-1.77,4.04-3.95h0c0-2.18-1.81-3.95-4.04-3.95h-24.74c-2.23,0-4.04,1.77-4.04,3.95Z"/>
      <path class="cls-14" d="m292.94,332.6h0c0,2.18,1.81,3.95,4.04,3.95h87.92c2.23,0,4.04-1.77,4.04-3.95h0c0-2.18-1.81-3.95-4.04-3.95h-87.92c-2.23,0-4.04,1.77-4.04,3.95Z"/>
      <path class="cls-16" d="m150.03,332.6h0c0,2.18,1.81,3.95,4.04,3.95h67.43c2.23,0,4.04-1.77,4.04-3.95h0c0-2.18-1.81-3.95-4.04-3.95h-67.43c-2.23,0-4.04,1.77-4.04,3.95Z"/>
      <path class="cls-13" d="m230.39,332.6h0c0,2.18,1.81,3.95,4.04,3.95h41c2.23,0,4.04-1.77,4.04-3.95h0c0-2.18-1.81-3.95-4.04-3.95h-41c-2.23,0-4.04,1.77-4.04,3.95Z"/>
      <path class="cls-16" d="m180.23,352.03h0c0,2.18,1.81,3.95,4.04,3.95h6.49c2.23,0,4.04-1.77,4.04-3.95h0c0-2.18-1.81-3.95-4.04-3.95h-6.49c-2.23,0-4.04,1.77-4.04,3.95Z"/>
      <path class="cls-13" d="m170.33,352.03c0-2.18-1.77-3.95-3.95-3.95h-31.01c-2.23,0-4.04,1.77-4.04,3.95s1.81,3.95,4.04,3.95h31.01c2.18,0,3.95-1.77,3.95-3.95h0Z"/>
      <path class="cls-16" d="m200.19,352.03h0c0,2.18,1.81,3.95,4.04,3.95h5.41c2.23,0,4.04-1.77,4.04-3.95h0c0-2.18-1.81-3.95-4.04-3.95h-5.41c-2.23,0-4.04,1.77-4.04,3.95Z"/>
      <path class="cls-14" d="m219.06,352.03h0c0,2.18,1.81,3.95,4.04,3.95h52.87c2.23,0,4.04-1.77,4.04-3.95h0c0-2.18-1.81-3.95-4.04-3.95h-52.87c-2.23,0-4.04,1.77-4.04,3.95Z"/>
      <path class="cls-13" d="m288.63,352.03h0c0,2.18,1.81,3.95,4.04,3.95h19.43c2.23,0,4.04-1.77,4.04-3.95h0c0-2.18-1.81-3.95-4.04-3.95h-19.43c-2.23,0-4.04,1.77-4.04,3.95Z"/>
      <path class="cls-16" d="m328,352.03h0c0,2.18,1.81,3.95,4.04,3.95h19.97c2.23,0,4.04-1.77,4.04-3.95h0c0-2.18-1.81-3.95-4.04-3.95h-19.97c-2.23,0-4.04,1.77-4.04,3.95Z"/>
      <path class="cls-16" d="m370.06,352.03h0c0,2.18,1.81,3.95,4.04,3.95h10.8c2.23,0,4.04-1.77,4.04-3.95h0c0-2.18-1.81-3.95-4.04-3.95h-10.8c-2.23,0-4.04,1.77-4.04,3.95Z"/>
      <path class="cls-13" d="m175.72,371.46h0c0,2.18,1.81,3.95,4.04,3.95h49.77c2.23,0,4.04-1.77,4.04-3.95h0c0-2.18-1.81-3.95-4.04-3.95h-49.77c-2.23,0-4.04,1.77-4.04,3.95Z"/>
      <path class="cls-13" d="m244.95,371.46h0c0,2.18,1.81,3.95,4.04,3.95h7.57c2.23,0,4.04-1.77,4.04-3.95h0c0-2.18-1.81-3.95-4.04-3.95h-7.57c-2.23,0-4.04,1.77-4.04,3.95Z"/>
      <path class="cls-16" d="m276.57,371.46h0c0,2.18,1.81,3.95,4.04,3.95h37.99c2.23,0,4.04-1.77,4.04-3.95h0c0-2.18-1.81-3.95-4.04-3.95h-37.99c-2.23,0-4.04,1.77-4.04,3.95Z"/>
      <path class="cls-14" d="m330.81,371.46h0c0,2.18,1.81,3.95,4.04,3.95h29.68c2.23,0,4.04-1.77,4.04-3.95h0c0-2.18-1.81-3.95-4.04-3.95h-29.68c-2.23,0-4.04,1.77-4.04,3.95Z"/>
      <path class="cls-16" d="m298.68,218.25h0c0,2.18,1.81,3.95,4.04,3.95h87.92c2.23,0,4.04-1.77,4.04-3.95h0c0-2.18-1.81-3.95-4.04-3.95h-87.92c-2.23,0-4.04,1.77-4.04,3.95Z"/>
      <path class="cls-14" d="m330.81,197.52h-10.75c-2.23,0-4.04,1.77-4.04,3.95h0c0,2.18,1.81,3.95,4.04,3.95h10.75c2.23,0,4.04-1.77,4.04-3.95h0c0-2.18-1.81-3.95-4.04-3.95Z"/>
      <path class="cls-13" d="m303.73,197.52h-36.5c-2.23,0-4.04,1.77-4.04,3.95h0c0,2.18,1.81,3.95,4.04,3.95h36.5c2.23,0,4.04-1.77,4.04-3.95h0c0-2.18-1.81-3.95-4.04-3.95Z"/>
      <path class="cls-13" d="m341.12,201.47h0c0,2.18,1.81,3.95,4.04,3.95h45.48c2.23,0,4.04-1.77,4.04-3.95h0c0-2.18-1.81-3.95-4.04-3.95h-45.48c-2.23,0-4.04,1.77-4.04,3.95Z"/>
      <path class="cls-14" d="m294.36,237.68h0c0,2.18,1.81,3.95,4.04,3.95h19.43c2.23,0,4.04-1.77,4.04-3.95h0c0-2.18-1.81-3.95-4.04-3.95h-19.43c-2.23,0-4.04,1.77-4.04,3.95Z"/>
      <path class="cls-16" d="m333.73,237.68h0c0,2.18,1.81,3.95,4.04,3.95h19.97c2.23,0,4.04-1.77,4.04-3.95h0c0-2.18-1.81-3.95-4.04-3.95h-19.97c-2.23,0-4.04,1.77-4.04,3.95Z"/>
      <path class="cls-14" d="m373.47,237.68h0c0,2.18,1.81,3.95,4.04,3.95h14.71c2.23,0,4.04-1.77,4.04-3.95h0c0-2.18-1.81-3.95-4.04-3.95h-14.71c-2.23,0-4.04,1.77-4.04,3.95Z"/>
      <path class="cls-14" d="m312.86,257.11h0c0,2.18,1.81,3.95,4.04,3.95h22.67c2.23,0,4.04-1.77,4.04-3.95h0c0-2.18-1.81-3.95-4.04-3.95h-22.67c-2.23,0-4.04,1.77-4.04,3.95Z"/>
      <path class="cls-13" d="m250.68,257.11h0c0,2.18,1.81,3.95,4.04,3.95h7.57c2.23,0,4.04-1.77,4.04-3.95h0c0-2.18-1.81-3.95-4.04-3.95h-7.57c-2.23,0-4.04,1.77-4.04,3.95Z"/>
      <path class="cls-14" d="m273.87,257.11h0c0,2.18,1.81,3.95,4.04,3.95h16.73c2.23,0,4.04-1.77,4.04-3.95h0c0-2.18-1.81-3.95-4.04-3.95h-16.73c-2.23,0-4.04,1.77-4.04,3.95Z"/>
      <path class="cls-13" d="m358.54,257.11h0c0,2.18,1.81,3.95,4.04,3.95h29.68c2.23,0,4.04-1.77,4.04-3.95h0c0-2.18-1.81-3.95-4.04-3.95h-29.68c-2.23,0-4.04,1.77-4.04,3.95Z"/>
    </g>
    <g>
      <path class="cls-13" d="m249.01,210.49c-.46,0-.93-.16-1.3-.5l-9.61-8.69,9.54-9.61c.74-.74,1.95-.76,2.7-.04.76.72.78,1.9.04,2.64l-6.81,6.86,6.73,6.08c.78.7.82,1.88.11,2.64-.38.4-.89.6-1.41.6Z"/>
      <path class="cls-13" d="m260.6,210.49c-.46,0-.93-.16-1.3-.5l-9.61-8.69,9.54-9.61c.74-.74,1.95-.76,2.7-.04.76.72.78,1.9.04,2.64l-6.81,6.86,6.73,6.08c.78.7.82,1.88.11,2.64-.38.4-.89.6-1.41.6Z"/>
      <path class="cls-13" d="m386.22,381.67c-.52,0-1.03-.2-1.41-.6-.72-.76-.67-1.94.11-2.64l6.73-6.08-6.81-6.86c-.73-.74-.72-1.92.04-2.64.76-.72,1.97-.7,2.7.04l9.54,9.61-9.61,8.68c-.37.33-.83.5-1.3.5Z"/>
      <path class="cls-13" d="m374.63,381.67c-.52,0-1.03-.2-1.41-.6-.72-.76-.67-1.94.11-2.64l6.73-6.08-6.81-6.86c-.73-.74-.72-1.92.04-2.64.76-.72,1.97-.7,2.7.04l9.54,9.61-9.61,8.68c-.37.33-.83.5-1.3.5Z"/>
    </g>
  </g>
  <g>
    <path class="cls-11" d="m191.81,2.82c-5.3,1.53-10.55,3.75-14.51,7.59-3.95,3.84-6.41,9.56-5.23,14.94,1.64,7.51,9.34,11.93,16.56,14.57,17.36,6.36,37.01,7.78,54.25,1.1,9.89-3.83,22.16-16.58,12.57-27.09-8.04-8.8-25.73-12.63-36.91-13.63-8.96-.8-18.07.02-26.72,2.52Z"/>
    <g>
      <path class="cls-15" d="m189.96,27h-2.23l-.83,4.73h-2.11l.83-4.73h-2.62v-1.99h2.97l.58-3.3h-2.68v-1.99h3.03l.84-4.8h2.1l-.84,4.8h2.24l.84-4.8h2.11l-.84,4.8h2.53v1.99h-2.89l-.58,3.3h2.58v1.99h-2.93l-.83,4.73h-2.11l.83-4.73Zm-1.88-1.99h2.23l.58-3.3h-2.24l-.57,3.3Z"/>
      <path class="cls-15" d="m208.55,27.33c0-.65-.23-1.16-.69-1.51-.46-.35-1.29-.72-2.49-1.11-1.2-.39-2.15-.77-2.85-1.15-1.91-1.03-2.86-2.42-2.86-4.17,0-.91.26-1.72.77-2.43.51-.71,1.25-1.27,2.2-1.67.96-.4,2.03-.6,3.23-.6s2.27.22,3.21.65c.94.43,1.67,1.05,2.19,1.84.52.79.78,1.69.78,2.7h-3.46c0-.77-.24-1.37-.73-1.79-.48-.43-1.16-.64-2.04-.64s-1.5.18-1.97.54c-.47.36-.7.83-.7,1.41,0,.55.28,1,.83,1.37.55.37,1.36.72,2.43,1.04,1.97.59,3.4,1.33,4.3,2.2.9.88,1.35,1.97,1.35,3.28,0,1.45-.55,2.6-1.65,3.42-1.1.83-2.58,1.24-4.44,1.24-1.29,0-2.47-.24-3.53-.71-1.06-.47-1.87-1.12-2.43-1.94-.56-.82-.84-1.78-.84-2.86h3.47c0,1.85,1.11,2.78,3.32,2.78.82,0,1.47-.17,1.93-.5.46-.33.69-.8.69-1.4Z"/>
      <path class="cls-15" d="m229.15,23.71c0,1.57-.25,2.93-.76,4.09-.51,1.16-1.21,2.09-2.11,2.79l2.79,2.19-2.2,1.95-3.58-2.87c-.41.07-.83.1-1.27.1-1.39,0-2.63-.34-3.73-1-1.09-.67-1.94-1.63-2.54-2.87-.6-1.24-.9-2.67-.91-4.29v-.83c0-1.65.3-3.11.89-4.37.6-1.26,1.44-2.22,2.53-2.9,1.09-.67,2.33-1.01,3.73-1.01s2.64.34,3.73,1.01c1.09.67,1.93,1.64,2.53,2.9.6,1.26.89,2.71.89,4.36v.75Zm-3.51-.76c0-1.76-.32-3.1-.95-4.02-.63-.92-1.53-1.37-2.7-1.37s-2.06.45-2.69,1.36c-.63.9-.95,2.23-.96,3.98v.82c0,1.72.32,3.05.95,3.99.63.95,1.54,1.42,2.72,1.42s2.05-.46,2.68-1.37c.62-.91.94-2.24.95-3.99v-.82Z"/>
      <path class="cls-15" d="m236.15,28.95h7.35v2.78h-10.81V14.93h3.46v14.02Z"/>
    </g>
  </g>
</svg>