<?xml version="1.0" encoding="UTF-8"?>
<svg xmlns="http://www.w3.org/2000/svg" viewBox="0 0 263.99 393.57">
  <defs>
    <style>
      .cls-1 {
        fill: #3c7ee3;
      }

      .cls-2 {
        fill: #f0f0f0;
      }

      .cls-3, .cls-4, .cls-5, .cls-6 {
        fill: #fff;
      }

      .cls-7 {
        fill: #37474f;
      }

      .cls-8 {
        fill: #c0daff;
      }

      .cls-9 {
        fill: #455a64;
      }

      .cls-10, .cls-11, .cls-5 {
        opacity: .2;
      }

      .cls-4, .cls-12 {
        opacity: .1;
      }

      .cls-13 {
        fill: #f28f8f;
      }

      .cls-14 {
        fill: #e0e0e0;
      }

      .cls-11 {
        fill: #777;
      }

      .cls-15 {
        opacity: .3;
      }

      .cls-6 {
        opacity: .05;
      }

      .cls-16 {
        fill: #263238;
      }

      .cls-17 {
        fill: #ffa8a7;
      }
    </style>
  </defs>
  <g id="Floor">
    <ellipse class="cls-11" cx="167.6" cy="348.93" rx="82.7" ry="44.64"/>
  </g>
  <g id="Clouds">
    <path class="cls-8" d="m58.81,7.12c-4.68,2.7-8.71,8.14-10.65,13.77-1.07.1-2.25.49-3.48,1.2-.25.14-.5.3-.75.47-3.94,2.64-7.24,7.94-8.01,12.85-.24,1.52-.22,2.85,0,3.99.04.21-.11.53-.32.65l-4.82,2.78c-2.11,1.22-3.8,4.16-3.8,6.58,0,2.42,1.72,3.39,3.82,2.18l47.12-27.21c2.11-1.22,3.8-4.16,3.8-6.58,0-2.42-1.72-3.39-3.82-2.18l-7.72,4.46c-.24.14-.4-.05-.31-.34.71-2.37,1.03-4.75.85-6.95-.51-6.38-5.23-9-11.03-6.13-.29.15-.59.3-.88.47Z"/>
    <path class="cls-8" d="m21.98,1.12c-3.23,1.86-6.01,5.61-7.35,9.5-.74.07-1.55.34-2.4.83-.17.1-.34.21-.52.32-2.72,1.82-5,5.48-5.53,8.87-.16,1.05-.15,1.97,0,2.75.03.15-.08.36-.22.45l-3.32,1.92C1.17,26.61,0,28.64,0,30.31c0,1.67,1.19,2.34,2.64,1.5L35.17,13.03c1.45-.84,2.63-2.87,2.62-4.54,0-1.67-1.19-2.34-2.64-1.5l-5.33,3.08c-.16.09-.27-.03-.21-.24.49-1.64.71-3.28.59-4.8-.35-4.4-3.61-6.21-7.62-4.23-.2.1-.41.21-.61.32Z"/>
  </g>
  <g id="Character">
    <g>
      <g>
        <g>
          <path class="cls-1" d="m121.33,65.88c.46-.26.83-.05.83.48l.02,5.61c0,.53-.37,1.17-.83,1.44-.46.27-.84.05-.84-.48l-.02-5.61c0-.53.37-1.17.83-1.44Z"/>
          <path class="cls-1" d="m110.63,76.54c.24-.14.47-.16.64-.03l3.15,2.48c.3.24.25.87-.1,1.41-.16.24-.35.42-.54.53-.24.14-.47.16-.64.02l-3.15-2.48c-.3-.24-.25-.87.1-1.41.16-.24.35-.43.53-.53Z"/>
          <path class="cls-1" d="m106.92,83.78c.14-.08.28-.12.42-.11l4.23.37c.4.03.54.54.31,1.13-.15.4-.43.73-.72.89-.14.08-.29.12-.41.11l-4.24-.36c-.4-.04-.54-.54-.31-1.14.15-.4.43-.73.72-.9Z"/>
          <path class="cls-1" d="m111.2,97.69c.29-.17.57-.16.72.06.23.33.1.99-.3,1.48l-4.22,5.25c-.13.16-.27.29-.41.37-.29.17-.57.16-.72-.06-.23-.33-.1-.99.3-1.48l4.22-5.25c.13-.16.27-.29.41-.37Z"/>
          <path class="cls-1" d="m109.79,94.08c.4-.23.75-.1.82.32.08.48-.22,1.15-.67,1.5l-4.8,3.75c-.05.04-.1.07-.15.1-.4.23-.75.1-.82-.32-.08-.47.22-1.15.67-1.5l4.81-3.75s.1-.07.15-.1Z"/>
          <path class="cls-1" d="m132.05,64.18c.19-.11.38-.14.54-.08.35.13.4.71.11,1.29l-3.13,6.11c-.16.32-.4.58-.64.71-.19.11-.38.14-.54.09-.35-.14-.4-.71-.11-1.29l3.13-6.11c.16-.32.4-.57.64-.71Z"/>
          <path class="cls-1" d="m127.03,63.75c.09-.05.19-.09.29-.11.43-.07.66.35.5.94l-1.65,6.23c-.12.46-.44.89-.78,1.08-.1.06-.19.09-.29.11-.43.07-.66-.35-.5-.94l1.65-6.23c.12-.46.44-.89.78-1.08Z"/>
        </g>
        <g class="cls-10">
          <path d="m121.33,65.88c.46-.26.83-.05.83.48l.02,5.61c0,.53-.37,1.17-.83,1.44-.46.27-.84.05-.84-.48l-.02-5.61c0-.53.37-1.17.83-1.44Z"/>
          <path d="m110.63,76.54c.24-.14.47-.16.64-.03l3.15,2.48c.3.24.25.87-.1,1.41-.16.24-.35.42-.54.53-.24.14-.47.16-.64.02l-3.15-2.48c-.3-.24-.25-.87.1-1.41.16-.24.35-.43.53-.53Z"/>
          <path d="m106.92,83.78c.14-.08.28-.12.42-.11l4.23.37c.4.03.54.54.31,1.13-.15.4-.43.73-.72.89-.14.08-.29.12-.41.11l-4.24-.36c-.4-.04-.54-.54-.31-1.14.15-.4.43-.73.72-.9Z"/>
          <path d="m111.2,97.69c.29-.17.57-.16.72.06.23.33.1.99-.3,1.48l-4.22,5.25c-.13.16-.27.29-.41.37-.29.17-.57.16-.72-.06-.23-.33-.1-.99.3-1.48l4.22-5.25c.13-.16.27-.29.41-.37Z"/>
          <path d="m109.79,94.08c.4-.23.75-.1.82.32.08.48-.22,1.15-.67,1.5l-4.8,3.75c-.05.04-.1.07-.15.1-.4.23-.75.1-.82-.32-.08-.47.22-1.15.67-1.5l4.81-3.75s.1-.07.15-.1Z"/>
          <path d="m132.05,64.18c.19-.11.38-.14.54-.08.35.13.4.71.11,1.29l-3.13,6.11c-.16.32-.4.58-.64.71-.19.11-.38.14-.54.09-.35-.14-.4-.71-.11-1.29l3.13-6.11c.16-.32.4-.57.64-.71Z"/>
          <path d="m127.03,63.75c.09-.05.19-.09.29-.11.43-.07.66.35.5.94l-1.65,6.23c-.12.46-.44.89-.78,1.08-.1.06-.19.09-.29.11-.43.07-.66-.35-.5-.94l1.65-6.23c.12-.46.44-.89.78-1.08Z"/>
        </g>
      </g>
      <g>
        <g>
          <path class="cls-9" d="m123.94,345.34c2.4,2.59,6.04,3.68,9.53,3.59,3.48-.09,6.85-1.25,10.08-2.6,3.22-1.36,7.27-5.16,10.75-5.09,3.22.07,7.02-.36,10.19-.71.31-7.21-1.45-14.15-1.45-14.15l-16.27-.44c-4.39,6.16-12.93,11.29-19.39,13.22-2.07.62-3.61,2.34-4.01,4.38,0,.04,0,.07.01.11.23,1.07.56,1.7.56,1.7Z"/>
          <path class="cls-7" d="m154.29,341.24c-3.48-.07-7.53,3.73-10.75,5.09-3.22,1.36-6.59,2.51-10.08,2.6-3.48.09-7.12-1-9.53-3.59,0,0-.33-.63-.56-1.7,0-.04,0-.07-.01-.11-.14.71-.15,1.46.01,2.22.23,1.07.56,1.7.56,1.7,2.4,2.59,6.04,3.68,9.53,3.59,3.48-.09,6.85-1.25,10.08-2.6,3.22-1.36,7.27-5.16,10.75-5.09,3.58.07,6.68-.22,10.03-.59.08-.74.13-1.49.16-2.24-3.17.36-6.97.78-10.19.71Z"/>
        </g>
        <g>
          <path class="cls-7" d="m197.05,346.37c-.01,1.7-.13,3.4-.49,5.06-.63,2.9-2.09,5.74-4.51,7.37-2.09,1.41-4.67,1.8-7.17,1.95-2.21.14-4.49.11-6.56-.69-1.57-.61-3.02-1.74-3.84-3.21,0,.03,0,.06.01.09.49,2.21,2.35,3.91,4.42,4.71,2.07.8,4.35.83,6.56.69,2.5-.15,5.08-.55,7.17-1.95,2.42-1.63,3.88-4.47,4.51-7.37.36-1.66.48-3.35.49-5.06.02-2.35.97-4.57,2.65-6.18.41-.39.8-.8,1.15-1.22.52-.61.76-1.4.7-2.21-.02-.31-.06-.62-.09-.92-.6.72-2,2.42-2.36,2.76-1.67,1.61-2.63,3.83-2.65,6.18Z"/>
          <path class="cls-9" d="m184.6,328.76c.63,3.43.02,7.02-1.27,10.25-1.28,3.23-3.22,6.15-5.29,8.92-1,1.33-2.04,2.64-2.77,4.14-.72,1.47-1.12,3.17-.79,4.78.82,1.48,2.26,2.6,3.84,3.21,2.07.8,4.35.83,6.56.69,2.5-.15,5.08-.55,7.17-1.95,2.42-1.63,3.88-4.47,4.51-7.37.36-1.66.48-3.35.49-5.06.02-2.35.97-4.57,2.65-6.18.35-.34,1.76-2.05,2.36-2.76-.53-4.19-2.43-7.15-2.43-7.15l-15.01-1.52Z"/>
        </g>
        <g>
          <path class="cls-7" d="m140.96,179.73l1.23,86.06,3.96,60.24c10.03,6.5,17.3,1.18,17.3,1.18,3.81-28.54,4.32-46.09,2.25-57.97l1.9-46.44,5.71,48.22,9.6,59.1c10.29,6.84,17.55,0,17.55,0,0-21.88,1.9-46.34-3.98-62.12,4.15-48.75-2.77-87.39-2.77-87.39l-52.76-.89Z"/>
          <path class="cls-16" d="m165.5,205.07l2.1,17.73-.89,21.75-3.87-35.76c-8.95-3.59-10.12-8.64-10.12-8.64,5.84,4.39,12.78,4.91,12.78,4.91Z"/>
        </g>
        <g>
          <g>
            <path class="cls-9" d="m148.57,80.25l-2.29-1.2s-.04-.02-.06-.03l-.09-.05h0c-.36-.15-.8-.16-1.19.06l-20.49,11.83c-.82.47-1.32,1.35-1.32,2.29v9.92c0,.45.22.82.54,1.06h0s.04.03.04.03c.08.05.16.1.25.13l2.22,1.18-.1-1.81,19.53-11.28c.82-.47,1.32-1.35,1.32-2.29v-8.64l1.64-1.22Z"/>
            <path class="cls-9" d="m147.92,93.61l-20.49,11.83c-.88.51-1.98-.13-1.98-1.15v-9.92c0-.94.5-1.82,1.32-2.29l20.49-11.83c.88-.51,1.98.13,1.98,1.14v9.92c0,.94-.5,1.82-1.32,2.29Z"/>
            <path class="cls-1" d="m126.76,94.38c0-.47.25-.91.66-1.14l20.49-11.83v9.92c0,.47-.25.91-.66,1.15l-20.49,11.83v-9.92Z"/>
          </g>
          <g>
            <path class="cls-17" d="m139.01,109.04c.28-.65.73-1.21,1.33-1.59,1.73-1.08,3.08-2.74,3.78-4.66.73-2,.73-4.18.94-6.3.21-2.12.7-4.34,2.16-5.89-3.64-1.47-5.12,1.85-6.44,7.14l-12.19,7.04.17.4c.34.8.33,1.7-.05,2.49l-3.55,7.2c6.29,4.21,11.98,1.35,11.98,1.35.61-2.78,1.42-6.16,1.87-7.17Z"/>
            <g>
              <path class="cls-14" d="m136.55,123.64c.64-2.59,1.41-5.96,1.91-9.04-4.48,1.61-9.7.99-13.69-1.62-1.44,2.43-2.73,4.96-3.87,7.58,4.33,3.42,10.35,4.61,15.65,3.07Z"/>
              <path class="cls-2" d="m135.42,127.96s.5-1.78,1.13-4.32c-5.3,1.54-11.32.34-15.65-3.07-3.48,7.95-5.58,16.62-6.32,25.18-.22,2.54-.3,5.14.38,7.6.68,2.46,2.24,4.78,4.56,5.84,3.23,1.48,7.1.2,10.04-1.81,5.51-3.78,8.97-9.81,12.25-15.63l8.88-31.68c-5.28.56-9.58,3.5-15.25,17.9Z"/>
            </g>
            <path class="cls-12" d="m135.42,127.96c-2.08,7.35-5.33,19.1-5.33,19.1,7.4-7.51,5.33-19.1,5.33-19.1Z"/>
            <path class="cls-12" d="m149.36,114.76c-2.69,1.83-4.98,4.26-6.63,7.07-2.91,4.96-3.75,10.82-4.55,16.52-.55,3.99-1.11,7.98-1.66,11.96,1.96-2.7,3.64-5.66,5.28-8.57l7.56-26.98Z"/>
          </g>
        </g>
        <g>
          <path class="cls-2" d="m160.13,109.07l-9.46,1c-7.75,6.83-11.75,21.17-10.08,37s.37,32.67.37,32.67c21,15.33,49.42,4.2,52.76.86l-2.69-19.45c-.18-2.19.2-4.38,1.06-6.39,1.98-4.61,5.52-13.67,6-20.69.67-9.83-3.83-18.08-3.83-18.08l-13.75-6-20.37-.92Z"/>
          <path class="cls-12" d="m192.09,154.76c1.75-4.06,4.69-11.57,5.7-18.1-1.95,1.17-4.02,2.33-4.83,4.28-2.59,6.22-3.26,13.22-1.94,19.81-.1-2.05.26-4.1,1.07-5.99Z"/>
        </g>
        <g>
          <g>
            <path class="cls-1" d="m157.5,122.86c-7.91,18.21-7.79,36.96-7.79,36.96l3.89,8.38,6.11-8c-.87-18.12.73-36.79.73-36.79l-2.94-.54Z"/>
            <path class="cls-1" d="m157.17,115.98c-.29,3.67.33,6.88.33,6.88,1.04.71,2.94.54,2.94.54,2.52-1.96,4.73-5.71,4.73-5.71l-4.73-1.71h-3.27Z"/>
          </g>
          <g>
            <g>
              <path class="cls-14" d="m160.45,115.98c4.07,1.5,7.7,8.75,7.7,8.75,10.7-9.08,12.36-14.75,12.36-14.75-2.75-3.92-5.75-4.54-5.75-4.54l-14.31,10.54Z"/>
              <path class="cls-14" d="m160.45,115.98c-3.11.08-5.86,4.42-5.86,4.42-.5-7.58,5.86-13.42,5.86-13.42v9Z"/>
            </g>
            <g>
              <path class="cls-13" d="m175,96.95l-14.56,5.2v5.39c3.27-.63,6.52-1.47,9.23-3.35,2.51-1.74,4.39-4.34,5.33-7.24Z"/>
              <path class="cls-17" d="m175,96.95c-.94,2.9-2.82,5.5-5.33,7.24-2.71,1.88-5.96,2.72-9.23,3.35v8.44s15.39-6.92,15.39-10.17v-9.17l-.83.3Z"/>
            </g>
          </g>
          <g>
            <path class="cls-16" d="m146.96,75.6c-2.04.07-4.11-.6-5.72-1.86-.92-.72-1.69-1.63-2.26-2.65-.49-.88.32-1.92,1.31-1.74,1.12.21,2.28.22,3.38.04-2.59-3.37-3.74-7.73-3.14-11.91.14-1,1.24-1.57,2.15-1.13,4.61,2.27,9.84,3.39,14.96,3.02,2.75-.19,5.46-.78,8.2-.99,2.75-.21,5.61-.02,8.07,1.23,2.45,1.25,4.41,3.74,4.41,6.5.65-.93,1.6-1.43,2.73-1.58,1.13-.15,2.31.2,3.18.94-1.59.87-3.14,1.75-4.73,2.62,1.63-.58,3.68.69,4.49,2.22s.85,3.33.87,5.06c.03,2.3.06,4.61-.31,6.88s-1.16,4.51-2.61,6.3c-1.22,1.5-2.89,2.63-4.73,3.21-2.48.78-5.2.54-7.68-.25-2.48-.79-4.76-2.1-6.97-3.48-5.52-3.46-10.81-8.02-15.58-12.44Z"/>
            <path class="cls-17" d="m146.61,71.02c-1.59,9.46-.53,19.34,3.03,28.25.83,2.07,1.9,4.21,3.84,5.32,2.03,1.16,4.54.92,6.85.57,3.72-.56,7.47-1.33,10.82-3.04,3.35-1.72,6.29-4.5,7.49-8.07,2.46.59,5.04-.55,6.56-2.57,1.52-2.02,2.07-4.63,2.13-7.16.04-1.62-.3-3.53-1.75-4.25-1.35-.66-2.98.08-4.15,1.03-1.92,1.55-3.35,3.7-4.04,6.07-1.07-3.95-2.74-7.76-3.81-11.71-.42-1.55-.94-3.25-2.3-4.11-1.66-1.06-3.82-.45-5.73.02-5.83,1.44-13.2,1.45-18.93-.34Z"/>
            <polygon class="cls-13" points="158.12 83.01 153.5 90.78 159.01 91.81 158.12 83.01"/>
            <path class="cls-13" d="m164.31,94.49c-1.39.68-2.79,1.36-4.18,2.03.61.95,2.14,1.36,3.17.9,1.03-.46,1.32-1.85,1.01-2.94Z"/>
            <path class="cls-15" d="m164.31,94.49c-1.39.68-2.79,1.36-4.18,2.03.61.95,2.14,1.36,3.17.9,1.03-.46,1.32-1.85,1.01-2.94Z"/>
            <path class="cls-13" d="m161.85,97.56c.5.09,1.02.06,1.45-.14.81-.36,1.15-1.3,1.12-2.2-.59,0-1.19.2-1.65.57-.53.43-.85,1.09-.92,1.77Z"/>
            <path class="cls-16" d="m166.09,83.32c.09.87-.55,1.64-1.41,1.73-.87.09-1.64-.55-1.73-1.41-.09-.87.55-1.64,1.41-1.73.87-.09,1.64.55,1.73,1.41Z"/>
            <path class="cls-16" d="m152.83,84.14c.09.87-.55,1.64-1.41,1.73-.87.09-1.64-.55-1.73-1.41-.09-.87.55-1.64,1.41-1.73.87-.09,1.64.55,1.73,1.41Z"/>
            <path class="cls-16" d="m150.67,78.03c-1.08.92-2.16,1.84-3.24,2.76-.43-.79-.2-1.9.43-2.54.64-.64,2.02-.65,2.81-.23Z"/>
            <path class="cls-16" d="m164.12,76.48c1.24.69,2.49,1.37,3.73,2.06.26-.86-.18-1.9-.93-2.4-.75-.5-2.11-.24-2.8.34Z"/>
          </g>
        </g>
        <g>
          <path class="cls-17" d="m226.42,150.15l5.02-2.48c1.56-.77,2.86-1.99,3.74-3.49l1.57-2.7c1.08-1.85,2.69-3.32,4.6-4.28,4.88-2.44,7.98-5.3,7.98-5.3h0c1.04,1.67.79,3.87-.64,5.22-1.53,1.44-3.27,2.62-3.27,2.62l2.41.61c1.74.44,3.57.33,5.25-.32l6.88-2.67c.87-.34,1.77.4,1.61,1.32-.52,3.1-2.03,6.25-3.41,8.63-1.49,2.58-4.06,4.36-6.99,4.91-3.51.66-6.91,1.18-8.85,1.45-1.11.16-2.18.49-3.18.99l-7.38,3.66-5.33-8.17Z"/>
          <path class="cls-2" d="m221.64,157.89c-.88-2.05-1.17-4.34-.88-6.55l-9.42,4.48s-2.87-11.38-4-20.87-.87-15.88-13.08-18.96l-1.29,24.96s1.5,30.5,10.25,33.88c7.25,2.79,12.35-4.1,23.41-11.23-2.19-1.34-3.97-3.34-4.98-5.7Z"/>
          <path class="cls-12" d="m205,162.07c.33-1.42,2.67-4.67,6.33-6.25,0,0-.28-1.1-.69-2.9-1.9.93-6.57,3.81-5.64,9.15Z"/>
          <path class="cls-14" d="m229.21,147.32l-8.46,4.02c-.29,2.21,0,4.5.88,6.55,1.01,2.36,2.79,4.36,4.98,5.7,2.29-1.48,4.84-2.97,7.72-4.39,0,0-4.5-3.62-5.12-11.88Z"/>
        </g>
      </g>
    </g>
  </g>
  <g id="Speech_bubble" data-name="Speech bubble">
    <g>
      <path class="cls-1" d="m263.86,25.16c0-.5-.27-.9-.65-1.11h0s-5.77-3.21-5.77-3.21c0,0-.02-.01-.03-.02h-.02s0,0,0,0c-.37-.2-.83-.22-1.25.02l-39.52,22.82c-.72.41-1.26,1.04-1.59,1.77-.22.49-.34,1.03-.34,1.58l.04,14.69-13.68,14.14c-1.23,1.27-1.36,3.18-.41,3.48l5.46,3.01c.17.19.42.29.75.25l7.94-.97.03,10.79c0,.49.26.88.63,1.1h0s0,0,0,0c0,0,.01,0,.02.01l5.74,3.19s.05.03.08.05c.02.01.04.02.06.03.36.16.78.18,1.17-.05l39.52-22.82c1.2-.69,1.93-1.97,1.93-3.35l-.13-45.4Zm-42.36,22.45s-.09.1-.13.15c.04-.05.08-.1.13-.15Zm-.37.48s-.06.09-.09.14c.03-.05.06-.09.09-.14Zm-.55,1.3c-.01.05-.02.11-.03.16,0-.06.02-.11.03-.16Zm1.21-2.06s.09-.08.13-.12c-.05.04-.09.08-.13.12Z"/>
      <path class="cls-3" d="m250.27,39.38c-.15.09-.31.2-.46.36-.11.12-.18.26-.23.41-.46.88-.79,1.78-1.1,2.68-.33.81-.64,1.62-.92,2.44-.07.15-.14.31-.17.46-.1.2-.17.41-.22.61-.18.45-.35.91-.53,1.36-.06.13-.13.26-.18.39-.18.39-.33.78-.44,1.18-.13.48-.1.83.11,1.06.42.46.98.65,1.54.85.05.02.1.03.16.05.16.05.32.09.48.13.28.14.55.27.83.41.05.04.11.07.16.11.06.06.11.12.16.19.07.1.1.16.12.23.03.11.04.24,0,.41-.05.2-.09.41-.14.61-.12.34-.24.68-.37,1.02-.06.15-.12.29-.18.44-.19.48-.38.96-.57,1.44-.21.47-.37.86-.52,1.26-.14.28-.28.56-.38.85-.07.14-.14.29-.2.43-.17.36-.35.72-.52,1.09-.05.11-.11.21-.16.32-.18.35-.37.7-.55,1.05-.07.13-.14.27-.21.4-.22.38-.43.76-.65,1.14-.06.1-.11.19-.17.29-.24.39-.48.78-.72,1.17-.07.1-.13.2-.2.3-.5.73-1,1.46-1.51,2.19-.2.27-.4.54-.59.81-.06.08-.11.15-.17.22-.65.82-1.24,1.57-1.84,2.32-.21.23-.41.45-.62.68-.16.18-.32.31-.47.4-.27.16-.52.16-.75.04-.15-.08-.3-.16-.45-.24,0-.07-.06-.08-.11-.09-.65-.53-1.3-1.06-2.04-1.46-.25-.14-.53-.22-.89-.01-.07.04-.15.1-.23.17-.28.25-.55.52-.77.87-.07.05-.12.12-.16.22-.55.77-1.16,1.46-1.73,2.19-.53.6-1.05,1.23-1.56,1.87-.29.33-.57.67-.83,1.03-.32.36-.62.74-.9,1.15-.11.14-.23.27-.31.44-.38.44-.39.84-.36,1.23-.02.29.03.54.06.8.04.34.09.67.21.95.03.23.1.44.18.62.03.06.06.12.09.17,0,.05.02.1.03.14.03.07.07.12.12.16.06.17.16.27.29.33.1.14.22.22.36.29.08.04.17.07.25.1.09.03.13.03.17.05.07.03.14.06.21.08.04,0,.07.02.1.03.11.02.22.03.35.02.04.03.1.05.17.02.14.03.28.05.44,0,.15.03.31.02.48-.01.16,0,.31,0,.48-.04.14-.02.22-.03.29-.03.22-.02.44-.07.67-.15.03,0,.07-.01.1-.02.12-.02.18-.03.25-.06.05-.01.11-.04.16-.07.19-.06.22-.08.26-.09.24-.08.48-.17.72-.28.07-.03.14-.07.21-.1.05-.03.1-.05.15-.08.14-.08.28-.17.41-.27.29-.18.38-.24.47-.3.17-.12.34-.25.51-.4.15-.1.31-.2.46-.32.06-.05.12-.1.18-.16.03-.03.06-.05.09-.08.09-.07.17-.14.25-.21.25-.22.5-.45.74-.71.19-.15.37-.33.54-.52.06-.04.11-.1.15-.17.38-.34.68-.64.96-.97.26-.23.51-.49.76-.76.19-.18.39-.36.56-.58.1-.11.2-.21.3-.32.09-.06.16-.15.23-.26.05-.03.08-.07.11-.12.06-.05.12-.11.17-.17.09-.1.18-.2.26-.31.18-.18.35-.37.51-.57.05-.07.11-.13.16-.2.05-.07.11-.13.16-.19.31-.36.61-.71.89-1.11.15-.14.27-.31.38-.49.19-.2.35-.44.51-.67.26-.3.49-.64.71-.98.14-.18.2-.27.26-.36.06-.08.13-.17.19-.26.12-.18.24-.36.35-.54.08-.1.16-.21.23-.31.07-.11.14-.22.2-.34.15-.18.28-.38.39-.6.19-.25.36-.53.52-.8.06-.07.12-.15.17-.23.02-.04.05-.08.07-.12.02-.04.05-.09.07-.13.06-.08.11-.16.16-.24.16-.25.31-.5.45-.76.09-.15.15-.24.2-.33.21-.36.42-.73.63-1.09.08-.11.15-.22.2-.35.16-.26.32-.52.46-.79.05-.09.09-.18.14-.27.12-.19.17-.29.22-.39.18-.33.36-.66.54-.99.1-.19.19-.37.29-.56.14-.26.29-.51.39-.79.43-.79.8-1.6,1.15-2.41.05-.12.11-.25.16-.37.15-.3.28-.59.39-.9.41-.93.78-1.87,1.09-2.81.03-.08.06-.16.09-.24.21-.55.39-1.11.52-1.65.23-.68.4-1.35.58-2.02.06-.22.11-.45.17-.67.04-.08.07-.15.06-.22.02-.05.03-.1.05-.15.03-.1.05-.2.08-.3.25-.84.45-1.67.58-2.49,0-.04,0-.09.01-.13.04-.08.04-.15.04-.22,0-.04.01-.09.02-.13.01-.08.02-.16.03-.23,0-.08.01-.16.02-.24.07-.37.1-.73.09-1.07,0-.15,0-.29,0-.44,0-.11.01-.23-.03-.31,0-.06-.01-.11-.02-.17,0-.34-.06-.65-.16-.92-.08-.48-.23-.9-.42-1.28-.28-.68-.6-1.31-1.07-1.76-.14-.18-.3-.34-.51-.41-.03-.03-.05-.09-.11-.07-.16-.13-.36-.18-.58-.18-.57-.07-1.2.11-1.84.32-.07.03-.14.06-.21.08-.21.07-.36.11-.52.2-.03.02-.07.04-.1.06-.16.08-.32.15-.47.24Z"/>
      <path class="cls-12" d="m220.6,95.62c0,.48.26.87.61,1.09l-5.74-3.19s-.01,0-.02-.01h0s0,0,0,0c-.37-.22-.63-.61-.63-1.1l-.03-10.79,5.78-.7.04,14.71Z"/>
      <path class="cls-5" d="m216.62,43.66l39.52-22.82c.41-.24.88-.21,1.25-.02h0s.02,0,.02,0c0,0,.02.01.03.02l5.77,3.21h0c-.37-.21-.85-.24-1.28,0l-39.52,22.82c-.75.43-1.32,1.1-1.64,1.87l-5.74-3.31c.33-.73.87-1.36,1.59-1.77Z"/>
      <path class="cls-4" d="m214.73,61.7l-.04-14.69c0-.55.12-1.09.34-1.58l5.74,3.31c-.19.46-.29.97-.29,1.48l.04,14.69-5.79-3.22h0Z"/>
      <path class="cls-6" d="m201.05,75.85l13.68-14.14,5.79,3.22h0l-13.68,14.14c-1.06,1.1-1.3,2.67-.74,3.27l-5.46-3.01c-.95-.3-.82-2.21.41-3.48Z"/>
    </g>
  </g>
</svg>