<svg width="203" height="161" viewBox="0 0 203 161" fill="none" xmlns="http://www.w3.org/2000/svg">
<path d="M199.173 34.3688C199.173 51.4169 155.409 65.2373 101.423 65.2373C47.4371 65.2373 3.67285 51.4169 3.67285 34.3688M199.173 34.3688C199.173 17.3206 155.409 3.50024 101.423 3.50024C47.4371 3.50024 3.67285 17.3206 3.67285 34.3688M199.173 34.3688V65.2373M3.67285 34.3688V65.2373M199.173 65.2373C199.173 82.2859 155.409 96.1058 101.423 96.1058C47.4371 96.1058 3.67285 82.2859 3.67285 65.2373M199.173 65.2373V96.1058M3.67285 65.2373V96.1058M199.173 96.1058C199.173 113.154 155.409 126.974 101.423 126.974C47.4371 126.974 3.67285 113.154 3.67285 96.1058M199.173 96.1058V126.974C199.173 144.023 155.409 157.843 101.423 157.843C47.4371 157.843 3.67285 144.023 3.67285 126.974V96.1058" stroke="#684DE3" stroke-width="6" stroke-linecap="round"/>
</svg>
