<svg width="182" height="182" viewBox="0 0 182 182" fill="none" xmlns="http://www.w3.org/2000/svg">
<path d="M90.8224 57.4224L56.6757 23.2755C50.7778 17.3776 41.2154 17.3776 35.3175 23.2755L29.9968 28.5961C24.0915 34.5015 24.1 44.0785 30.0158 49.9733L63.8088 83.6464M92.2013 112.196L126.09 146.086C131.988 151.983 141.55 151.983 147.448 146.086L152.788 140.746C158.686 134.848 158.686 125.286 152.788 119.388L119.52 86.1194M144.721 116.773L134.042 127.452M127.635 99.6861L116.956 110.365M76.3753 48.4264L65.696 59.1056M59.2885 31.3398L48.6094 42.019M117.761 35.6528L140.415 58.3066M145.979 23.678L152.39 30.089C158.288 35.9869 158.288 45.5493 152.39 51.4473L67.5449 136.292C65.887 137.95 63.8659 139.199 61.6416 139.941L30.5338 150.31C27.5821 151.294 24.774 148.486 25.7579 145.534L36.1272 114.426C36.8686 112.202 38.1178 110.181 39.7757 108.523L124.621 23.678C130.519 17.7801 140.081 17.7801 145.979 23.678Z" stroke="#684DE3" stroke-width="7" stroke-linecap="round"/>
</svg>
