<svg width="241" height="241" viewBox="0 0 241 241" fill="none" xmlns="http://www.w3.org/2000/svg">
<path d="M34.1084 190.287C34.1084 163.134 58.7699 145.219 89.1915 145.219C119.613 145.219 144.275 163.134 144.275 190.287M224.396 165.25C224.396 138.097 199.734 120.181 169.312 120.181C158.22 120.181 147.901 122.441 139.267 126.649M114.229 90.1361C114.229 103.964 103.02 115.174 89.1915 115.174C75.3636 115.174 64.1538 103.964 64.1538 90.1361C64.1538 76.3082 75.3636 65.0983 89.1915 65.0983C103.02 65.0983 114.229 76.3082 114.229 90.1361ZM194.35 65.0983C194.35 78.9263 183.14 90.1361 169.312 90.1361C155.485 90.1361 144.275 78.9263 144.275 65.0983C144.275 51.2704 155.485 40.0605 169.312 40.0605C183.14 40.0605 194.35 51.2704 194.35 65.0983Z" stroke="#684DE3" stroke-width="6" stroke-linecap="round"/>
</svg>
