<svg width="187" height="187" viewBox="0 0 187 187" fill="none" xmlns="http://www.w3.org/2000/svg">
<path d="M93.7958 163.478H91.4955C83.883 163.478 77.7124 157.31 77.7124 149.701C77.7124 145.404 75.7064 141.353 72.288 138.746L63.3865 131.96C58.3426 128.115 51.4977 127.626 45.9578 130.715L45.6546 130.884C38.298 134.985 29.0126 132.499 24.6913 125.272C20.1832 117.732 22.8014 107.959 30.4761 103.68L30.8707 103.46C35.943 100.633 39.0868 95.2814 39.0868 89.4764V83.0493C39.0868 77.2443 35.943 71.8932 30.8706 69.0652L30.4761 68.8452C22.8014 64.5666 20.1832 54.794 24.6913 47.254C29.0126 40.0267 38.298 37.541 45.6546 41.6422L46.8208 42.2924C51.955 45.1547 58.206 45.1546 63.3401 42.2922L69.555 38.8272C74.5912 36.0193 77.7124 30.7066 77.7124 24.9423C77.7124 16.1617 84.9216 9.04358 93.7057 9.04358C102.49 9.04358 109.699 16.1616 109.699 24.9422C109.699 30.7062 112.82 36.0189 117.857 38.8267L124.071 42.2917C129.204 45.1542 135.456 45.1543 140.589 42.2921L141.756 41.6422C149.112 37.541 158.397 40.0267 162.719 47.254C167.227 54.794 164.609 64.5666 156.934 68.8452L156.539 69.0652C151.467 71.8932 148.323 77.2443 148.323 83.0493V89.4764C148.323 95.2814 151.467 100.633 156.539 103.46L156.934 103.681C164.609 107.959 167.227 117.732 162.719 125.272C158.397 132.499 149.112 134.985 141.756 130.884L140.589 130.233C135.456 127.371 129.205 127.371 124.071 130.233L117.857 133.698C112.821 136.505 109.699 141.818 109.699 147.581C109.699 156.361 102.579 163.478 93.7958 163.478Z" stroke="#684DE3" stroke-width="7" stroke-linecap="round"/>
<path d="M119.092 86.2607C119.092 100.475 107.568 112 93.3522 112C79.1375 112 67.6138 100.475 67.6138 86.2607C67.6138 72.045 79.1375 60.5216 93.3522 60.5216C107.568 60.5216 119.092 72.045 119.092 86.2607Z" stroke="#684DE3" stroke-width="6" stroke-linecap="round"/>
</svg>
