<svg width="221" height="221" viewBox="0 0 221 221" fill="none" xmlns="http://www.w3.org/2000/svg">
<path d="M110.746 109.973V134.732M110.746 109.973L131.924 98.0608M110.746 109.973L89.5683 98.0608M184.105 68.7089L162.927 80.6214M184.105 68.7089V93.4676M184.105 68.7089L162.927 56.7963M58.5647 139.325L37.387 151.238M37.387 151.238L58.5647 163.151M37.387 151.238V126.479M37.387 68.7089L58.5647 80.6214M37.387 68.7089L58.5647 56.7963M37.387 68.7089V93.4676M162.927 139.325L184.105 151.238M184.105 151.238L162.927 163.151M184.105 151.238V126.479M110.746 27.4443V52.203M110.746 27.4443L89.5675 39.3569M110.746 27.4443L131.925 39.3569M110.746 167.744V192.502M110.746 192.502L131.924 180.59M110.746 192.502L89.5683 180.59" stroke="#684DE3" stroke-width="6" stroke-linecap="round"/>
</svg>
