<svg width="185" height="186" viewBox="0 0 185 186" fill="none" xmlns="http://www.w3.org/2000/svg">
<path d="M92.4905 71.7495L139.816 55.3675M92.4905 71.7495L45.1648 55.3675M92.4905 71.7495V140.554M139.816 8.04175H158.747C169.202 8.04175 177.677 16.5171 177.677 26.972V45.9023M139.816 178.414H158.747C169.202 178.414 177.677 169.939 177.677 159.484V140.554M45.1648 8.04175H26.2345C15.7796 8.04175 7.3042 16.5171 7.3042 26.972V45.9023M45.1648 178.414H26.2345C15.7796 178.414 7.3042 169.939 7.3042 159.484V140.554M98.6296 38.5421L136.49 51.5229C144.142 54.1463 149.281 61.3413 149.281 69.4299V111.897C149.281 119.305 144.96 126.033 138.221 129.113L100.361 146.421C95.3632 148.706 89.6178 148.706 84.6202 146.421L46.7595 129.113C40.0215 126.033 35.6996 119.305 35.6996 111.897V69.43C35.6996 61.3413 40.8389 54.1463 48.4904 51.5229L86.3514 38.5421C90.3306 37.1778 94.6504 37.1778 98.6296 38.5421Z" stroke="#684DE3" stroke-width="6" stroke-linecap="round"/>
</svg>
