<svg width="48" height="48" viewBox="0 0 48 48" fill="none" xmlns="http://www.w3.org/2000/svg">
<rect width="48" height="48" rx="24" fill="#684DE3"/>
<path d="M30.5261 9.21939C30.7408 8.71055 30.5032 8.12091 29.9823 7.93741C27.1368 6.93497 24.0641 6.72982 21.0995 7.35421C17.808 8.04745 14.8069 9.73013 12.4986 12.1768C10.1902 14.6234 8.68471 17.7172 8.1839 21.0434C7.68309 24.3697 8.21086 27.7695 9.6965 30.7874C11.1821 33.8053 13.5546 36.297 16.4961 37.9287C19.4376 39.5604 22.8075 40.2541 26.1543 39.9169C29.5011 39.5796 32.6649 38.2275 35.2217 36.0418C37.5245 34.0731 39.2359 31.5128 40.1769 28.6464C40.3491 28.1217 40.0268 27.5738 39.4926 27.4336L35.7727 26.4576C35.2385 26.3175 34.6963 26.6391 34.5067 27.1578C33.8797 28.8732 32.8199 30.4043 31.4231 31.5984C29.7722 33.0098 27.7293 33.8828 25.5682 34.1006C23.4071 34.3184 21.2311 33.8704 19.3318 32.8168C17.4324 31.7632 15.9005 30.1543 14.9412 28.2056C13.9819 26.2569 13.6411 24.0616 13.9645 21.9137C14.2879 19.7659 15.2599 17.7683 16.7505 16.1884C18.2411 14.6086 20.1789 13.5221 22.3042 13.0744C24.1024 12.6957 25.9621 12.7896 27.704 13.3389C28.2307 13.505 28.8163 13.2714 29.031 12.7626L30.5261 9.21939Z" fill="white"/>
<circle cx="27" cy="24" r="4" fill="white"/>
</svg>
