<svg width="200" height="200" viewBox="0 0 200 200" fill="none" xmlns="http://www.w3.org/2000/svg">
<path d="M108.67 162.135C102.359 162.135 97.0077 166.259 95.1409 171.969M108.67 162.135C114.98 162.135 120.332 166.259 122.198 171.969M108.67 162.135V114.478M95.1409 171.969C94.6825 173.373 94.4339 174.874 94.4339 176.432C94.4339 184.328 100.808 190.729 108.67 190.729C116.532 190.729 122.906 184.328 122.906 176.432C122.906 174.874 122.657 173.373 122.198 171.969M95.1409 171.969L49.4939 150.609M122.198 171.969L167.845 150.609M108.67 114.478C103.194 114.478 98.4398 111.373 96.0587 106.82M108.67 114.478C114.146 114.478 118.9 111.373 121.281 106.82M108.67 38.2278C102.099 38.2278 96.5683 33.7573 94.9283 27.6796M108.67 38.2278C115.24 38.2278 120.771 33.7573 122.411 27.6796M108.67 38.2278V85.8844M94.9283 27.6796L52.4662 42.5828M94.9283 27.6796C94.6057 26.4849 94.4339 25.228 94.4339 23.9308C94.4339 16.0347 100.808 9.63379 108.67 9.63379C116.532 9.63379 122.906 16.0347 122.906 23.9308C122.906 25.228 122.734 26.4849 122.411 27.6796M122.411 27.6796L164.873 42.5828M108.67 85.8844C113.518 85.8844 117.802 88.3197 120.373 92.0379M108.67 85.8844C103.821 85.8844 99.5379 88.3197 96.9669 92.0379M49.4939 150.609C53.6716 148.117 56.4717 143.54 56.4717 138.307C56.4717 134.904 55.2879 131.779 53.3114 129.323M49.4939 150.609C47.3686 151.876 44.8868 152.604 42.2358 152.604C34.3736 152.604 28 146.202 28 138.307C28 134.073 29.8329 130.268 32.7453 127.65M167.845 150.609C169.971 151.876 172.453 152.604 175.104 152.604C182.966 152.604 189.339 146.202 189.339 138.307C189.339 134.073 187.507 130.268 184.594 127.65M167.845 150.609C163.667 148.117 160.868 143.54 160.868 138.307C160.868 134.904 162.051 131.779 164.028 129.323M53.3114 129.323C50.7016 126.083 46.7098 124.01 42.2358 124.01C38.5897 124.01 35.2639 125.386 32.7453 127.65M53.3114 129.323L96.0587 106.82M32.7453 127.65V63.1813M32.7453 63.1813C35.2639 65.4452 38.5897 66.8218 42.2358 66.8218C46.6646 66.8218 50.6209 64.7907 53.2319 61.6056M32.7453 63.1813C29.8329 60.5634 28 56.7591 28 52.5248C28 44.6287 34.3736 38.2278 42.2358 38.2278C46.2511 38.2278 49.8781 39.8973 52.4662 42.5828M53.2319 61.6056C55.2561 59.1362 56.4717 55.973 56.4717 52.5248C56.4717 48.6612 54.9458 45.1557 52.4662 42.5828M53.2319 61.6056L96.9669 92.0379M96.9669 92.0379C95.3696 94.3492 94.4339 97.1552 94.4339 100.181C94.4339 102.578 95.0213 104.837 96.0587 106.82M164.873 42.5828C162.394 45.1557 160.868 48.6612 160.868 52.5248C160.868 55.973 162.083 59.1362 164.108 61.6056M164.873 42.5828C167.461 39.8973 171.088 38.2278 175.104 38.2278C182.966 38.2278 189.339 44.6287 189.339 52.5248C189.339 56.7591 187.507 60.5634 184.594 63.1813M164.108 61.6056C166.719 64.7907 170.675 66.8218 175.104 66.8218C178.75 66.8218 182.075 65.4452 184.594 63.1813M164.108 61.6056L120.373 92.0379M184.594 63.1813V127.65M184.594 127.65C182.075 125.386 178.75 124.01 175.104 124.01C170.63 124.01 166.638 126.083 164.028 129.323M164.028 129.323L121.281 106.82M121.281 106.82C122.318 104.837 122.906 102.578 122.906 100.181C122.906 97.1552 121.97 94.3492 120.373 92.0379" stroke="#684DE3" stroke-width="6" stroke-linecap="round"/>
</svg>
