<svg width="120" height="121" viewBox="0 0 120 121" fill="none" xmlns="http://www.w3.org/2000/svg">
<path d="M26.3121 64.7923L19.2092 34.6935M49.8142 70.9213L94.9608 25.3719M79.2889 101.45L55.6444 95.1723M56.8889 88.8945C56.8889 102.763 45.7458 114.006 32 114.006C18.2542 114.006 7.11111 102.763 7.11111 88.8945C7.11111 75.0263 18.2542 63.7834 32 63.7834C45.7458 63.7834 56.8889 75.0263 56.8889 88.8945ZM28.8889 22.9779C28.8889 29.9121 23.3173 35.5334 16.4444 35.5334C9.57156 35.5334 4 29.9121 4 22.9779C4 16.0436 9.57156 10.4223 16.4444 10.4223C23.3173 10.4223 28.8889 16.0436 28.8889 22.9779ZM116 16.7001C116 23.6343 110.429 29.2556 103.556 29.2556C96.6825 29.2556 91.1111 23.6343 91.1111 16.7001C91.1111 9.76584 96.6825 4.14453 103.556 4.14453C110.429 4.14453 116 9.76584 116 16.7001ZM103.556 104.589C103.556 111.523 97.9842 117.145 91.1111 117.145C84.238 117.145 78.6667 111.523 78.6667 104.589C78.6667 97.6545 84.238 92.0334 91.1111 92.0334C97.9842 92.0334 103.556 97.6545 103.556 104.589Z" stroke="#684DE3" stroke-width="7" stroke-linecap="round"/>
</svg>
