<svg xmlns="http://www.w3.org/2000/svg" width="27" height="18" viewBox="0 0 27 18" fill="none">
  <path d="M8.48657 0C8.0168 -2.56144e-06 7.55254 0.101128 7.12533 0.29652C6.69812 0.491912 6.31798 0.776985 6.01075 1.13236L0.610752 7.38C0.231116 7.812 0.000389099 8.37818 0.000389099 9V13.9091C0.000389099 14.9941 0.431394 16.0346 1.19859 16.8018C1.96578 17.569 3.00632 18 4.0913 18H7.36403C8.449 18 9.48954 17.569 10.2567 16.8018C11.0239 16.0346 11.4549 14.9941 11.4549 13.9091V11.4545H14.7277V13.9091C14.7277 14.9941 15.1587 16.0346 15.9259 16.8018C16.6931 17.569 17.7336 18 18.8186 18H22.0913C23.1763 18 24.2168 17.569 24.984 16.8018C25.7512 16.0346 26.1822 14.9941 26.1822 13.9091V9C26.1822 8.298 25.8877 7.66636 25.4164 7.21964L20.1719 1.13564C19.8647 0.779451 19.4845 0.49364 19.057 0.297668C18.6294 0.101696 18.1647 0.00016835 17.6944 0H16.364C16.147 0 15.9389 0.0862012 15.7855 0.23964C15.6321 0.393079 15.5459 0.601187 15.5459 0.818182C15.5459 1.03518 15.6321 1.24328 15.7855 1.39672C15.9389 1.55016 16.147 1.63636 16.364 1.63636H17.6944C17.9295 1.63645 18.1619 1.68721 18.3757 1.7852C18.5894 1.88318 18.7796 2.02609 18.9331 2.20418L22.6755 6.54545H17.1822C16.5312 6.54545 15.9069 6.80406 15.4466 7.26437C14.9863 7.72469 14.7277 8.34901 14.7277 9V9.81818H11.4549V9C11.4549 8.34901 11.1963 7.72469 10.736 7.26437C10.2757 6.80406 9.65138 6.54545 9.00039 6.54545H3.49566L7.24948 2.20255C7.40301 2.02496 7.59294 1.88249 7.8064 1.78479C8.01985 1.6871 8.25182 1.63648 8.48657 1.63636H9.81857C10.0356 1.63636 10.2437 1.55016 10.3971 1.39672C10.5506 1.24328 10.6368 1.03518 10.6368 0.818182C10.6368 0.601187 10.5506 0.393079 10.3971 0.23964C10.2437 0.0862012 10.0356 0 9.81857 0H8.48657Z" fill="#6197FF"/>
</svg>