<svg width="70" height="70" viewBox="0 0 70 70" fill="none" xmlns="http://www.w3.org/2000/svg">
<g id="path">
<path id="Vector" d="M15.1432 22.4338C19.1703 22.4338 22.4349 19.1692 22.4349 15.1421C22.4349 11.1151 19.1703 7.85046 15.1432 7.85046C11.1162 7.85046 7.85156 11.1151 7.85156 15.1421C7.85156 19.1692 11.1162 22.4338 15.1432 22.4338ZM15.1432 22.4338V48.6838C15.1432 28.8505 34.1016 15.1421 48.6849 15.1421M13.6849 63.2671H16.6016C19.8232 63.2671 22.4349 60.6555 22.4349 57.4338V54.5171C22.4349 51.2954 19.8232 48.6838 16.6016 48.6838H13.6849C10.4632 48.6838 7.85156 51.2954 7.85156 54.5171V57.4338C7.85156 60.6555 10.4632 63.2671 13.6849 63.2671ZM54.5182 22.4338H57.4349C60.6566 22.4338 63.2682 19.8221 63.2682 16.6005V13.6838C63.2682 10.4621 60.6566 7.85046 57.4349 7.85046H54.5182C51.2965 7.85046 48.6849 10.4621 48.6849 13.6838V16.6005C48.6849 19.8221 51.2965 22.4338 54.5182 22.4338Z" stroke="#FFFFFF" stroke-width="3" stroke-linecap="round"/>
</g>
</svg>
