<svg width="101" height="124" viewBox="0 0 101 124" fill="none" xmlns="http://www.w3.org/2000/svg">
<path id="Vector" d="M25.4138 55.3333V27C25.4138 13.1929 36.6453 2 50.5 2C64.3549 2 75.5862 13.1929 75.5862 27V55.3333M15.3793 122H85.6207C93.0101 122 99 116.031 99 108.667V68.6667C99 61.3027 93.0101 55.3333 85.6207 55.3333H15.3793C7.99012 55.3333 2 61.3027 2 68.6667V108.667C2 116.031 7.99012 122 15.3793 122ZM65.5517 88.6667C65.5517 96.0307 59.5618 102 52.1724 102C44.783 102 38.7931 96.0307 38.7931 88.6667C38.7931 81.3027 44.783 75.3333 52.1724 75.3333C59.5618 75.3333 65.5517 81.3027 65.5517 88.6667Z" stroke="#FFFFFF" stroke-width="4" stroke-linecap="round"/>
</svg>
