<svg width="73" height="62" viewBox="0 0 73 62" fill="none" xmlns="http://www.w3.org/2000/svg">
<path id="Vector" d="M58.2895 38.25V31C58.2895 18.9878 48.534 9.25 36.5 9.25C24.466 9.25 14.7105 18.9878 14.7105 31V38.25M36.5 16.5C28.4773 16.5 21.9737 22.9919 21.9737 31M60.1053 11.0625L69.1842 2M63.7368 21.9375L71 20.125M12.8947 11.0625L3.81579 2M9.26316 21.9375L2 20.125M18.3421 60H54.6579C58.6693 60 61.9211 56.7542 61.9211 52.75C61.9211 48.7458 58.6693 45.5 54.6579 45.5H18.3421C14.3308 45.5 11.0789 48.7458 11.0789 52.75C11.0789 56.7542 14.3308 60 18.3421 60Z" stroke="#FFFFFF" stroke-width="3" stroke-linecap="round"/>
</svg>
